<?xml version="1.0" encoding="utf-8"?>
<svg version="1.1" id="councils-graphic" xmlns="http://www.w3.org/2000/svg" xmlns:xlink="http://www.w3.org/1999/xlink" viewBox="0 0 921.9 98.59" xml:space="preserve">
	<defs>
		<style>
			.cls-1{fill:#6d8d58;}
			.cls-2{fill:#f7ac49;}
			.cls-3{fill:#13385e;}
			.cls-4{fill:#53575a;}
			.cls-5{fill:#adb947;}
			.cls-6{fill:#333;}
			.cls-7{fill:#06a2cc;}
			.cls-8{font-size:12px;fill:#fff;font-family:"Lato Bold", Lato, Arial;font-weight:700;text-transform: uppercase;}
			.cls-9{letter-spacing:-0.02em;}.cls-10{letter-spacing:-0.03em;}
			.cls-11{letter-spacing:-0.02em;}
			.cls-12{letter-spacing:-0.02em;}
			.cls-13{letter-spacing:-0.07em;}
			.cls-14{letter-spacing:-0.04em;}
			.cls-15{letter-spacing:-0.02em;}
			.cls-16{letter-spacing:-0.01em;}
			.cls-17{letter-spacing:-0.03em;}
			.cls-18{letter-spacing:-0.02em;}
			.cls-19{letter-spacing:-0.03em;}
			text{pointer-events:none;}
			a{transition: opacity 400ms ease-in-out;}
			a:hover{opacity:0.8}
		</style>
	</defs>
	<title>councils</title>
	<a xlink:href="https://nwcua.org/professional-development/councils/compliance-council/" target="_top" title="Compliance Council">
		<polyline class="cls-1" points="124.44 78.59 0 78.59 13.83 39.3 0 0 124.44 0 138.27 39.3 124.44 78.59" />
	</a>
	<a xlink:href="https://nwcua.org/professional-development/councils/hr-trainers-council/" target="_top" title="HR Trainers Council">
		<polyline class="cls-2" points="255.05 78.59 130.61 78.59 144.43 39.3 130.61 0 255.05 0 268.87 39.3 255.05 78.59" />
	</a>
	<a xlink:href="https://nwcua.org/professional-development/councils/lenders-council/" target="_top" title="Lender's Council">
		<polyline class="cls-3" points="385.65 78.59 261.21 78.59 275.04 39.3 261.21 0 385.65 0 399.48 39.3 385.65 78.59" />
	</a>
	<a xlink:href="https://nwcua.org/professional-development/councils/marketing-business-development-community-outreach-council/" target="_top" title="Marketing, Biz Dev, Community Outreach Council">
		<polyline class="cls-4" points="646.86 78.59 522.42 78.59 536.25 39.3 522.42 0 646.86 0 660.69 39.3 646.86 78.59" />
	</a>
	<a xlink:href="https://nwcua.org/professional-development/councils/commercial-services-council/" target="_top" title="Commercial Services Council">
		<polyline class="cls-5" points="777.47 78.59 653.03 78.59 666.86 39.3 653.03 0 777.47 0 791.3 39.3 777.47 78.59" />
	</a>
	<a xlink:href="https://nwcua.org/councils/risk-management-council/" target="_top" title="Risk Management Council">
		<polyline class="cls-6" points="908.08 78.59 783.63 78.59 797.46 39.3 783.63 0 908.08 0 921.9 39.3 908.08 78.59" />
	</a>
	<a xlink:href="https://nwcua.org/professional-development/councils/collectors-council/" target="_top" title="Collector's Council">
		<polyline class="cls-7" points="516.26 78.59 391.82 78.59 405.64 39.3 391.82 0 516.26 0 530.09 39.3 516.26 78.59" />
	</a>
	<text class="cls-8" transform="translate(34.23 44.51)">
		<tspan class="cls-9">COMPLIANCE</tspan>
	</text>
	<text class="cls-8" transform="translate(159.67 44.51)">
		HR &amp;
		<tspan class="cls-10" x="28.56" y="0" />
		<tspan x="31.11" y="0">TRAINERS</tspan>
	</text>
	<text class="cls-8" transform="translate(307.9 44.51)">LENDERS</text>
	<text class="cls-8" transform="translate(426.91 44.51)">
		<tspan class="cls-9">COLLECTORS</tspan>
	</text>
	<text class="cls-8" transform="translate(559.43 23.51)">
		MARKETING
		<tspan x="11.64" y="14.4">BIZ DEV,</tspan>
		<tspan class="cls-9" x="-2.55" y="28.8">COMMUNITY</tspan>
		<tspan x="2.77" y="43.2">OUTREACH</tspan>
	</text>
	<text class="cls-8" transform="translate(685.29 36.51)">
		<tspan class="cls-9">COMMERCIAL</tspan>
		<tspan x="13.04" y="14.4">SERVICES</tspan>
	</text>
	<text class="cls-8" transform="translate(842.81 34.51)">
		RISK
		<tspan x="-30.42" y="14.4">MANAGEMENT</tspan>
	</text>
</svg>