<?xml version="1.0" encoding="utf-8"?>
<svg version="1.1" xmlns="http://www.w3.org/2000/svg" xmlns:xlink="http://www.w3.org/1999/xlink" viewBox="0 0 681.38 211.48" xml:space="preserve">
	<defs>
		<style>
		.cls-1, .cls-4 { fill: #172b53; }
		.cls-1, .cls-11, .cls-14, .cls-15, .cls-18, .cls-23, .cls-7, .cls-8 { stroke: #fff; }
		.cls-1, .cls-11, .cls-12, .cls-14, .cls-15, .cls-16, .cls-18, .cls-19, .cls-21, .cls-23, .cls-3, .cls-5, .cls-7, .cls-8, .cls-9 { stroke-miterlimit: 10; }
		.cls-1, .cls-14, .cls-15, .cls-18, .cls-23, .cls-7, .cls-8 { stroke-width: 1.06px; }
		.cls-2 { fill: #fff; }
		.cls-12, .cls-16, .cls-19, .cls-21, .cls-3, .cls-5, .cls-9 { fill: none; stroke-width: 1.98px; }
		.cls-3 { stroke: #172b53; }
		.cls-5 { stroke: #055481; }
		.cls-6, .cls-7 { fill: #055481; }
		.cls-10, .cls-11, .cls-8 { fill: #0092bb; }
		.cls-9 { stroke: #0092bb; }
		.cls-11 { stroke-width: 0.95px; }
		.cls-12 { stroke: #22958a; }
		.cls-13, .cls-14 { fill: #22958a; }
		.cls-15, .cls-17 { fill: #789c49; }
		.cls-16 { stroke: #789c49; }
		.cls-18, .cls-20 { fill: #eb8b23; }
		.cls-19 { stroke: #eb8b23; }
		.cls-21 { stroke: #98a344; }
		.cls-22, .cls-23 { fill: #98a344; }
		#financial, #directors, #enterprise, #culture, #community, #operational, #inform { transition: opacity 400ms ease-in-out; opacity: 1; }
		#financial:hover, #directors:hover, #enterprise:hover, #culture:hover, #community:hover, #operational:hover, #inform:hover { opacity: .8; }
		</style>
	</defs>
	<g id="traxx" data-name="Traxx Graphic">
		<a xlink:href="https://nwcua.org/financial-strategy-riding-the-economic-wave-of-opportunity/" title="Financial Strategy: Riding the Economic Wave of Opportunity" target="_top"><g id="financial">
			<polygon class="cls-1" points="619.3 125.68 529.09 125.68 539.39 88.7 629.64 88.7 619.3 125.68" />
			<path class="cls-2" d="M591.67,114.39l-2.28-1.31v.82H571.11V99.27h.83L570.61,97l-1.33,2.3h.83v15.62h19.28v.82l2.28-1.32Zm-19-9.91a40,40,0,0,0,13.28-5l.37.7L587.7,98l-2.64-.1.4.75a39,39,0,0,1-13,4.9l.17,1Zm13.82-3a.73.73,0,0,0-.73.73v10a.74.74,0,0,0,.73.74h1.23a.74.74,0,0,0,.74-.74v-10a.74.74,0,0,0-.74-.73ZM582,103.11a.74.74,0,0,0-.74.74v8.38a.74.74,0,0,0,.74.74h1.23a.73.73,0,0,0,.73-.74v-8.38a.73.73,0,0,0-.73-.74Zm-4.48,1.54a.74.74,0,0,0-.73.74v6.84a.74.74,0,0,0,.73.74h1.23a.74.74,0,0,0,.74-.74v-6.84a.74.74,0,0,0-.74-.74Zm-5.21,7.58v-5a.74.74,0,0,1,.74-.74h1.23a.73.73,0,0,1,.73.74v5a.73.73,0,0,1-.73.74H573a.74.74,0,0,1-.74-.74Z" />
			<line class="cls-3" x1="579.57" y1="89.11" x2="579.57" y2="6.67" />
			<circle class="cls-4" cx="579.57" cy="4.47" r="4.47" />
			<path class="cls-4" d="M588.22,25.62h5.32V27h-3.78v1.49h3.33v1.4h-3.33v2.71h-1.54Z" />
			<path class="cls-4" d="M594.85,25.62h1.53v7h-1.53Z" />
			<path class="cls-4" d="M598.14,25.62h1.42l3.27,4.31V25.62h1.52v7H603l-3.38-4.45v4.45h-1.52Z" />
			<path class="cls-4" d="M608.44,25.57h1.41l3,7h-1.61l-.64-1.57h-3L607,32.62h-1.57Zm1.61,4.12-.93-2.27-.92,2.27Z" />
			<path class="cls-4" d="M613.94,25.62h1.42l3.27,4.31V25.62h1.52v7h-1.31l-3.38-4.45v4.45h-1.52Z" />
			<path class="cls-4" d="M621.53,29.14v0a3.76,3.76,0,0,1,6.4-2.54l-1,1.13a2.56,2.56,0,0,0-1.78-.79,2.07,2.07,0,0,0-2,2.18v0a2.08,2.08,0,0,0,2,2.2A2.52,2.52,0,0,0,627,30.5l1,1a3.57,3.57,0,0,1-2.86,1.25A3.53,3.53,0,0,1,621.53,29.14Z" />
			<path class="cls-4" d="M629.29,25.62h1.54v7h-1.54Z" />
			<path class="cls-4" d="M635,25.57h1.42l3,7h-1.6l-.64-1.57h-3l-.64,1.57H632Zm1.62,4.12-.93-2.27-.93,2.27Z" />
			<path class="cls-4" d="M640.48,25.62H642v5.6h3.49v1.4h-5Z" />
			<path class="cls-4" d="M587.74,43.6l.91-1.09a3.21,3.21,0,0,0,2.09.85c.63,0,1-.25,1-.66v0c0-.39-.24-.59-1.41-.89-1.4-.36-2.31-.75-2.31-2.14v0a2.19,2.19,0,0,1,2.44-2.11,4.05,4.05,0,0,1,2.6.89l-.8,1.16a3.26,3.26,0,0,0-1.81-.69c-.59,0-.9.27-.9.61v0c0,.46.3.61,1.5.92,1.42.37,2.22.88,2.22,2.1v0c0,1.39-1.06,2.17-2.57,2.17A4.45,4.45,0,0,1,587.74,43.6Z" />
			<path class="cls-4" d="M596.1,39H594V37.62h5.79V39h-2.13v5.58H596.1Z" />
			<path class="cls-4" d="M601,37.62h3.19a2.79,2.79,0,0,1,2,.71,2.2,2.2,0,0,1,.6,1.6v0a2.17,2.17,0,0,1-1.5,2.17l1.71,2.5h-1.8l-1.5-2.24h-1.2v2.24H601ZM604,41c.75,0,1.18-.4,1.18-1v0c0-.66-.46-1-1.21-1h-1.52v2Z" />
			<path class="cls-4" d="M610.57,37.57H612l3,7h-1.61l-.64-1.57h-3l-.64,1.57h-1.56Zm1.62,4.12-.93-2.27-.93,2.27Z" />
			<path class="cls-4" d="M616.81,39h-2.13V37.62h5.79V39h-2.13v5.58h-1.53Z" />
			<path class="cls-4" d="M621.66,37.62h5.27V39h-3.74v1.42h3.29v1.37h-3.29v1.47H627v1.37h-5.32Z" />
			<path class="cls-4" d="M628.05,41.14v0a3.59,3.59,0,0,1,3.66-3.62,3.84,3.84,0,0,1,2.75,1l-1,1.17a2.58,2.58,0,0,0-1.83-.71,2.09,2.09,0,0,0-2,2.18v0a2.1,2.1,0,0,0,2.11,2.22,2.46,2.46,0,0,0,1.45-.42v-1h-1.55V40.59h3v3a4.54,4.54,0,0,1-3,1.11A3.5,3.5,0,0,1,628.05,41.14Z" />
			<path class="cls-4" d="M637.87,41.86l-2.69-4.24H637l1.66,2.81,1.7-2.81h1.75l-2.69,4.21v2.79h-1.53Z" />
			<path class="cls-4" d="M642.49,39.26h1.62v1.6h-1.62Zm0,3.76h1.62v1.6h-1.62Z" />
			<path class="cls-4" d="M588.27,49.12H591a2.48,2.48,0,0,1,1.79.63,1.7,1.7,0,0,1,.49,1.24v0a1.84,1.84,0,0,1-1.72,1.83l1.94,2.58h-.87L590.78,53H589v2.45h-.71Zm2.64,3.21c1,0,1.63-.49,1.63-1.3h0c0-.78-.6-1.25-1.62-1.25H589v2.56Z" />
			<path class="cls-4" d="M594.68,49h.79v.77h-.79Zm0,1.78h.69v4.66h-.69Z" />
			<path class="cls-4" d="M596.75,53.11v0A2.29,2.29,0,0,1,599,50.67a2.08,2.08,0,0,1,1.78,1V48.85h.69v6.57h-.69v-.94a2.1,2.1,0,0,1-1.78,1A2.27,2.27,0,0,1,596.75,53.11Zm4,0v0a1.73,1.73,0,0,0-1.69-1.79,1.63,1.63,0,0,0-1.63,1.79v0a1.68,1.68,0,0,0,1.63,1.8A1.74,1.74,0,0,0,600.79,53.1Z" />
			<path class="cls-4" d="M603,49h.79v.77H603Zm0,1.78h.7v4.66h-.7Z" />
			<path class="cls-4" d="M605.37,50.76h.69v.82a1.75,1.75,0,0,1,1.59-.91,1.7,1.7,0,0,1,1.79,1.86v2.89h-.7V52.7a1.23,1.23,0,0,0-1.28-1.4,1.37,1.37,0,0,0-1.4,1.45v2.67h-.69Z" />
			<path class="cls-4" d="M610.86,56.23l.31-.54a3,3,0,0,0,1.79.59,1.53,1.53,0,0,0,1.7-1.65v-.55a2.22,2.22,0,0,1-1.83,1,2.15,2.15,0,0,1-2.19-2.18v0a2.16,2.16,0,0,1,2.19-2.19,2.2,2.2,0,0,1,1.82.93v-.84h.69v3.85a2.28,2.28,0,0,1-.59,1.65,2.49,2.49,0,0,1-1.78.62A3.66,3.66,0,0,1,610.86,56.23Zm3.81-3.36v0A1.62,1.62,0,0,0,613,51.28a1.54,1.54,0,0,0-1.61,1.56v0A1.58,1.58,0,0,0,613,54.45,1.64,1.64,0,0,0,614.67,52.87Z" />
			<path class="cls-4" d="M619.83,54.19V51.38h-.65v-.62h.65v-1.4h.69v1.4H622v.62h-1.48V54.1a.69.69,0,0,0,.79.77,1.4,1.4,0,0,0,.67-.16v.59a1.67,1.67,0,0,1-.83.2A1.19,1.19,0,0,1,619.83,54.19Z" />
			<path class="cls-4" d="M623.22,48.85h.7v2.73a1.74,1.74,0,0,1,1.59-.91,1.69,1.69,0,0,1,1.78,1.86v2.89h-.69V52.7a1.24,1.24,0,0,0-1.29-1.4,1.36,1.36,0,0,0-1.39,1.45v2.67h-.7Z" />
			<path class="cls-4" d="M628.48,53.11v0a2.29,2.29,0,0,1,2.23-2.42,2.21,2.21,0,0,1,2.17,2.45,1.69,1.69,0,0,1,0,.23h-3.69a1.62,1.62,0,0,0,1.64,1.57,2,2,0,0,0,1.47-.65l.43.38a2.39,2.39,0,0,1-1.92.88A2.31,2.31,0,0,1,628.48,53.11Zm3.7-.27a1.54,1.54,0,0,0-1.49-1.59,1.61,1.61,0,0,0-1.51,1.59Z" />
			<path class="cls-4" d="M636.91,49.12h4.56v.65h-3.85v2.15h3.44v.65h-3.44v2.2h3.89v.65h-4.6Z" />
			<path class="cls-4" d="M642.45,53.11h0a2.43,2.43,0,0,1,4.25-1.61l-.46.49a1.88,1.88,0,0,0-1.41-.7,1.72,1.72,0,0,0-1.67,1.8v0a1.75,1.75,0,0,0,1.71,1.81,1.92,1.92,0,0,0,1.42-.7l.44.42a2.4,2.4,0,0,1-4.28-1.52Z" />
			<path class="cls-4" d="M647.45,53.11h0a2.41,2.41,0,0,1,2.43-2.43,2.38,2.38,0,0,1,2.42,2.41v0a2.42,2.42,0,0,1-2.44,2.43A2.39,2.39,0,0,1,647.45,53.11Zm4.14,0h0a1.76,1.76,0,0,0-1.73-1.82,1.72,1.72,0,0,0-1.7,1.8v0a1.75,1.75,0,0,0,1.72,1.81A1.72,1.72,0,0,0,651.59,53.11Z" />
			<path class="cls-4" d="M653.55,50.76h.7v.82a1.74,1.74,0,0,1,1.59-.91,1.69,1.69,0,0,1,1.78,1.86v2.89h-.69V52.7a1.24,1.24,0,0,0-1.29-1.4,1.36,1.36,0,0,0-1.39,1.45v2.67h-.7Z" />
			<path class="cls-4" d="M658.81,53.11h0a2.41,2.41,0,0,1,2.43-2.43,2.38,2.38,0,0,1,2.42,2.41v0a2.42,2.42,0,0,1-2.44,2.43A2.39,2.39,0,0,1,658.81,53.11Zm4.14,0h0a1.76,1.76,0,0,0-1.73-1.82,1.72,1.72,0,0,0-1.7,1.8v0a1.75,1.75,0,0,0,1.72,1.81A1.72,1.72,0,0,0,663,53.11Z" />
			<path class="cls-4" d="M664.91,50.76h.69v.79a1.7,1.7,0,0,1,1.51-.88,1.58,1.58,0,0,1,1.49.92,1.87,1.87,0,0,1,1.64-.92A1.67,1.67,0,0,1,672,52.54v2.88h-.69V52.7c0-.9-.45-1.4-1.21-1.4a1.3,1.3,0,0,0-1.28,1.44v2.68h-.69V52.68c0-.87-.46-1.38-1.2-1.38a1.35,1.35,0,0,0-1.3,1.46v2.66h-.69Z" />
			<path class="cls-4" d="M673.49,49h.79v.77h-.79Zm0,1.78h.7v4.66h-.7Z" />
			<path class="cls-4" d="M675.55,53.11h0a2.43,2.43,0,0,1,4.25-1.61l-.46.49a1.86,1.86,0,0,0-1.41-.7,1.72,1.72,0,0,0-1.67,1.8v0A1.75,1.75,0,0,0,678,54.91a1.92,1.92,0,0,0,1.42-.7l.44.42a2.4,2.4,0,0,1-4.28-1.52Z" />
			<path class="cls-4" d="M587.78,59.92h.78l1.8,5.25,1.72-5.27h.59l1.73,5.27,1.8-5.25H597l-2.25,6.34h-.61l-1.73-5.11-1.73,5.11H590Z" />
			<path class="cls-4" d="M597.13,64.87v0c0-1,.81-1.5,2-1.5a4.78,4.78,0,0,1,1.43.2v-.17c0-.83-.51-1.27-1.38-1.27a3.27,3.27,0,0,0-1.42.35l-.2-.57a3.86,3.86,0,0,1,1.69-.39,2,2,0,0,1,1.5.52,1.8,1.8,0,0,1,.48,1.36v2.84h-.67v-.7a2,2,0,0,1-1.68.8A1.58,1.58,0,0,1,597.13,64.87Zm3.43-.36v-.45a4.8,4.8,0,0,0-1.37-.2c-.87,0-1.36.38-1.36,1v0c0,.59.54.93,1.18.93A1.4,1.4,0,0,0,600.56,64.51Z" />
			<path class="cls-4" d="M602.06,61.57h.76l1.57,3.86L606,61.57h.75l-2,4.69h-.62Z" />
			<path class="cls-4" d="M607.24,63.91v0a2.3,2.3,0,0,1,2.23-2.42,2.21,2.21,0,0,1,2.17,2.45,1.69,1.69,0,0,1,0,.23h-3.69a1.62,1.62,0,0,0,1.64,1.57,2,2,0,0,0,1.47-.65l.43.38a2.38,2.38,0,0,1-1.92.88A2.31,2.31,0,0,1,607.24,63.91Zm3.7-.27a1.54,1.54,0,0,0-1.49-1.59,1.61,1.61,0,0,0-1.51,1.59Z" />
			<path class="cls-4" d="M615.27,63.92v0a2.43,2.43,0,0,1,4.85,0v0a2.42,2.42,0,0,1-2.44,2.43A2.39,2.39,0,0,1,615.27,63.92Zm4.14,0v0a1.76,1.76,0,0,0-1.73-1.82,1.72,1.72,0,0,0-1.7,1.8v0a1.75,1.75,0,0,0,1.72,1.81A1.72,1.72,0,0,0,619.41,63.92Z" />
			<path class="cls-4" d="M621.63,62.18H621v-.61h.64v-.4A1.66,1.66,0,0,1,622,60a1.37,1.37,0,0,1,1-.36,2.09,2.09,0,0,1,.76.12v.6a2.38,2.38,0,0,0-.68-.12c-.54,0-.8.33-.8,1v.37h1.47v.6h-1.47v4h-.69Z" />
			<path class="cls-4" d="M627.21,63.09v0a3.22,3.22,0,1,1,6.43,0v0a3.22,3.22,0,1,1-6.43,0Zm5.69,0v0a2.5,2.5,0,0,0-2.48-2.6A2.48,2.48,0,0,0,628,63.05v0a2.5,2.5,0,0,0,2.48,2.6A2.48,2.48,0,0,0,632.9,63.09Z" />
			<path class="cls-4" d="M635,61.57h.7v.93a2.06,2.06,0,0,1,1.78-1,2.26,2.26,0,0,1,2.22,2.41v0a2.28,2.28,0,0,1-2.22,2.42,2.09,2.09,0,0,1-1.78-1v2.33H635Zm4,2.34v0a1.68,1.68,0,0,0-1.64-1.8,1.74,1.74,0,0,0-1.68,1.79v0a1.73,1.73,0,0,0,1.68,1.8A1.65,1.65,0,0,0,639,63.91Z" />
			<path class="cls-4" d="M641,61.57h.69v.93a2.09,2.09,0,0,1,1.78-1,2.27,2.27,0,0,1,2.23,2.41v0a2.28,2.28,0,0,1-2.23,2.42,2.11,2.11,0,0,1-1.78-1v2.33H641Zm4,2.34v0a1.68,1.68,0,0,0-1.64-1.8,1.74,1.74,0,0,0-1.69,1.79v0a1.73,1.73,0,0,0,1.69,1.8A1.65,1.65,0,0,0,645,63.91Z" />
			<path class="cls-4" d="M646.69,63.92v0a2.43,2.43,0,0,1,4.85,0v0a2.42,2.42,0,0,1-2.44,2.43A2.38,2.38,0,0,1,646.69,63.92Zm4.14,0v0a1.76,1.76,0,0,0-1.73-1.82,1.72,1.72,0,0,0-1.7,1.8v0a1.75,1.75,0,0,0,1.72,1.81A1.72,1.72,0,0,0,650.83,63.92Z" />
			<path class="cls-4" d="M652.79,61.57h.69v1.21a2,2,0,0,1,1.9-1.3v.75h0a1.88,1.88,0,0,0-1.85,2.14v1.85h-.69Z" />
			<path class="cls-4" d="M656.68,65V62.18H656v-.61h.65V60.16h.69v1.41h1.47v.61h-1.47V64.9a.69.69,0,0,0,.78.77,1.44,1.44,0,0,0,.68-.16v.59a1.74,1.74,0,0,1-.84.2A1.18,1.18,0,0,1,656.68,65Z" />
			<path class="cls-4" d="M660,64.46V61.57h.69v2.71A1.24,1.24,0,0,0,662,65.69a1.37,1.37,0,0,0,1.39-1.46V61.57h.69v4.65h-.69v-.81a1.77,1.77,0,0,1-1.59.91A1.7,1.7,0,0,1,660,64.46Z" />
			<path class="cls-4" d="M665.61,61.57h.7v.81a1.74,1.74,0,0,1,1.59-.91,1.7,1.7,0,0,1,1.78,1.86v2.89H669V63.5a1.24,1.24,0,0,0-1.29-1.4,1.36,1.36,0,0,0-1.39,1.45v2.67h-.7Z" />
			<path class="cls-4" d="M671.17,59.78h.8v.77h-.8Zm.05,1.79h.69v4.65h-.69Z" />
			<path class="cls-4" d="M673.77,65V62.18h-.65v-.61h.65V60.16h.69v1.41h1.48v.61h-1.48V64.9a.69.69,0,0,0,.78.77,1.44,1.44,0,0,0,.68-.16v.59a1.74,1.74,0,0,1-.84.2A1.18,1.18,0,0,1,673.77,65Z" />
			<path class="cls-4" d="M680.64,61.57h.74l-2,4.8c-.4,1-.85,1.32-1.55,1.32a2,2,0,0,1-1-.24l.23-.55a1.44,1.44,0,0,0,.73.18c.42,0,.68-.22,1-.88l-2.12-4.63h.77l1.69,3.88Z" />
		</g></a>
		<a xlink:href="https://nwcua.org/directors-only-series-guiding-the-movement-into-tomorrow/" title="Directors’ Only Series: Guiding the Movement into Tomorrow" target="_top"><g id="directors">
			<line class="cls-5" x1="490.66" y1="122.37" x2="490.66" y2="204.81" />
			<circle class="cls-6" cx="490.66" cy="207.02" r="4.47" />
			<polygon class="cls-7" points="529.72 125.68 439.52 125.68 449.82 88.7 540.07 88.7 529.72 125.68" />
			<path class="cls-2" d="M495.26,106.23l1.5-2.4-2.41,1.48a3.79,3.79,0,0,1,.91.92Z" />
			<path class="cls-2" d="M494.34,111.55l2.4,1.5-1.48-2.41a4.18,4.18,0,0,1-.92.91Z" />
			<path class="cls-2" d="M489,110.62l-1.49,2.4,2.41-1.48a3.66,3.66,0,0,1-.92-.92Z" />
			<path class="cls-2" d="M489.93,105.3l-2.4-1.5,1.48,2.41a3.79,3.79,0,0,1,.92-.91Z" />
			<path class="cls-2" d="M492.13,109.18a.76.76,0,0,1-.76-.76.76.76,0,1,1,1.52,0,.76.76,0,0,1-.76.76ZM494,107a2.23,2.23,0,0,0-.46-.46l-1.37-5.88-1.4,5.88a2.23,2.23,0,0,0-.46.46l-5.88,1.37,5.87,1.4a2.86,2.86,0,0,0,.46.46l1.38,5.87,1.4-5.87a2.23,2.23,0,0,0,.46-.46l5.88-1.37L494,107Z" />
			<path class="cls-2" d="M492.13,117.22a8.79,8.79,0,1,1,8.79-8.79,8.8,8.8,0,0,1-8.79,8.79Zm0-21.78a1,1,0,1,1-1,1,1,1,0,0,1,1-1Zm2.14,2.38a2.5,2.5,0,0,0,.4-1.36,2.54,2.54,0,1,0-5.08,0,2.49,2.49,0,0,0,.39,1.36,10.82,10.82,0,1,0,4.29,0Z" />
			<path class="cls-6" d="M499.08,156.27h2.73a3.49,3.49,0,0,1,3.71,3.48v0a3.5,3.5,0,0,1-3.71,3.5h-2.73Zm2.73,5.61a2,2,0,0,0,2.1-2.09v0a2,2,0,0,0-2.1-2.11h-1.19v4.22Z" />
			<path class="cls-6" d="M507,156.27h1.54v7H507Z" />
			<path class="cls-6" d="M510.26,156.27h3.2a2.79,2.79,0,0,1,2,.71,2.23,2.23,0,0,1,.59,1.6v0a2.17,2.17,0,0,1-1.5,2.17l1.71,2.5h-1.8L513,161H511.8v2.24h-1.54Zm3.1,3.4c.75,0,1.18-.4,1.18-1v0c0-.66-.46-1-1.21-1H511.8v2Z" />
			<path class="cls-6" d="M517.49,156.27h5.27v1.37H519v1.42h3.29v1.37H519v1.47h3.79v1.37h-5.32Z" />
			<path class="cls-6" d="M523.88,159.79v0a3.56,3.56,0,0,1,3.65-3.62,3.6,3.6,0,0,1,2.75,1.08l-1,1.13a2.58,2.58,0,0,0-1.78-.79,2.07,2.07,0,0,0-2,2.18v0a2.08,2.08,0,0,0,2,2.2,2.52,2.52,0,0,0,1.83-.82l1,1a3.57,3.57,0,0,1-2.86,1.25A3.53,3.53,0,0,1,523.88,159.79Z" />
			<path class="cls-6" d="M533.2,157.69h-2.13v-1.42h5.79v1.42h-2.12v5.58H533.2Z" />
			<path class="cls-6" d="M537.44,159.79v0a3.72,3.72,0,0,1,7.43,0v0a3.72,3.72,0,0,1-7.43,0Zm5.82,0v0a2.13,2.13,0,0,0-2.12-2.2,2.09,2.09,0,0,0-2.09,2.18v0a2.12,2.12,0,0,0,2.11,2.2A2.09,2.09,0,0,0,543.26,159.79Z" />
			<path class="cls-6" d="M546.25,156.27h3.2a2.78,2.78,0,0,1,2,.71,2.2,2.2,0,0,1,.6,1.6v0a2.17,2.17,0,0,1-1.5,2.17l1.71,2.5h-1.8L549,161h-1.21v2.24h-1.54Zm3.09,3.4c.75,0,1.18-.4,1.18-1v0c0-.66-.46-1-1.2-1h-1.53v2Z" />
			<path class="cls-6" d="M553,162.25l.91-1.09A3.21,3.21,0,0,0,556,162c.62,0,1-.25,1-.66v0c0-.39-.24-.59-1.41-.89-1.4-.36-2.31-.75-2.31-2.14v0a2.19,2.19,0,0,1,2.44-2.11,4.05,4.05,0,0,1,2.6.89l-.8,1.16a3.28,3.28,0,0,0-1.82-.69c-.58,0-.89.27-.89.61v0c0,.46.3.61,1.5.92,1.42.37,2.22.88,2.22,2.1v0c0,1.39-1.06,2.17-2.57,2.17A4.45,4.45,0,0,1,553,162.25Z" />
			<path class="cls-6" d="M559.35,158.86c.69-.07,1-.42,1-1h-.62v-1.6h1.62v1.35a1.64,1.64,0,0,1-1.85,1.87Z" />
			<path class="cls-6" d="M498.77,171.79v0a3.72,3.72,0,0,1,7.43,0v0a3.72,3.72,0,0,1-7.43,0Zm5.82,0v0a2.13,2.13,0,0,0-2.12-2.2,2.09,2.09,0,0,0-2.09,2.18v0a2.13,2.13,0,0,0,2.12,2.2A2.09,2.09,0,0,0,504.59,171.79Z" />
			<path class="cls-6" d="M507.58,168.27H509l3.27,4.31v-4.31h1.52v7h-1.31l-3.38-4.45v4.45h-1.52Z" />
			<path class="cls-6" d="M515.48,168.27H517v5.6h3.48v1.4h-5Z" />
			<path class="cls-6" d="M522.34,172.51l-2.69-4.24h1.8l1.67,2.81,1.69-2.81h1.75l-2.69,4.21v2.79h-1.53Z" />
			<path class="cls-6" d="M530.05,174.25l.91-1.09a3.21,3.21,0,0,0,2.09.85c.63,0,1-.25,1-.66v0c0-.39-.23-.59-1.4-.89-1.41-.36-2.32-.75-2.32-2.14v0a2.19,2.19,0,0,1,2.45-2.11,4,4,0,0,1,2.59.89l-.79,1.16a3.31,3.31,0,0,0-1.82-.69c-.59,0-.9.27-.9.61v0c0,.46.3.61,1.51.92,1.42.37,2.21.88,2.21,2.1v0c0,1.39-1.06,2.17-2.56,2.17A4.45,4.45,0,0,1,530.05,174.25Z" />
			<path class="cls-6" d="M536.93,168.27h5.27v1.37h-3.74v1.42h3.29v1.37h-3.29v1.47h3.79v1.37h-5.32Z" />
			<path class="cls-6" d="M543.63,168.27h3.2a2.75,2.75,0,0,1,2,.71,2.2,2.2,0,0,1,.6,1.6v0a2.17,2.17,0,0,1-1.5,2.17l1.71,2.5h-1.8L546.38,173h-1.21v2.24h-1.54Zm3.1,3.4c.75,0,1.18-.4,1.18-1v0c0-.66-.46-1-1.21-1h-1.53v2Z" />
			<path class="cls-6" d="M550.93,168.27h1.54v7h-1.54Z" />
			<path class="cls-6" d="M554.22,168.27h5.27v1.37h-3.74v1.42H559v1.37h-3.29v1.47h3.79v1.37h-5.32Z" />
			<path class="cls-6" d="M560.44,174.25l.91-1.09a3.21,3.21,0,0,0,2.09.85c.63,0,1-.25,1-.66v0c0-.39-.24-.59-1.41-.89-1.41-.36-2.32-.75-2.32-2.14v0a2.19,2.19,0,0,1,2.45-2.11,4,4,0,0,1,2.59.89l-.79,1.16a3.28,3.28,0,0,0-1.82-.69c-.59,0-.9.27-.9.61v0c0,.46.3.61,1.51.92,1.42.37,2.21.88,2.21,2.1v0c0,1.39-1.06,2.17-2.56,2.17A4.45,4.45,0,0,1,560.44,174.25Z" />
			<path class="cls-6" d="M567.15,169.91h1.62v1.6h-1.62Zm0,3.76h1.62v1.6h-1.62Z" />
			<path class="cls-6" d="M498.85,182.94v0a3.16,3.16,0,0,1,3.16-3.26,3.29,3.29,0,0,1,2.35.84l-.46.54a2.67,2.67,0,0,0-1.92-.72,2.46,2.46,0,0,0-2.39,2.58v0a2.43,2.43,0,0,0,2.49,2.62,3,3,0,0,0,1.82-.63v-1.57H502v-.64h2.6v2.51a3.76,3.76,0,0,1-2.53,1A3.09,3.09,0,0,1,498.85,182.94Z" />
			<path class="cls-6" d="M506,184.3v-2.89h.69v2.72a1.24,1.24,0,0,0,1.29,1.41,1.37,1.37,0,0,0,1.39-1.46v-2.67h.69v4.66h-.69v-.81a1.77,1.77,0,0,1-1.59.91A1.7,1.7,0,0,1,506,184.3Z" />
			<path class="cls-6" d="M511.63,179.63h.79v.77h-.79Zm0,1.78h.7v4.66h-.7Z" />
			<path class="cls-6" d="M513.71,183.75h0a2.29,2.29,0,0,1,2.22-2.43,2.08,2.08,0,0,1,1.78,1V179.5h.7v6.57h-.7v-.94a2.07,2.07,0,0,1-1.78,1A2.27,2.27,0,0,1,513.71,183.75Zm4,0v0a1.73,1.73,0,0,0-1.68-1.79,1.64,1.64,0,0,0-1.64,1.79v0a1.68,1.68,0,0,0,1.64,1.8A1.74,1.74,0,0,0,517.74,183.75Z" />
			<path class="cls-6" d="M520,179.63h.79v.77H520Zm0,1.78h.69v4.66H520Z" />
			<path class="cls-6" d="M522.32,181.41H523v.81a1.79,1.79,0,0,1,1.6-.91,1.7,1.7,0,0,1,1.78,1.87v2.89h-.69v-2.72a1.24,1.24,0,0,0-1.29-1.4,1.37,1.37,0,0,0-1.4,1.45v2.67h-.69Z" />
			<path class="cls-6" d="M527.81,186.88l.32-.54a2.94,2.94,0,0,0,1.79.59,1.53,1.53,0,0,0,1.69-1.65v-.55a2.21,2.21,0,0,1-1.83,1,2.16,2.16,0,0,1-2.19-2.18v0a2.16,2.16,0,0,1,2.19-2.2,2.19,2.19,0,0,1,1.82.94v-.84h.69v3.85a2.24,2.24,0,0,1-.59,1.65,2.46,2.46,0,0,1-1.77.62A3.66,3.66,0,0,1,527.81,186.88Zm3.82-3.36v0a1.63,1.63,0,0,0-1.71-1.57,1.54,1.54,0,0,0-1.61,1.56v0a1.57,1.57,0,0,0,1.61,1.59A1.64,1.64,0,0,0,531.63,183.52Z" />
			<path class="cls-6" d="M536.78,184.84V182h-.64v-.62h.64V180h.7v1.4H539V182h-1.47v2.72a.69.69,0,0,0,.78.77,1.6,1.6,0,0,0,.68-.16V186a1.74,1.74,0,0,1-.84.2A1.19,1.19,0,0,1,536.78,184.84Z" />
			<path class="cls-6" d="M540.18,179.5h.69v2.72a1.77,1.77,0,0,1,1.59-.91,1.71,1.71,0,0,1,1.79,1.87v2.89h-.7v-2.72a1.24,1.24,0,0,0-1.28-1.4,1.36,1.36,0,0,0-1.4,1.45v2.67h-.69Z" />
			<path class="cls-6" d="M545.43,183.75h0a2.31,2.31,0,0,1,2.23-2.43,2.22,2.22,0,0,1,2.17,2.46V184h-3.7a1.63,1.63,0,0,0,1.64,1.57,2,2,0,0,0,1.47-.65l.43.38a2.38,2.38,0,0,1-1.92.88A2.32,2.32,0,0,1,545.43,183.75Zm3.7-.27a1.53,1.53,0,0,0-1.48-1.58,1.61,1.61,0,0,0-1.52,1.58Z" />
			<path class="cls-6" d="M553.87,179.77h.72l2.29,3.44,2.3-3.44h.72v6.3h-.71V181l-2.3,3.38h0L554.56,181v5.1h-.69Z" />
			<path class="cls-6" d="M561.27,183.76h0a2.42,2.42,0,0,1,2.43-2.44,2.39,2.39,0,0,1,2.42,2.42v0a2.42,2.42,0,0,1-2.44,2.43A2.39,2.39,0,0,1,561.27,183.76Zm4.14,0h0a1.76,1.76,0,0,0-1.73-1.82,1.72,1.72,0,0,0-1.7,1.8v0a1.75,1.75,0,0,0,1.72,1.81A1.72,1.72,0,0,0,565.41,183.76Z" />
			<path class="cls-6" d="M566.65,181.41h.76l1.57,3.87,1.57-3.87h.75l-2,4.69h-.62Z" />
			<path class="cls-6" d="M571.83,183.75h0a2.31,2.31,0,0,1,2.23-2.43,2.22,2.22,0,0,1,2.17,2.46,1.69,1.69,0,0,1,0,.23h-3.69a1.62,1.62,0,0,0,1.64,1.57,2,2,0,0,0,1.47-.65l.43.38a2.38,2.38,0,0,1-1.92.88A2.31,2.31,0,0,1,571.83,183.75Zm3.7-.27A1.53,1.53,0,0,0,574,181.9a1.61,1.61,0,0,0-1.51,1.58Z" />
			<path class="cls-6" d="M577.45,181.41h.69v.79a1.71,1.71,0,0,1,1.5-.89,1.6,1.6,0,0,1,1.5.93,1.86,1.86,0,0,1,1.64-.93,1.67,1.67,0,0,1,1.72,1.88v2.88h-.69v-2.72c0-.9-.45-1.4-1.21-1.4a1.29,1.29,0,0,0-1.27,1.44v2.68h-.7v-2.74c0-.87-.46-1.38-1.19-1.38a1.35,1.35,0,0,0-1.3,1.46v2.66h-.69Z" />
			<path class="cls-6" d="M585.72,183.75h0a2.3,2.3,0,0,1,2.23-2.43,2.22,2.22,0,0,1,2.17,2.46,1.69,1.69,0,0,1,0,.23h-3.69a1.62,1.62,0,0,0,1.64,1.57,1.91,1.91,0,0,0,1.46-.65l.44.38a2.39,2.39,0,0,1-1.92.88A2.31,2.31,0,0,1,585.72,183.75Zm3.7-.27a1.54,1.54,0,0,0-1.49-1.58,1.61,1.61,0,0,0-1.51,1.58Z" />
			<path class="cls-6" d="M591.33,181.41h.7v.81a1.76,1.76,0,0,1,1.59-.91,1.7,1.7,0,0,1,1.78,1.87v2.89h-.69v-2.72a1.24,1.24,0,0,0-1.29-1.4A1.36,1.36,0,0,0,592,183.4v2.67h-.7Z" />
			<path class="cls-6" d="M597.12,184.84V182h-.65v-.62h.65V180h.69v1.4h1.48V182h-1.48v2.72a.69.69,0,0,0,.79.77,1.53,1.53,0,0,0,.67-.16V186a1.68,1.68,0,0,1-.84.2A1.18,1.18,0,0,1,597.12,184.84Z" />
			<path class="cls-6" d="M499.19,190.57h.71v6.3h-.71Z" />
			<path class="cls-6" d="M501.63,192.21h.69V193a1.77,1.77,0,0,1,1.6-.91A1.7,1.7,0,0,1,505.7,194v2.89H505v-2.72a1.24,1.24,0,0,0-1.29-1.4,1.37,1.37,0,0,0-1.4,1.45v2.67h-.69Z" />
			<path class="cls-6" d="M507.42,195.64v-2.81h-.65v-.62h.65v-1.4h.69v1.4h1.48v.62h-1.48v2.72a.69.69,0,0,0,.78.77,1.41,1.41,0,0,0,.68-.16v.59a1.68,1.68,0,0,1-.84.2A1.18,1.18,0,0,1,507.42,195.64Z" />
			<path class="cls-6" d="M510.39,194.56h0a2.43,2.43,0,0,1,4.85,0v0A2.42,2.42,0,0,1,512.8,197,2.39,2.39,0,0,1,510.39,194.56Zm4.14,0h0a1.76,1.76,0,0,0-1.73-1.82,1.72,1.72,0,0,0-1.7,1.8v0a1.75,1.75,0,0,0,1.72,1.81A1.72,1.72,0,0,0,514.53,194.56Z" />
			<path class="cls-6" d="M521,191.22h-2.11v-.65h4.95v.65h-2.12v5.65H521Z" />
			<path class="cls-6" d="M523.59,194.56h0a2.41,2.41,0,0,1,2.43-2.43,2.38,2.38,0,0,1,2.42,2.41v0A2.42,2.42,0,0,1,526,197,2.39,2.39,0,0,1,523.59,194.56Zm4.14,0h0a1.76,1.76,0,0,0-1.73-1.82,1.72,1.72,0,0,0-1.7,1.8v0a1.75,1.75,0,0,0,1.72,1.81A1.72,1.72,0,0,0,527.73,194.56Z" />
			<path class="cls-6" d="M529.69,192.21h.7V193a1.69,1.69,0,0,1,1.5-.88,1.57,1.57,0,0,1,1.49.92,1.87,1.87,0,0,1,1.64-.92,1.67,1.67,0,0,1,1.73,1.87v2.88h-.69v-2.72c0-.9-.45-1.4-1.21-1.4a1.3,1.3,0,0,0-1.28,1.44v2.68h-.69v-2.74c0-.87-.46-1.38-1.2-1.38a1.34,1.34,0,0,0-1.29,1.46v2.66h-.7Z" />
			<path class="cls-6" d="M538,194.56h0a2.43,2.43,0,0,1,4.86,0v0a2.42,2.42,0,0,1-2.45,2.43A2.39,2.39,0,0,1,538,194.56Zm4.14,0h0a1.76,1.76,0,0,0-1.73-1.82,1.72,1.72,0,0,0-1.7,1.8v0a1.75,1.75,0,0,0,1.72,1.81A1.72,1.72,0,0,0,542.1,194.56Z" />
			<path class="cls-6" d="M544.07,192.21h.69v1.22a2,2,0,0,1,1.9-1.3v.75h-.06a1.88,1.88,0,0,0-1.84,2.13v1.86h-.69Z" />
			<path class="cls-6" d="M547.71,192.21h.69v1.22a2,2,0,0,1,1.9-1.3v.75h0A1.88,1.88,0,0,0,548.4,195v1.86h-.69Z" />
			<path class="cls-6" d="M550.87,194.56h0a2.41,2.41,0,0,1,2.43-2.43,2.38,2.38,0,0,1,2.42,2.41v0a2.42,2.42,0,0,1-2.44,2.43A2.39,2.39,0,0,1,550.87,194.56Zm4.14,0h0a1.76,1.76,0,0,0-1.73-1.82,1.72,1.72,0,0,0-1.7,1.8v0a1.75,1.75,0,0,0,1.72,1.81A1.72,1.72,0,0,0,555,194.56Z" />
			<path class="cls-6" d="M556.35,192.21h.74l1.22,3.74,1.25-3.75h.58L561.4,196l1.22-3.74h.72l-1.63,4.7h-.61l-1.25-3.68-1.26,3.68H558Z" />
		</g></a>
		<a xlink:href="https://nwcua.org/enterprise-risk-management-its-more-than-just-compliance-taking-risk-to-create-member-value/" title="Enterprise Risk Management: It’s More than Just Compliance! Taking Risk to Create Member Value" target="_top"><g id="enterprise">
			<polygon class="cls-8" points="440.14 125.68 349.94 125.68 360.24 88.7 450.49 88.7 440.14 125.68" />
			<line class="cls-9" x1="399.05" y1="89.11" x2="399.05" y2="6.67" />
			<circle class="cls-10" cx="399.05" cy="4.47" r="4.47" />
			<path class="cls-10" d="M409.41,25.62h5.27V27h-3.74v1.42h3.3v1.37h-3.3v1.47h3.8v1.37h-5.33Z" />
			<path class="cls-10" d="M416.11,25.62h1.42l3.28,4.31V25.62h1.51v7H421l-3.39-4.45v4.45h-1.52Z" />
			<path class="cls-10" d="M425.64,27h-2.13V25.62h5.8V27h-2.13v5.58h-1.54Z" />
			<path class="cls-10" d="M430.49,25.62h5.27V27H432v1.42h3.3v1.37H432v1.47h3.8v1.37h-5.33Z" />
			<path class="cls-10" d="M437.19,25.62h3.2a2.79,2.79,0,0,1,2,.71,2.2,2.2,0,0,1,.6,1.6v0a2.19,2.19,0,0,1-1.5,2.17l1.7,2.5h-1.79l-1.5-2.24h-1.21v2.24h-1.54Zm3.1,3.4c.75,0,1.18-.4,1.18-1v0c0-.66-.46-1-1.21-1h-1.53v2Z" />
			<path class="cls-10" d="M444.42,25.62h2.86A2.39,2.39,0,0,1,450,28v0c0,1.62-1.25,2.46-2.82,2.46H446v2.1h-1.54Zm2.76,3.53a1.08,1.08,0,0,0,1.22-1.06v0c0-.69-.48-1.06-1.25-1.06H446v2.14Z" />
			<path class="cls-10" d="M451.1,25.62h3.2a2.76,2.76,0,0,1,2,.71,2.2,2.2,0,0,1,.6,1.6v0a2.17,2.17,0,0,1-1.5,2.17l1.71,2.5h-1.8l-1.49-2.24h-1.21v2.24H451.1Zm3.1,3.4c.75,0,1.17-.4,1.17-1v0c0-.66-.46-1-1.2-1h-1.53v2Z" />
			<path class="cls-10" d="M458.4,25.62h1.54v7H458.4Z" />
			<path class="cls-10" d="M461.21,31.6l.91-1.09a3.21,3.21,0,0,0,2.09.85c.63,0,1-.25,1-.66v0c0-.39-.23-.59-1.4-.89-1.41-.36-2.32-.75-2.32-2.14v0a2.19,2.19,0,0,1,2.45-2.11,4,4,0,0,1,2.59.89l-.79,1.16a3.28,3.28,0,0,0-1.82-.69c-.59,0-.9.27-.9.61v0c0,.46.3.61,1.51.92,1.42.37,2.21.88,2.21,2.1v0c0,1.39-1.06,2.17-2.56,2.17A4.45,4.45,0,0,1,461.21,31.6Z" />
			<path class="cls-10" d="M468.09,25.62h5.27V27h-3.74v1.42h3.29v1.37h-3.29v1.47h3.79v1.37h-5.32Z" />
			<path class="cls-10" d="M477.79,25.62H481a2.79,2.79,0,0,1,2,.71,2.23,2.23,0,0,1,.59,1.6v0a2.17,2.17,0,0,1-1.5,2.17l1.71,2.5H482l-1.5-2.24h-1.21v2.24h-1.54Zm3.1,3.4c.75,0,1.18-.4,1.18-1v0c0-.66-.46-1-1.21-1h-1.53v2Z" />
			<path class="cls-10" d="M485.09,25.62h1.54v7h-1.54Z" />
			<path class="cls-10" d="M487.9,31.6l.91-1.09a3.21,3.21,0,0,0,2.09.85c.63,0,1-.25,1-.66v0c0-.39-.24-.59-1.41-.89-1.41-.36-2.32-.75-2.32-2.14v0a2.19,2.19,0,0,1,2.45-2.11,4,4,0,0,1,2.59.89l-.79,1.16a3.28,3.28,0,0,0-1.82-.69c-.59,0-.9.27-.9.61v0c0,.46.3.61,1.51.92,1.42.37,2.21.88,2.21,2.1v0c0,1.39-1.06,2.17-2.56,2.17A4.45,4.45,0,0,1,487.9,31.6Z" />
			<path class="cls-10" d="M494.78,25.62h1.54v3.06l2.84-3.06H501l-2.84,3,3,4H499.3l-2.17-3-.81.84v2.14h-1.54Z" />
			<path class="cls-10" d="M409.41,37.62h1.66l1.84,3,1.84-3h1.65v7h-1.53V40.05l-2,3h0l-1.95-3v4.54h-1.51Z" />
			<path class="cls-10" d="M420.49,37.57h1.42l3,7h-1.61l-.63-1.57h-3l-.64,1.57h-1.57Zm1.62,4.12-.93-2.27-.93,2.27Z" />
			<path class="cls-10" d="M426,37.62h1.42l3.28,4.31V37.62h1.51v7h-1.3l-3.39-4.45v4.45H426Z" />
			<path class="cls-10" d="M436.29,37.57h1.42l3,7h-1.6l-.64-1.57h-3l-.64,1.57h-1.57Zm1.62,4.12L437,39.42l-.93,2.27Z" />
			<path class="cls-10" d="M441,41.14v0a3.59,3.59,0,0,1,3.67-3.62,3.84,3.84,0,0,1,2.75,1l-1,1.17a2.58,2.58,0,0,0-1.83-.71,2.1,2.1,0,0,0-2,2.18v0a2.1,2.1,0,0,0,2.12,2.22,2.46,2.46,0,0,0,1.45-.42v-1h-1.55V40.59h3v3a4.54,4.54,0,0,1-3,1.11A3.5,3.5,0,0,1,441,41.14Z" />
			<path class="cls-10" d="M449.18,37.62h5.27V39h-3.74v1.42H454v1.37h-3.3v1.47h3.8v1.37h-5.33Z" />
			<path class="cls-10" d="M455.88,37.62h1.66l1.84,3,1.84-3h1.65v7h-1.52V40.05l-2,3h0l-1.95-3v4.54h-1.51Z" />
			<path class="cls-10" d="M464.56,37.62h5.27V39h-3.74v1.42h3.3v1.37h-3.3v1.47h3.8v1.37h-5.33Z" />
			<path class="cls-10" d="M471.26,37.62h1.42L476,41.93V37.62h1.51v7h-1.3l-3.39-4.45v4.45h-1.52Z" />
			<path class="cls-10" d="M480.79,39h-2.13V37.62h5.8V39h-2.13v5.58h-1.54Z" />
			<path class="cls-10" d="M485.37,39.26H487v1.6h-1.62Zm0,3.76H487v1.6h-1.62Z" />
			<path class="cls-10" d="M409.52,49.12h.71v6.3h-.71Z" />
			<path class="cls-10" d="M412.2,54.19V51.38h-.64v-.62h.64v-1.4h.7v1.4h1.47v.62H412.9V54.1a.69.69,0,0,0,.78.77,1.47,1.47,0,0,0,.68-.16v.59a1.74,1.74,0,0,1-.84.2A1.19,1.19,0,0,1,412.2,54.19Z" />
			<path class="cls-10" d="M415.31,50.85c.45-.17.64-.4.6-.79h-.32v-.94h.83v.81a1.1,1.1,0,0,1-1,1.23Z" />
			<path class="cls-10" d="M417.21,54.83l.35-.5a2.69,2.69,0,0,0,1.61.59c.56,0,1-.28,1-.73v0c0-.47-.55-.65-1.16-.82s-1.54-.46-1.54-1.32h0A1.41,1.41,0,0,1,419,50.68a3.16,3.16,0,0,1,1.67.52l-.31.52a2.63,2.63,0,0,0-1.38-.45c-.55,0-.9.29-.9.67v0c0,.44.58.61,1.2.8s1.49.5,1.49,1.34h0c0,.89-.73,1.4-1.66,1.4A3.21,3.21,0,0,1,417.21,54.83Z" />
			<path class="cls-10" d="M424.89,49.12h.72l2.3,3.44,2.3-3.44h.72v6.3h-.72V50.31l-2.29,3.38h0l-2.29-3.37v5.1h-.7Z" />
			<path class="cls-10" d="M432.3,53.11h0a2.41,2.41,0,0,1,2.43-2.43,2.38,2.38,0,0,1,2.42,2.41v0a2.42,2.42,0,0,1-2.44,2.43A2.39,2.39,0,0,1,432.3,53.11Zm4.14,0h0a1.76,1.76,0,0,0-1.73-1.82,1.72,1.72,0,0,0-1.7,1.8v0a1.75,1.75,0,0,0,1.72,1.81A1.72,1.72,0,0,0,436.44,53.11Z" />
			<path class="cls-10" d="M438.4,50.76h.7V52a2,2,0,0,1,1.9-1.3v.75h-.06a1.87,1.87,0,0,0-1.84,2.13v1.86h-.7Z" />
			<path class="cls-10" d="M441.56,53.11v0a2.3,2.3,0,0,1,2.23-2.42A2.21,2.21,0,0,1,446,53.12a1.69,1.69,0,0,1,0,.23h-3.69a1.62,1.62,0,0,0,1.64,1.57,2,2,0,0,0,1.47-.65l.43.38a2.38,2.38,0,0,1-1.92.88A2.32,2.32,0,0,1,441.56,53.11Zm3.7-.27a1.53,1.53,0,0,0-1.48-1.59,1.62,1.62,0,0,0-1.52,1.59Z" />
			<path class="cls-10" d="M450.12,54.19V51.38h-.65v-.62h.65v-1.4h.69v1.4h1.48v.62h-1.48V54.1a.69.69,0,0,0,.79.77,1.4,1.4,0,0,0,.67-.16v.59a1.67,1.67,0,0,1-.83.2A1.19,1.19,0,0,1,450.12,54.19Z" />
			<path class="cls-10" d="M453.51,48.85h.7v2.73a1.74,1.74,0,0,1,1.59-.91,1.69,1.69,0,0,1,1.78,1.86v2.89h-.69V52.7a1.24,1.24,0,0,0-1.29-1.4,1.36,1.36,0,0,0-1.39,1.45v2.67h-.7Z" />
			<path class="cls-10" d="M458.71,54.07v0c0-1,.81-1.5,2-1.5a4.88,4.88,0,0,1,1.43.2v-.17c0-.83-.52-1.27-1.39-1.27a3.19,3.19,0,0,0-1.41.35l-.21-.57a3.76,3.76,0,0,1,1.69-.39,2.07,2.07,0,0,1,1.51.51,1.87,1.87,0,0,1,.47,1.36v2.85h-.66v-.7a2.07,2.07,0,0,1-1.69.8A1.57,1.57,0,0,1,458.71,54.07Zm3.43-.36v-.45a4.91,4.91,0,0,0-1.37-.2c-.88,0-1.36.38-1.36,1v0c0,.59.54.93,1.17.93A1.41,1.41,0,0,0,462.14,53.71Z" />
			<path class="cls-10" d="M464.27,50.76H465v.82a1.75,1.75,0,0,1,1.59-.91,1.7,1.7,0,0,1,1.79,1.86v2.89h-.7V52.7a1.23,1.23,0,0,0-1.28-1.4,1.37,1.37,0,0,0-1.4,1.45v2.67h-.69Z" />
			<path class="cls-10" d="M472,54.39l.51-.44a1.61,1.61,0,0,0,1.44.9c.71,0,1.23-.51,1.23-1.51V49.12h.72v4.21a2.28,2.28,0,0,1-.57,1.66,1.94,1.94,0,0,1-1.39.52A2.15,2.15,0,0,1,472,54.39Z" />
			<path class="cls-10" d="M477.42,53.65V50.76h.69v2.72a1.24,1.24,0,0,0,1.29,1.41,1.37,1.37,0,0,0,1.39-1.46V50.76h.69v4.66h-.69v-.81a1.77,1.77,0,0,1-1.59.91A1.7,1.7,0,0,1,477.42,53.65Z" />
			<path class="cls-10" d="M482.65,54.83l.35-.5a2.69,2.69,0,0,0,1.61.59c.56,0,1-.28,1-.73v0c0-.47-.55-.65-1.16-.82s-1.54-.46-1.54-1.32h0a1.41,1.41,0,0,1,1.58-1.34,3.16,3.16,0,0,1,1.68.52l-.32.52a2.59,2.59,0,0,0-1.37-.45c-.55,0-.9.29-.9.67v0c0,.44.57.61,1.19.8s1.5.5,1.5,1.34h0c0,.89-.73,1.4-1.66,1.4A3.21,3.21,0,0,1,482.65,54.83Z" />
			<path class="cls-10" d="M487.67,54.19V51.38H487v-.62h.65v-1.4h.69v1.4h1.48v.62h-1.48V54.1a.69.69,0,0,0,.78.77,1.41,1.41,0,0,0,.68-.16v.59a1.68,1.68,0,0,1-.84.2A1.18,1.18,0,0,1,487.67,54.19Z" />
			<path class="cls-10" d="M409.18,63.09v0a3.18,3.18,0,0,1,3.19-3.26,3.27,3.27,0,0,1,2.46,1l-.49.52a2.76,2.76,0,0,0-2-.86,2.46,2.46,0,0,0-2.44,2.58v0a2.48,2.48,0,0,0,2.44,2.6,2.71,2.71,0,0,0,2-.91l.47.46a3.28,3.28,0,0,1-2.52,1.11A3.14,3.14,0,0,1,409.18,63.09Z" />
			<path class="cls-10" d="M415.61,63.92v0a2.43,2.43,0,0,1,4.85,0v0A2.42,2.42,0,0,1,418,66.33,2.38,2.38,0,0,1,415.61,63.92Zm4.14,0v0A1.76,1.76,0,0,0,418,62.08a1.72,1.72,0,0,0-1.7,1.8v0A1.75,1.75,0,0,0,418,65.71,1.72,1.72,0,0,0,419.75,63.92Z" />
			<path class="cls-10" d="M421.71,61.57h.69v.78a1.7,1.7,0,0,1,1.5-.88,1.58,1.58,0,0,1,1.5.92,1.85,1.85,0,0,1,1.64-.92,1.67,1.67,0,0,1,1.73,1.87v2.88h-.7V63.5c0-.9-.45-1.4-1.2-1.4a1.29,1.29,0,0,0-1.28,1.44v2.68h-.7V63.48c0-.87-.45-1.38-1.19-1.38a1.35,1.35,0,0,0-1.3,1.46v2.66h-.69Z" />
			<path class="cls-10" d="M430.27,61.57H431v.93a2.09,2.09,0,0,1,1.78-1A2.27,2.27,0,0,1,435,63.88v0a2.28,2.28,0,0,1-2.23,2.42,2.11,2.11,0,0,1-1.78-1v2.33h-.69Zm4,2.34v0a1.67,1.67,0,0,0-1.63-1.8,1.74,1.74,0,0,0-1.69,1.79v0a1.73,1.73,0,0,0,1.69,1.8A1.64,1.64,0,0,0,434.25,63.91Z" />
			<path class="cls-10" d="M436.3,59.65h.7v6.57h-.7Z" />
			<path class="cls-10" d="M438.63,59.78h.79v.77h-.79Zm0,1.79h.7v4.65h-.7Z" />
			<path class="cls-10" d="M440.62,64.87v0c0-1,.82-1.5,2-1.5a4.88,4.88,0,0,1,1.43.2v-.17c0-.83-.52-1.27-1.39-1.27a3.19,3.19,0,0,0-1.41.35l-.21-.57a3.9,3.9,0,0,1,1.69-.39,2,2,0,0,1,1.51.52,1.84,1.84,0,0,1,.47,1.36v2.84h-.66v-.7a2.07,2.07,0,0,1-1.69.8A1.58,1.58,0,0,1,440.62,64.87Zm3.44-.36v-.45a4.91,4.91,0,0,0-1.37-.2c-.88,0-1.36.38-1.36,1v0c0,.59.54.93,1.17.93A1.41,1.41,0,0,0,444.06,64.51Z" />
			<path class="cls-10" d="M446.19,61.57h.69v.81a1.75,1.75,0,0,1,1.59-.91,1.7,1.7,0,0,1,1.79,1.86v2.89h-.7V63.5a1.24,1.24,0,0,0-1.28-1.4,1.36,1.36,0,0,0-1.4,1.45v2.67h-.69Z" />
			<path class="cls-10" d="M451.44,63.92v0a2.43,2.43,0,0,1,4.25-1.61l-.46.49a1.86,1.86,0,0,0-1.41-.7,1.72,1.72,0,0,0-1.67,1.8v0a1.74,1.74,0,0,0,1.72,1.81,1.92,1.92,0,0,0,1.42-.7l.44.42a2.41,2.41,0,0,1-4.29-1.51Z" />
			<path class="cls-10" d="M456.45,63.91v0a2.29,2.29,0,0,1,2.23-2.42,2.21,2.21,0,0,1,2.17,2.45,1.69,1.69,0,0,1,0,.23h-3.69a1.62,1.62,0,0,0,1.64,1.57,1.91,1.91,0,0,0,1.46-.65l.44.38a2.39,2.39,0,0,1-1.92.88A2.31,2.31,0,0,1,456.45,63.91Zm3.7-.27a1.54,1.54,0,0,0-1.49-1.59,1.61,1.61,0,0,0-1.51,1.59Z" />
			<path class="cls-10" d="M462.1,65.27h.83v1h-.83Zm0-4.85v-.5h.81v.5l-.22,4h-.38Z" />
			<path class="cls-10" d="M469,60.58h-2.12v-.66h4.95v.66h-2.11v5.64H469Z" />
			<path class="cls-10" d="M471.54,64.87v0c0-1,.81-1.5,2-1.5a4.83,4.83,0,0,1,1.43.2v-.17c0-.83-.51-1.27-1.38-1.27a3.24,3.24,0,0,0-1.42.35l-.21-.57a3.94,3.94,0,0,1,1.7-.39,2,2,0,0,1,1.5.52,1.8,1.8,0,0,1,.48,1.36v2.84H475v-.7a2,2,0,0,1-1.68.8A1.57,1.57,0,0,1,471.54,64.87Zm3.43-.36v-.45a4.8,4.8,0,0,0-1.37-.2c-.87,0-1.36.38-1.36,1v0c0,.59.54.93,1.17.93A1.41,1.41,0,0,0,475,64.51Z" />
			<path class="cls-10" d="M477.1,59.65h.7v4.54l2.51-2.62h.86l-1.95,2,2,2.66h-.82l-1.67-2.17-.94,1v1.22h-.7Z" />
			<path class="cls-10" d="M482.24,59.78H483v.77h-.79Zm.05,1.79H483v4.65h-.69Z" />
			<path class="cls-10" d="M484.59,61.57h.69v.81a1.77,1.77,0,0,1,1.6-.91,1.7,1.7,0,0,1,1.78,1.86v2.89H488V63.5a1.24,1.24,0,0,0-1.29-1.4,1.37,1.37,0,0,0-1.4,1.45v2.67h-.69Z" />
			<path class="cls-10" d="M490.08,67l.32-.54a2.94,2.94,0,0,0,1.79.59,1.53,1.53,0,0,0,1.69-1.65v-.55a2.21,2.21,0,0,1-1.83,1,2.16,2.16,0,0,1-2.19-2.18v0a2.16,2.16,0,0,1,2.19-2.19,2.18,2.18,0,0,1,1.82.93v-.83h.69v3.84a2.24,2.24,0,0,1-.59,1.65,2.46,2.46,0,0,1-1.77.62A3.66,3.66,0,0,1,490.08,67Zm3.82-3.36v0a1.63,1.63,0,0,0-1.71-1.57,1.53,1.53,0,0,0-1.61,1.56v0a1.57,1.57,0,0,0,1.61,1.59A1.64,1.64,0,0,0,493.9,63.67Z" />
			<path class="cls-10" d="M498.93,59.92h2.71a2.48,2.48,0,0,1,1.79.63,1.74,1.74,0,0,1,.48,1.24v0a1.84,1.84,0,0,1-1.71,1.83l1.94,2.58h-.87l-1.83-2.45h-1.8v2.45h-.71Zm2.64,3.21c.95,0,1.62-.48,1.62-1.29v0c0-.78-.59-1.24-1.61-1.24h-1.94v2.55Z" />
			<path class="cls-10" d="M505.33,59.78h.8v.77h-.8Zm.05,1.79h.69v4.65h-.69Z" />
			<path class="cls-10" d="M507.3,65.63l.35-.5a2.69,2.69,0,0,0,1.61.59c.56,0,1-.28,1-.73v0c0-.47-.55-.65-1.16-.82s-1.54-.46-1.54-1.31v0a1.42,1.42,0,0,1,1.59-1.34,3.16,3.16,0,0,1,1.67.52l-.31.52a2.65,2.65,0,0,0-1.38-.45c-.55,0-.9.29-.9.68h0c0,.44.57.62,1.2.8s1.49.5,1.49,1.34h0c0,.89-.73,1.4-1.66,1.4A3.21,3.21,0,0,1,507.3,65.63Z" />
			<path class="cls-10" d="M512.17,59.65h.69v4.54l2.51-2.62h.87l-2,2,2,2.66h-.83l-1.67-2.17-.94,1v1.22h-.69Z" />
			<path class="cls-10" d="M409.59,75.79V73h-.65v-.61h.65V71h.69v1.41h1.47V73h-1.47V75.7a.69.69,0,0,0,.78.77,1.44,1.44,0,0,0,.68-.16v.59a1.74,1.74,0,0,1-.84.2A1.18,1.18,0,0,1,409.59,75.79Z" />
			<path class="cls-10" d="M412.56,74.71h0a2.43,2.43,0,0,1,4.85,0v0A2.42,2.42,0,0,1,415,77.13,2.38,2.38,0,0,1,412.56,74.71Zm4.14,0h0A1.76,1.76,0,0,0,415,72.88a1.72,1.72,0,0,0-1.7,1.8v0a1.72,1.72,0,1,0,3.43,0Z" />
			<path class="cls-10" d="M421.2,73.89v0a3.17,3.17,0,0,1,3.18-3.26,3.25,3.25,0,0,1,2.46,1l-.49.52a2.74,2.74,0,0,0-2-.86,2.47,2.47,0,0,0-2.44,2.58v0a2.49,2.49,0,0,0,2.44,2.6,2.74,2.74,0,0,0,2-.91l.47.46a3.28,3.28,0,0,1-2.52,1.11A3.14,3.14,0,0,1,421.2,73.89Z" />
			<path class="cls-10" d="M428,72.37h.69v1.21a2,2,0,0,1,1.9-1.3V73h0a1.88,1.88,0,0,0-1.85,2.14V77H428Z" />
			<path class="cls-10" d="M431.16,74.71v0a2.29,2.29,0,0,1,2.23-2.42,2.21,2.21,0,0,1,2.17,2.45,1.69,1.69,0,0,1,0,.23h-3.69a1.62,1.62,0,0,0,1.64,1.57,1.91,1.91,0,0,0,1.46-.65l.44.38a2.39,2.39,0,0,1-1.92.88A2.31,2.31,0,0,1,431.16,74.71Zm3.7-.27a1.54,1.54,0,0,0-1.49-1.59,1.61,1.61,0,0,0-1.51,1.59Z" />
			<path class="cls-10" d="M436.42,75.67v0c0-1,.81-1.5,2-1.5a4.78,4.78,0,0,1,1.43.2v-.17c0-.83-.51-1.27-1.38-1.27a3.27,3.27,0,0,0-1.42.35l-.2-.57a3.86,3.86,0,0,1,1.69-.39,2,2,0,0,1,1.5.52,1.79,1.79,0,0,1,.48,1.35V77h-.67v-.7a2,2,0,0,1-1.68.8A1.57,1.57,0,0,1,436.42,75.67Zm3.43-.36v-.45a4.8,4.8,0,0,0-1.37-.2c-.87,0-1.36.38-1.36,1v0c0,.59.54.93,1.17.93A1.41,1.41,0,0,0,439.85,75.31Z" />
			<path class="cls-10" d="M442.18,75.79V73h-.65v-.61h.65V71h.7v1.41h1.47V73h-1.47V75.7a.69.69,0,0,0,.78.77,1.4,1.4,0,0,0,.67-.16v.59a1.67,1.67,0,0,1-.83.2A1.19,1.19,0,0,1,442.18,75.79Z" />
			<path class="cls-10" d="M445.15,74.71v0a2.3,2.3,0,0,1,2.23-2.42,2.21,2.21,0,0,1,2.17,2.45V75h-3.7a1.62,1.62,0,0,0,1.64,1.57,2,2,0,0,0,1.47-.65l.43.38a2.38,2.38,0,0,1-1.92.88A2.32,2.32,0,0,1,445.15,74.71Zm3.7-.27a1.53,1.53,0,0,0-1.48-1.59,1.62,1.62,0,0,0-1.52,1.59Z" />
			<path class="cls-10" d="M453.59,70.72h.72l2.29,3.44,2.3-3.44h.72V77h-.71v-5.1l-2.3,3.37h0l-2.29-3.37V77h-.69Z" />
			<path class="cls-10" d="M461,74.71v0a2.3,2.3,0,0,1,2.23-2.42,2.21,2.21,0,0,1,2.17,2.45V75h-3.7a1.62,1.62,0,0,0,1.64,1.57,2,2,0,0,0,1.47-.65l.43.38a2.38,2.38,0,0,1-1.92.88A2.32,2.32,0,0,1,461,74.71Zm3.7-.27a1.53,1.53,0,0,0-1.48-1.59,1.62,1.62,0,0,0-1.52,1.59Z" />
			<path class="cls-10" d="M466.61,72.37h.69v.78a1.7,1.7,0,0,1,1.5-.88,1.58,1.58,0,0,1,1.5.92,1.85,1.85,0,0,1,1.64-.92,1.67,1.67,0,0,1,1.73,1.87V77H473V74.3c0-.9-.45-1.4-1.2-1.4a1.29,1.29,0,0,0-1.28,1.44V77h-.7V74.28c0-.87-.45-1.38-1.19-1.38a1.35,1.35,0,0,0-1.3,1.46V77h-.69Z" />
			<path class="cls-10" d="M475.86,76.13V77h-.69V70.45h.69V73.3a2.09,2.09,0,0,1,1.78-1,2.27,2.27,0,0,1,2.23,2.41v0a2.28,2.28,0,0,1-2.23,2.42A2.11,2.11,0,0,1,475.86,76.13Zm3.3-1.42v0a1.68,1.68,0,0,0-1.64-1.8,1.74,1.74,0,0,0-1.69,1.79v0a1.73,1.73,0,0,0,1.69,1.8A1.65,1.65,0,0,0,479.16,74.71Z" />
			<path class="cls-10" d="M480.85,74.71v0a2.3,2.3,0,0,1,2.24-2.42,2.21,2.21,0,0,1,2.17,2.45,1.69,1.69,0,0,1,0,.23h-3.69a1.62,1.62,0,0,0,1.64,1.57,1.94,1.94,0,0,0,1.46-.65l.43.38a2.36,2.36,0,0,1-1.91.88A2.32,2.32,0,0,1,480.85,74.71Zm3.7-.27a1.53,1.53,0,0,0-1.48-1.59,1.61,1.61,0,0,0-1.51,1.59Z" />
			<path class="cls-10" d="M486.47,72.37h.69v1.21a2,2,0,0,1,1.9-1.3V73H489a1.88,1.88,0,0,0-1.85,2.14V77h-.69Z" />
			<path class="cls-10" d="M492.39,70.72h.79l2.25,5.43,2.25-5.43h.76l-2.71,6.34h-.63Z" />
			<path class="cls-10" d="M498.58,75.67v0c0-1,.81-1.5,2-1.5a4.78,4.78,0,0,1,1.43.2v-.17c0-.83-.51-1.27-1.38-1.27a3.27,3.27,0,0,0-1.42.35l-.2-.57a3.9,3.9,0,0,1,1.69-.39,2,2,0,0,1,1.5.52,1.79,1.79,0,0,1,.48,1.35V77H502v-.7a2,2,0,0,1-1.68.8A1.58,1.58,0,0,1,498.58,75.67Zm3.43-.36v-.45a4.78,4.78,0,0,0-1.36-.2c-.88,0-1.36.38-1.36,1v0c0,.59.54.93,1.17.93A1.4,1.4,0,0,0,502,75.31Z" />
			<path class="cls-10" d="M504.21,70.45h.69V77h-.69Z" />
			<path class="cls-10" d="M506.44,75.25V72.37h.69v2.71a1.24,1.24,0,0,0,1.29,1.41,1.38,1.38,0,0,0,1.4-1.46V72.37h.68V77h-.68v-.81a1.79,1.79,0,0,1-1.6.91A1.7,1.7,0,0,1,506.44,75.25Z" />
			<path class="cls-10" d="M511.77,74.71v0A2.29,2.29,0,0,1,514,72.27a2.21,2.21,0,0,1,2.17,2.45,1.69,1.69,0,0,1,0,.23h-3.69a1.62,1.62,0,0,0,1.64,1.57,2,2,0,0,0,1.47-.65l.43.38a2.39,2.39,0,0,1-1.92.88A2.31,2.31,0,0,1,511.77,74.71Zm3.7-.27A1.54,1.54,0,0,0,514,72.85a1.61,1.61,0,0,0-1.51,1.59Z" />
			<path class="cls-11" d="M399.26,93.54H399c-1,1.15-4.58,4.53-11.12,3.95,1.29,18.08,11.35,21.88,11.35,21.88h0s9.91-3.8,11.2-21.88c-6.54.58-10.11-2.8-11.12-3.95Z" />
			<path class="cls-2" d="M399.19,119.78l-.14,0c-.42-.16-10.3-4.1-11.6-22.21l0-.45.45,0c6.4.56,9.88-2.78,10.8-3.82l.11-.13h.65l.12.13c.91,1,4.41,4.39,10.8,3.82l.44,0,0,.45c-1.29,18.11-11,22-11.44,22.21l-.13,0ZM388.25,97.9C389.55,114,398,118.42,399.18,119c1.17-.55,9.49-5,10.79-21.06a13.35,13.35,0,0,1-10.86-4,13.35,13.35,0,0,1-10.86,4Z" />
			<path class="cls-2" d="M393.45,105.56a5.76,5.76,0,1,1,5.76,5.76,5.75,5.75,0,0,1-5.76-5.76Z" />
			<path class="cls-2" d="M399.21,111.7a6.14,6.14,0,1,1,6.14-6.14,6.14,6.14,0,0,1-6.14,6.14Zm0-11.51a5.38,5.38,0,1,0,5.37,5.37,5.39,5.39,0,0,0-5.37-5.37Z" />
			<path class="cls-2" d="M399.19,111.53a5.94,5.94,0,1,1,5.93-5.93,5.95,5.95,0,0,1-5.93,5.93Z" />
			<path class="cls-2" d="M399.19,111.92a6.32,6.32,0,1,1,6.32-6.32,6.33,6.33,0,0,1-6.32,6.32Zm0-11.87a5.55,5.55,0,1,0,5.55,5.55,5.57,5.57,0,0,0-5.55-5.55Z" />
			<path class="cls-10" d="M398.64,108.09a.79.79,0,0,1-.56-.23l-1.56-1.5a.81.81,0,1,1,1.13-1.17l.92.89,2-2.51a.8.8,0,0,1,1.13-.13.81.81,0,0,1,.13,1.14l-2.58,3.21a.78.78,0,0,1-.58.3Z" />
		</g></a>
		<a xlink:href="https://nwcua.org/community-impact-financial-health-leveraging-resource-for-financial-resilience/" title="https://nwcua.org/community-impact-financial-health-leveraging-resource-for-financial-resilience/" target="_top"><g id="community">
			<line class="cls-12" x1="310.13" y1="122.37" x2="310.13" y2="204.81" />
			<circle class="cls-13" cx="310.13" cy="207.02" r="4.47" />
			<polygon class="cls-14" points="350.57 125.68 260.36 125.68 270.66 88.7 360.91 88.7 350.57 125.68" />
			<path class="cls-13" d="M320.7,159.79v0a3.56,3.56,0,0,1,3.65-3.62,3.63,3.63,0,0,1,2.76,1.08l-1,1.13a2.58,2.58,0,0,0-1.79-.79,2.07,2.07,0,0,0-2,2.18v0a2.08,2.08,0,0,0,2,2.2,2.53,2.53,0,0,0,1.84-.82l1,1a3.58,3.58,0,0,1-2.87,1.25A3.53,3.53,0,0,1,320.7,159.79Z" />
			<path class="cls-13" d="M327.88,159.79v0a3.72,3.72,0,0,1,7.43,0v0a3.72,3.72,0,0,1-7.43,0Zm5.82,0v0a2.12,2.12,0,0,0-2.11-2.2,2.09,2.09,0,0,0-2.1,2.18v0a2.13,2.13,0,0,0,2.12,2.2A2.09,2.09,0,0,0,333.7,159.79Z" />
			<path class="cls-13" d="M336.69,156.27h1.66l1.84,3,1.84-3h1.65v7h-1.52V158.7l-2,3h0l-1.95-3v4.54h-1.51Z" />
			<path class="cls-13" d="M345.37,156.27H347l1.84,3,1.83-3h1.66v7h-1.53V158.7l-2,3h0l-1.95-3v4.54h-1.51Z" />
			<path class="cls-13" d="M353.94,160.27v-4h1.54v4c0,1.14.57,1.73,1.51,1.73s1.51-.57,1.51-1.68v-4H360v3.95a2.81,2.81,0,0,1-3.06,3.16A2.78,2.78,0,0,1,353.94,160.27Z" />
			<path class="cls-13" d="M361.61,156.27H363l3.27,4.31v-4.31h1.52v7h-1.31l-3.38-4.45v4.45h-1.52Z" />
			<path class="cls-13" d="M369.58,156.27h1.54v7h-1.54Z" />
			<path class="cls-13" d="M374.5,157.69h-2.13v-1.42h5.79v1.42H376v5.58H374.5Z" />
			<path class="cls-13" d="M381.32,160.51l-2.69-4.24h1.8l1.67,2.81,1.69-2.81h1.75l-2.68,4.21v2.79h-1.54Z" />
			<path class="cls-13" d="M389.58,156.27h1.54v7h-1.54Z" />
			<path class="cls-13" d="M392.87,156.27h1.66l1.84,3,1.83-3h1.66v7h-1.53V158.7l-2,3h0l-1.95-3v4.54h-1.51Z" />
			<path class="cls-13" d="M401.55,156.27h2.86a2.39,2.39,0,0,1,2.67,2.42v0c0,1.62-1.25,2.46-2.82,2.46h-1.17v2.1h-1.54Zm2.76,3.53a1.08,1.08,0,0,0,1.22-1.06v0c0-.69-.48-1.06-1.25-1.06h-1.19v2.14Z" />
			<path class="cls-13" d="M409.93,156.22h1.42l3,7.05h-1.6l-.64-1.57h-3l-.64,1.57h-1.57Zm1.62,4.12-.93-2.27-.93,2.27Z" />
			<path class="cls-13" d="M414.67,159.79v0a3.56,3.56,0,0,1,3.65-3.62,3.63,3.63,0,0,1,2.76,1.08l-1,1.13a2.58,2.58,0,0,0-1.79-.79,2.07,2.07,0,0,0-2,2.18v0a2.08,2.08,0,0,0,2,2.2,2.53,2.53,0,0,0,1.84-.82l1,1a3.68,3.68,0,0,1-6.45-2.35Z" />
			<path class="cls-13" d="M424,157.69h-2.13v-1.42h5.8v1.42h-2.13v5.58H424Z" />
			<path class="cls-13" d="M324.91,174.59a3.15,3.15,0,0,1-2.05.78,2.1,2.1,0,0,1-2.35-2v0a2,2,0,0,1,1.36-1.92,2.34,2.34,0,0,1-.49-1.4v0a1.92,1.92,0,0,1,2.12-1.84,1.81,1.81,0,0,1,2,1.76v0a1.94,1.94,0,0,1-1.47,1.83l.93.93c.23-.36.46-.77.68-1.2l1.13.62a12.91,12.91,0,0,1-.92,1.48l1,1-1.13.79Zm-.86-.88-1.34-1.36a1,1,0,0,0-.65.92v0a.87.87,0,0,0,1,.82A1.66,1.66,0,0,0,324.05,173.71Zm.08-3.69v0a.62.62,0,0,0-.66-.65.66.66,0,0,0-.68.71v0a1.25,1.25,0,0,0,.41.87C323.81,170.72,324.13,170.46,324.13,170Z" />
			<path class="cls-13" d="M331,168.27h5.33v1.4h-3.79v1.49h3.34v1.4h-3.34v2.71H331Z" />
			<path class="cls-13" d="M337.6,168.27h1.54v7H337.6Z" />
			<path class="cls-13" d="M340.89,168.27h1.42l3.28,4.31v-4.31h1.51v7h-1.3l-3.39-4.45v4.45h-1.52Z" />
			<path class="cls-13" d="M351.19,168.22h1.42l3,7.05H354l-.64-1.57h-3l-.64,1.57h-1.57Zm1.62,4.12-.93-2.27-.93,2.27Z" />
			<path class="cls-13" d="M356.69,168.27h1.42l3.28,4.31v-4.31h1.52v7H361.6l-3.39-4.45v4.45h-1.52Z" />
			<path class="cls-13" d="M364.28,171.79v0a3.56,3.56,0,0,1,3.65-3.62,3.61,3.61,0,0,1,2.76,1.08l-1,1.13a2.58,2.58,0,0,0-1.79-.79,2.07,2.07,0,0,0-2,2.18v0a2.08,2.08,0,0,0,2,2.2,2.53,2.53,0,0,0,1.84-.82l1,1a3.58,3.58,0,0,1-2.87,1.25A3.53,3.53,0,0,1,364.28,171.79Z" />
			<path class="cls-13" d="M372,168.27h1.54v7H372Z" />
			<path class="cls-13" d="M377.73,168.22h1.42l3,7.05h-1.61l-.64-1.57h-3l-.64,1.57h-1.57Zm1.62,4.12-.93-2.27-.93,2.27Z" />
			<path class="cls-13" d="M383.23,168.27h1.54v5.6h3.49v1.4h-5Z" />
			<path class="cls-13" d="M392.42,168.27H394V171h2.84v-2.77h1.54v7H396.8v-2.81H394v2.81h-1.54Z" />
			<path class="cls-13" d="M400,168.27h5.28v1.37h-3.75v1.42h3.3v1.37h-3.3v1.47h3.8v1.37H400Z" />
			<path class="cls-13" d="M409.12,168.22h1.42l3,7.05h-1.61l-.64-1.57h-3l-.64,1.57h-1.57Zm1.62,4.12-.93-2.27-.93,2.27Z" />
			<path class="cls-13" d="M414.62,168.27h1.54v5.6h3.49v1.4h-5Z" />
			<path class="cls-13" d="M421.44,169.69h-2.13v-1.42h5.8v1.42H423v5.58h-1.54Z" />
			<path class="cls-13" d="M426.29,168.27h1.54V171h2.84v-2.77h1.53v7h-1.53v-2.81h-2.84v2.81h-1.54Z" />
			<path class="cls-13" d="M433.72,169.91h1.62v1.6h-1.62Zm0,3.76h1.62v1.6h-1.62Z" />
			<path class="cls-13" d="M321.06,179.77h.71v5.64h3.55v.66h-4.26Z" />
			<path class="cls-13" d="M326.14,183.75h0a2.3,2.3,0,0,1,2.23-2.43,2.22,2.22,0,0,1,2.17,2.46,1.69,1.69,0,0,1,0,.23h-3.69a1.62,1.62,0,0,0,1.64,1.57,1.91,1.91,0,0,0,1.46-.65l.44.38a2.39,2.39,0,0,1-1.92.88A2.31,2.31,0,0,1,326.14,183.75Zm3.7-.27a1.54,1.54,0,0,0-1.49-1.58,1.61,1.61,0,0,0-1.51,1.58Z" />
			<path class="cls-13" d="M331.07,181.41h.76l1.57,3.87,1.58-3.87h.74l-2,4.69h-.61Z" />
			<path class="cls-13" d="M336.25,183.75h0a2.31,2.31,0,0,1,2.24-2.43,2.22,2.22,0,0,1,2.17,2.46,1.69,1.69,0,0,1,0,.23H337a1.63,1.63,0,0,0,1.64,1.57,2,2,0,0,0,1.47-.65l.43.38a2.37,2.37,0,0,1-1.91.88A2.32,2.32,0,0,1,336.25,183.75Zm3.7-.27a1.53,1.53,0,0,0-1.48-1.58,1.61,1.61,0,0,0-1.52,1.58Z" />
			<path class="cls-13" d="M341.87,181.41h.69v1.22a2,2,0,0,1,1.9-1.3v.75h0a1.88,1.88,0,0,0-1.85,2.13v1.86h-.69Z" />
			<path class="cls-13" d="M344.94,184.72v0c0-1,.81-1.5,2-1.5a5.27,5.27,0,0,1,1.43.19v-.16c0-.83-.51-1.27-1.39-1.27a3.19,3.19,0,0,0-1.41.35l-.21-.57a3.79,3.79,0,0,1,1.69-.39,2.06,2.06,0,0,1,1.51.51,1.88,1.88,0,0,1,.48,1.36v2.85h-.67v-.7a2.05,2.05,0,0,1-1.69.8A1.57,1.57,0,0,1,344.94,184.72Zm3.43-.36v-.45a4.8,4.8,0,0,0-1.37-.2c-.87,0-1.36.38-1.36,1v0c0,.59.54.93,1.17.93A1.41,1.41,0,0,0,348.37,184.36Z" />
			<path class="cls-13" d="M350.45,186.88l.31-.54a3,3,0,0,0,1.79.59,1.53,1.53,0,0,0,1.7-1.65v-.55a2.22,2.22,0,0,1-1.83,1,2.15,2.15,0,0,1-2.19-2.18v0a2.16,2.16,0,0,1,2.19-2.2,2.21,2.21,0,0,1,1.82.94v-.84h.69v3.85a2.25,2.25,0,0,1-.6,1.65,2.45,2.45,0,0,1-1.77.62A3.66,3.66,0,0,1,350.45,186.88Zm3.81-3.36v0a1.63,1.63,0,0,0-1.71-1.57,1.54,1.54,0,0,0-1.61,1.56v0a1.58,1.58,0,0,0,1.61,1.59A1.64,1.64,0,0,0,354.26,183.52Z" />
			<path class="cls-13" d="M356.49,179.63h.8v.77h-.8Zm.05,1.78h.69v4.66h-.69Z" />
			<path class="cls-13" d="M358.84,181.41h.7v.81a1.76,1.76,0,0,1,1.59-.91,1.7,1.7,0,0,1,1.78,1.87v2.89h-.69v-2.72a1.24,1.24,0,0,0-1.29-1.4,1.36,1.36,0,0,0-1.39,1.45v2.67h-.7Z" />
			<path class="cls-13" d="M364.33,186.88l.32-.54a2.94,2.94,0,0,0,1.79.59,1.52,1.52,0,0,0,1.69-1.65v-.55a2.2,2.2,0,0,1-1.83,1,2.15,2.15,0,0,1-2.18-2.18v0a2.16,2.16,0,0,1,2.18-2.2,2.19,2.19,0,0,1,1.82.94v-.84h.7v3.85a2.25,2.25,0,0,1-.6,1.65,2.45,2.45,0,0,1-1.77.62A3.66,3.66,0,0,1,364.33,186.88Zm3.82-3.36v0a1.63,1.63,0,0,0-1.71-1.57,1.54,1.54,0,0,0-1.61,1.56v0a1.58,1.58,0,0,0,1.61,1.59A1.64,1.64,0,0,0,368.15,183.52Z" />
			<path class="cls-13" d="M373.18,179.77h2.71a2.48,2.48,0,0,1,1.79.63,1.7,1.7,0,0,1,.49,1.24v0a1.84,1.84,0,0,1-1.71,1.83l1.93,2.58h-.87l-1.83-2.45h-1.8v2.45h-.71Zm2.65,3.21c.94,0,1.62-.49,1.62-1.3h0c0-.78-.6-1.25-1.62-1.25h-1.94V183Z" />
			<path class="cls-13" d="M379.19,183.75h0a2.31,2.31,0,0,1,2.23-2.43,2.22,2.22,0,0,1,2.17,2.46,1.69,1.69,0,0,1,0,.23h-3.69a1.62,1.62,0,0,0,1.64,1.57,2,2,0,0,0,1.47-.65l.43.38a2.38,2.38,0,0,1-1.92.88A2.32,2.32,0,0,1,379.19,183.75Zm3.7-.27a1.53,1.53,0,0,0-1.48-1.58,1.61,1.61,0,0,0-1.52,1.58Z" />
			<path class="cls-13" d="M384.42,185.47l.35-.49a2.71,2.71,0,0,0,1.61.59c.56,0,1-.28,1-.73v0c0-.47-.55-.65-1.17-.82s-1.53-.46-1.53-1.32h0a1.4,1.4,0,0,1,1.58-1.34,3.1,3.1,0,0,1,1.67.52l-.31.52a2.63,2.63,0,0,0-1.38-.45c-.55,0-.9.29-.9.67v0c0,.44.58.61,1.2.8s1.49.5,1.49,1.34h0a1.46,1.46,0,0,1-1.65,1.4A3.16,3.16,0,0,1,384.42,185.47Z" />
			<path class="cls-13" d="M389,183.76h0a2.42,2.42,0,0,1,2.43-2.44,2.39,2.39,0,0,1,2.42,2.42v0a2.42,2.42,0,0,1-2.44,2.43A2.39,2.39,0,0,1,389,183.76Zm4.14,0h0a1.76,1.76,0,0,0-1.73-1.82,1.72,1.72,0,0,0-1.7,1.8v0a1.75,1.75,0,0,0,1.72,1.81A1.72,1.72,0,0,0,393.14,183.76Z" />
			<path class="cls-13" d="M395,184.3v-2.89h.69v2.72a1.24,1.24,0,0,0,1.29,1.41,1.38,1.38,0,0,0,1.4-1.46v-2.67h.68v4.66h-.68v-.81a1.8,1.8,0,0,1-1.6.91A1.7,1.7,0,0,1,395,184.3Z" />
			<path class="cls-13" d="M400.65,181.41h.69v1.22a2,2,0,0,1,1.9-1.3v.75h-.06a1.88,1.88,0,0,0-1.84,2.13v1.86h-.69Z" />
			<path class="cls-13" d="M403.8,183.76h0a2.42,2.42,0,0,1,4.25-1.61l-.46.49a1.85,1.85,0,0,0-1.41-.7,1.72,1.72,0,0,0-1.66,1.8v0a1.74,1.74,0,0,0,1.71,1.81,1.92,1.92,0,0,0,1.42-.7l.44.42a2.41,2.41,0,0,1-4.29-1.52Z" />
			<path class="cls-13" d="M408.81,183.75h0a2.3,2.3,0,0,1,2.23-2.43,2.22,2.22,0,0,1,2.17,2.46,1.69,1.69,0,0,1,0,.23h-3.69a1.62,1.62,0,0,0,1.64,1.57,2,2,0,0,0,1.47-.65l.43.38a2.39,2.39,0,0,1-1.92.88A2.31,2.31,0,0,1,408.81,183.75Zm3.7-.27A1.53,1.53,0,0,0,411,181.9a1.61,1.61,0,0,0-1.51,1.58Z" />
			<path class="cls-13" d="M414,185.47l.35-.49a2.69,2.69,0,0,0,1.61.59c.56,0,1-.28,1-.73v0c0-.47-.55-.65-1.16-.82s-1.54-.46-1.54-1.32h0a1.41,1.41,0,0,1,1.59-1.34,3.16,3.16,0,0,1,1.67.52l-.31.52a2.65,2.65,0,0,0-1.38-.45c-.55,0-.9.29-.9.67v0c0,.44.57.61,1.2.8s1.49.5,1.49,1.34h0c0,.89-.73,1.4-1.66,1.4A3.15,3.15,0,0,1,414,185.47Z" />
			<path class="cls-13" d="M321.2,192.83h-.63v-.61h.63v-.4a1.66,1.66,0,0,1,.41-1.2,1.39,1.39,0,0,1,1-.36,2.09,2.09,0,0,1,.76.12v.6a2.37,2.37,0,0,0-.67-.12q-.81,0-.81,1v.38h1.48v.6H321.9v4h-.7Z" />
			<path class="cls-13" d="M323.87,194.56h0a2.43,2.43,0,0,1,4.85,0v0a2.42,2.42,0,0,1-2.44,2.43A2.39,2.39,0,0,1,323.87,194.56Zm4.14,0h0a1.76,1.76,0,0,0-1.73-1.82,1.72,1.72,0,0,0-1.7,1.8v0a1.75,1.75,0,0,0,1.72,1.81A1.72,1.72,0,0,0,328,194.56Z" />
			<path class="cls-13" d="M330,192.21h.69v1.22a2,2,0,0,1,1.9-1.3v.75h-.05a1.88,1.88,0,0,0-1.85,2.13v1.86H330Z" />
			<path class="cls-13" d="M336.43,190.57H341v.65h-3.82v2.26h3.42v.64h-3.42v2.75h-.71Z" />
			<path class="cls-13" d="M342.24,190.43H343v.77h-.79Zm0,1.78h.7v4.66h-.7Z" />
			<path class="cls-13" d="M344.59,192.21h.69V193a1.75,1.75,0,0,1,1.59-.91,1.7,1.7,0,0,1,1.79,1.86v2.89H348v-2.72a1.24,1.24,0,0,0-1.28-1.4,1.36,1.36,0,0,0-1.4,1.45v2.67h-.69Z" />
			<path class="cls-13" d="M349.78,195.52v0c0-1,.81-1.5,2-1.5a4.83,4.83,0,0,1,1.43.2V194c0-.83-.51-1.27-1.39-1.27a3.19,3.19,0,0,0-1.41.35l-.21-.57a3.8,3.8,0,0,1,1.7-.39,2,2,0,0,1,1.5.52,1.83,1.83,0,0,1,.48,1.35v2.85h-.67v-.7a2,2,0,0,1-1.68.8A1.57,1.57,0,0,1,349.78,195.52Zm3.43-.36v-.45a4.8,4.8,0,0,0-1.37-.2c-.87,0-1.36.38-1.36,1v0c0,.59.54.93,1.17.93A1.41,1.41,0,0,0,353.21,195.16Z" />
			<path class="cls-13" d="M355.34,192.21h.7V193a1.74,1.74,0,0,1,1.59-.91,1.7,1.7,0,0,1,1.78,1.86v2.89h-.69v-2.72a1.24,1.24,0,0,0-1.29-1.4A1.36,1.36,0,0,0,356,194.2v2.67h-.7Z" />
			<path class="cls-13" d="M360.6,194.56h0a2.43,2.43,0,0,1,4.25-1.61l-.46.49a1.88,1.88,0,0,0-1.42-.7,1.72,1.72,0,0,0-1.66,1.8v0a1.75,1.75,0,0,0,1.71,1.81,1.92,1.92,0,0,0,1.42-.7l.44.42a2.4,2.4,0,0,1-4.28-1.52Z" />
			<path class="cls-13" d="M366,190.43h.79v.77H366Zm0,1.78h.69v4.66h-.69Z" />
			<path class="cls-13" d="M368,195.52v0c0-1,.81-1.5,2-1.5a4.83,4.83,0,0,1,1.43.2V194c0-.83-.51-1.27-1.38-1.27a3.24,3.24,0,0,0-1.42.35l-.21-.57a3.8,3.8,0,0,1,1.7-.39,2,2,0,0,1,1.5.52,1.79,1.79,0,0,1,.48,1.35v2.85h-.67v-.7a2,2,0,0,1-1.68.8A1.57,1.57,0,0,1,368,195.52Zm3.43-.36v-.45a4.8,4.8,0,0,0-1.37-.2c-.87,0-1.36.38-1.36,1v0c0,.59.54.93,1.17.93A1.41,1.41,0,0,0,371.47,195.16Z" />
			<path class="cls-13" d="M373.66,190.3h.7v6.57h-.7Z" />
			<path class="cls-13" d="M378.79,190.57h2.71a2.48,2.48,0,0,1,1.79.63,1.74,1.74,0,0,1,.48,1.24v0a1.84,1.84,0,0,1-1.71,1.83l1.94,2.58h-.87l-1.83-2.45h-1.8v2.45h-.71Zm2.64,3.21c.95,0,1.62-.49,1.62-1.3h0c0-.78-.59-1.25-1.61-1.25H379.5v2.56Z" />
			<path class="cls-13" d="M384.8,194.56v0a2.29,2.29,0,0,1,2.23-2.42,2.21,2.21,0,0,1,2.17,2.45,1.69,1.69,0,0,1,0,.23H385.5a1.62,1.62,0,0,0,1.64,1.57,2,2,0,0,0,1.47-.65l.43.38a2.39,2.39,0,0,1-1.92.88A2.31,2.31,0,0,1,384.8,194.56Zm3.7-.27A1.54,1.54,0,0,0,387,192.7a1.61,1.61,0,0,0-1.51,1.59Z" />
			<path class="cls-13" d="M390,196.28l.35-.5a2.69,2.69,0,0,0,1.61.59c.56,0,1-.28,1-.73v0c0-.47-.55-.65-1.16-.82s-1.54-.46-1.54-1.32h0a1.42,1.42,0,0,1,1.59-1.34,3.16,3.16,0,0,1,1.67.52l-.31.52a2.65,2.65,0,0,0-1.38-.45c-.55,0-.9.29-.9.67v0c0,.44.58.61,1.2.8s1.49.5,1.49,1.34h0c0,.89-.73,1.4-1.66,1.4A3.21,3.21,0,0,1,390,196.28Z" />
			<path class="cls-13" d="M394.91,190.43h.8v.77h-.8Zm0,1.78h.69v4.66H395Z" />
			<path class="cls-13" d="M397.33,190.3H398v6.57h-.69Z" />
			<path class="cls-13" d="M399.65,190.43h.79v.77h-.79Zm0,1.78h.7v4.66h-.7Z" />
			<path class="cls-13" d="M401.71,194.56v0a2.3,2.3,0,0,1,2.23-2.42,2.21,2.21,0,0,1,2.17,2.45,1.69,1.69,0,0,1,0,.23h-3.69a1.62,1.62,0,0,0,1.64,1.57,2,2,0,0,0,1.47-.65l.43.38A2.39,2.39,0,0,1,404,197,2.31,2.31,0,0,1,401.71,194.56Zm3.7-.27a1.54,1.54,0,0,0-1.49-1.59,1.61,1.61,0,0,0-1.51,1.59Z" />
			<path class="cls-13" d="M407.33,192.21H408V193a1.75,1.75,0,0,1,1.59-.91A1.7,1.7,0,0,1,411.4,194v2.89h-.7v-2.72a1.24,1.24,0,0,0-1.29-1.4A1.36,1.36,0,0,0,408,194.2v2.67h-.69Z" />
			<path class="cls-13" d="M412.58,194.56h0a2.43,2.43,0,0,1,4.25-1.61l-.46.49a1.86,1.86,0,0,0-1.41-.7,1.72,1.72,0,0,0-1.67,1.8v0a1.75,1.75,0,0,0,1.71,1.81,1.92,1.92,0,0,0,1.43-.7l.44.42a2.41,2.41,0,0,1-4.29-1.52Z" />
			<path class="cls-13" d="M417.59,194.56v0a2.29,2.29,0,0,1,2.23-2.42,2.21,2.21,0,0,1,2.17,2.45,1.69,1.69,0,0,1,0,.23h-3.69a1.62,1.62,0,0,0,1.64,1.57,1.91,1.91,0,0,0,1.46-.65l.44.38a2.39,2.39,0,0,1-1.92.88A2.31,2.31,0,0,1,417.59,194.56Zm3.7-.27a1.54,1.54,0,0,0-1.49-1.59,1.61,1.61,0,0,0-1.51,1.59Z" />
			<path class="cls-2" d="M318.08,117.47a1,1,0,0,0-.85-.53,1.09,1.09,0,0,0-.25,0,3.71,3.71,0,0,0-2.72-1.18,3.49,3.49,0,0,0-1.08.16,2.73,2.73,0,0,0-3.54.15,3.41,3.41,0,0,0-2.65,1.38,1.73,1.73,0,0,0-.32,0,2.08,2.08,0,0,0-2.08,2.08h14.8a1.56,1.56,0,0,0,.11-.57,1.5,1.5,0,0,0-1.42-1.5Z" />
			<path class="cls-2" d="M321.81,93.38a20.1,20.1,0,0,1-6.69,4c-4.59,1.82-4.49,6.11-2.53,9.6.37-2.44,2.74-5.42,5-6.83a.1.1,0,0,1,.14,0,.11.11,0,0,1,0,.13,7.3,7.3,0,0,0-1.06.88,13,13,0,0,0-1.84,2.4,17.3,17.3,0,0,0-1.35,2.69c-.16.39-.26.68-.34.92l-.05.15h0a25.34,25.34,0,0,0-1.16,4.61,7.75,7.75,0,0,0-1-2.3l0,0a5.06,5.06,0,0,0-.29-.5,10.45,10.45,0,0,0-1.06-1.43,7.07,7.07,0,0,0-1.31-1.2,4.25,4.25,0,0,0-.71-.41.06.06,0,0,1,0-.07.06.06,0,0,1,.07,0,6.8,6.8,0,0,1,3.61,3.46,4.88,4.88,0,0,0,.31-1.11,3.55,3.55,0,0,0-2.75-4.21,11.86,11.86,0,0,1-4.29-1.64s.28,4.5,1.83,6.56a3.27,3.27,0,0,0,4.32.91,7.19,7.19,0,0,1,1.19,4.13c0,.4,0,.81,0,1.23a3.07,3.07,0,0,1,.42.07c0-.1,0-.2,0-.3h0c0-.37,0-.71,0-1a20.18,20.18,0,0,1,1.28-6.5,5.53,5.53,0,0,0,7.21-2.66c2-3.91,1.15-11.5,1.15-11.5Z" />
		</g></a>
		<a xlink:href="https://nwcua.org/operational-innovation-maintaining-high-touch-engagement-in-a-digital-environment/" title="Operational Innovation: Maintaining High-Touch Engagement in a Digital Environment" target="_top"><g id="operational">
			<polygon class="cls-15" points="260.99 125.68 170.78 125.68 181.09 88.7 271.33 88.7 260.99 125.68" />
			<path class="cls-2" d="M224.39,102.58l-2.34,2.62a1,1,0,0,0,.76,1.69,1,1,0,0,0,.75-.34l4.58-5.13a1,1,0,0,0,.22-.94,1,1,0,0,0-.67-.7l-6.26-2a1,1,0,0,0-.62,1.93l3,1a13.29,13.29,0,0,0-8.86,9.81,3.85,3.85,0,0,0-2.87,3.73,3.87,3.87,0,1,0,4.94-3.71A11.2,11.2,0,0,1,224.39,102.58Zm-6.62,11.61a1.84,1.84,0,0,1-1.85,1.85,1.86,1.86,0,0,1-1.85-1.85,1.83,1.83,0,0,1,.55-1.3,1.81,1.81,0,0,1,1.3-.54A1.84,1.84,0,0,1,217.77,114.19Z" />
			<polygon class="cls-2" points="228.4 110.06 226.99 108.61 224.73 110.81 222.53 108.55 221.09 109.97 223.28 112.22 221.03 114.42 222.44 115.87 224.7 113.67 226.9 115.92 228.34 114.5 226.15 112.25 228.4 110.06" />
			<polygon class="cls-2" points="215.09 106.25 216.54 104.84 214.34 102.58 216.59 100.39 215.18 98.94 212.93 101.14 210.73 98.89 209.28 100.3 211.48 102.55 209.23 104.75 210.64 106.2 212.89 104 215.09 106.25" />
			<path class="cls-2" d="M232.69,97.79a1.85,1.85,0,0,0-1.31,3.15,1.88,1.88,0,0,0,2.61,0,1.85,1.85,0,0,0-1.3-3.15Zm0,5.72a3.88,3.88,0,1,1,3.87-3.88,3.89,3.89,0,0,1-3.87,3.88Z" />
			<line class="cls-16" x1="221.76" y1="89.11" x2="221.76" y2="6.67" />
			<circle class="cls-17" cx="221.76" cy="4.47" r="4.47" />
			<path class="cls-17" d="M232.29,29.14v0a3.72,3.72,0,0,1,7.44,0v0a3.72,3.72,0,0,1-7.44,0Zm5.83,0v0a2.13,2.13,0,0,0-2.12-2.2,2.09,2.09,0,0,0-2.1,2.18v0a2.13,2.13,0,0,0,2.12,2.2A2.09,2.09,0,0,0,238.12,29.14Z" />
			<path class="cls-17" d="M241.1,25.62H244A2.4,2.4,0,0,1,246.64,28v0c0,1.62-1.26,2.46-2.83,2.46h-1.17v2.1H241.1Zm2.76,3.53a1.08,1.08,0,0,0,1.22-1.06v0c0-.69-.48-1.06-1.25-1.06h-1.19v2.14Z" />
			<path class="cls-17" d="M247.78,25.62h5.28V27h-3.75v1.42h3.3v1.37h-3.3v1.47h3.8v1.37h-5.33Z" />
			<path class="cls-17" d="M254.48,25.62h3.2a2.79,2.79,0,0,1,2,.71,2.2,2.2,0,0,1,.6,1.6v0a2.17,2.17,0,0,1-1.5,2.17l1.71,2.5h-1.8l-1.5-2.24H256v2.24h-1.54Zm3.1,3.4c.75,0,1.18-.4,1.18-1v0c0-.66-.46-1-1.21-1H256v2Z" />
			<path class="cls-17" d="M264.11,25.57h1.42l3,7h-1.61l-.64-1.57h-3l-.64,1.57h-1.57Zm1.62,4.12-.93-2.27-.93,2.27Z" />
			<path class="cls-17" d="M270.34,27h-2.13V25.62H274V27h-2.13v5.58h-1.54Z" />
			<path class="cls-17" d="M275.26,25.62h1.54v7h-1.54Z" />
			<path class="cls-17" d="M278.24,29.14v0a3.72,3.72,0,0,1,7.44,0v0a3.72,3.72,0,0,1-7.44,0Zm5.83,0v0a2.13,2.13,0,0,0-2.12-2.2,2.09,2.09,0,0,0-2.1,2.18v0a2.13,2.13,0,0,0,2.12,2.2A2.09,2.09,0,0,0,284.07,29.14Z" />
			<path class="cls-17" d="M287.05,25.62h1.42l3.28,4.31V25.62h1.52v7H292l-3.39-4.45v4.45h-1.52Z" />
			<path class="cls-17" d="M297.35,25.57h1.42l3,7h-1.61l-.64-1.57h-3l-.64,1.57h-1.57ZM299,29.69,298,27.42l-.93,2.27Z" />
			<path class="cls-17" d="M302.85,25.62h1.54v5.6h3.49v1.4h-5Z" />
			<path class="cls-17" d="M232.67,37.62h1.54v7h-1.54Z" />
			<path class="cls-17" d="M236,37.62h1.42l3.28,4.31V37.62h1.52v7h-1.31l-3.39-4.45v4.45H236Z" />
			<path class="cls-17" d="M243.86,37.62h1.42l3.28,4.31V37.62h1.52v7h-1.31l-3.39-4.45v4.45h-1.52Z" />
			<path class="cls-17" d="M251.45,41.14v0a3.72,3.72,0,0,1,7.44,0v0a3.72,3.72,0,0,1-7.44,0Zm5.83,0v0a2.13,2.13,0,0,0-2.12-2.2,2.09,2.09,0,0,0-2.1,2.18v0a2.13,2.13,0,0,0,2.12,2.2A2.09,2.09,0,0,0,257.28,41.14Z" />
			<path class="cls-17" d="M259.21,37.62h1.7l1.83,4.93,1.83-4.93h1.66l-2.83,7.05H262Z" />
			<path class="cls-17" d="M268.71,37.57h1.42l3,7h-1.61l-.64-1.57h-3l-.64,1.57h-1.57Zm1.62,4.12-.93-2.27-.93,2.27Z" />
			<path class="cls-17" d="M274.94,39h-2.13V37.62h5.8V39h-2.13v5.58h-1.54Z" />
			<path class="cls-17" d="M279.86,37.62h1.54v7h-1.54Z" />
			<path class="cls-17" d="M282.84,41.14v0a3.72,3.72,0,0,1,7.44,0v0a3.72,3.72,0,0,1-7.44,0Zm5.83,0v0a2.13,2.13,0,0,0-2.12-2.2,2.09,2.09,0,0,0-2.1,2.18v0a2.13,2.13,0,0,0,2.12,2.2A2.09,2.09,0,0,0,288.67,41.14Z" />
			<path class="cls-17" d="M291.65,37.62h1.42l3.28,4.31V37.62h1.52v7h-1.31l-3.39-4.45v4.45h-1.52Z" />
			<path class="cls-17" d="M299.38,39.26H301v1.6h-1.62Zm0,3.76H301v1.6h-1.62Z" />
			<path class="cls-17" d="M232.65,49.12h.72l2.3,3.44,2.3-3.44h.71v6.3H238V50.31l-2.29,3.38h0l-2.29-3.37v5.1h-.7Z" />
			<path class="cls-17" d="M240,54.07v0c0-1,.81-1.5,2-1.5a4.88,4.88,0,0,1,1.43.2v-.17c0-.83-.52-1.27-1.39-1.27a3.19,3.19,0,0,0-1.41.35l-.21-.57a3.76,3.76,0,0,1,1.69-.39,2.06,2.06,0,0,1,1.51.51,1.87,1.87,0,0,1,.47,1.36v2.85h-.66v-.7a2.07,2.07,0,0,1-1.69.8A1.57,1.57,0,0,1,240,54.07Zm3.43-.36v-.45a4.85,4.85,0,0,0-1.37-.2c-.88,0-1.36.38-1.36,1v0c0,.59.54.93,1.17.93A1.41,1.41,0,0,0,243.43,53.71Z" />
			<path class="cls-17" d="M245.58,49h.79v.77h-.79Zm0,1.78h.69v4.66h-.69Z" />
			<path class="cls-17" d="M247.93,50.76h.69v.82a1.75,1.75,0,0,1,1.59-.91A1.7,1.7,0,0,1,252,52.53v2.89h-.7V52.7A1.24,1.24,0,0,0,250,51.3a1.36,1.36,0,0,0-1.4,1.45v2.67h-.69Z" />
			<path class="cls-17" d="M253.71,54.19V51.38h-.65v-.62h.65v-1.4h.7v1.4h1.47v.62h-1.47V54.1a.69.69,0,0,0,.78.77,1.4,1.4,0,0,0,.67-.16v.59a1.67,1.67,0,0,1-.83.2A1.19,1.19,0,0,1,253.71,54.19Z" />
			<path class="cls-17" d="M256.75,54.07v0c0-1,.81-1.5,2-1.5a4.9,4.9,0,0,1,1.44.2v-.17c0-.83-.52-1.27-1.39-1.27a3.19,3.19,0,0,0-1.41.35l-.21-.57a3.76,3.76,0,0,1,1.69-.39,2,2,0,0,1,1.5.51,1.83,1.83,0,0,1,.48,1.36v2.85h-.66v-.7a2.07,2.07,0,0,1-1.69.8A1.58,1.58,0,0,1,256.75,54.07Zm3.43-.36v-.45a4.78,4.78,0,0,0-1.36-.2c-.88,0-1.36.38-1.36,1v0c0,.59.54.93,1.17.93A1.4,1.4,0,0,0,260.18,53.71Z" />
			<path class="cls-17" d="M262.33,49h.8v.77h-.8Zm.05,1.78h.69v4.66h-.69Z" />
			<path class="cls-17" d="M264.68,50.76h.7v.82a1.74,1.74,0,0,1,1.59-.91,1.69,1.69,0,0,1,1.78,1.86v2.89h-.69V52.7a1.24,1.24,0,0,0-1.29-1.4,1.36,1.36,0,0,0-1.39,1.45v2.67h-.7Z" />
			<path class="cls-17" d="M270.25,49H271v.77h-.79Zm0,1.78H271v4.66h-.69Z" />
			<path class="cls-17" d="M272.6,50.76h.69v.82a1.74,1.74,0,0,1,1.59-.91,1.69,1.69,0,0,1,1.78,1.86v2.89H276V52.7a1.24,1.24,0,0,0-1.29-1.4,1.36,1.36,0,0,0-1.39,1.45v2.67h-.69Z" />
			<path class="cls-17" d="M278.08,56.23l.32-.54a3,3,0,0,0,1.79.59,1.52,1.52,0,0,0,1.69-1.65v-.55a2.19,2.19,0,0,1-1.82,1,2.15,2.15,0,0,1-2.19-2.18v0a2.16,2.16,0,0,1,2.19-2.19,2.2,2.2,0,0,1,1.82.93v-.84h.69v3.85a2.25,2.25,0,0,1-.6,1.65,2.45,2.45,0,0,1-1.77.62A3.71,3.71,0,0,1,278.08,56.23Zm3.82-3.36v0a1.63,1.63,0,0,0-1.71-1.57,1.54,1.54,0,0,0-1.61,1.56v0a1.58,1.58,0,0,0,1.61,1.59A1.64,1.64,0,0,0,281.9,52.87Z" />
			<path class="cls-17" d="M286.93,49.12h.71v2.8h3.64v-2.8H292v6.3h-.71V52.58h-3.64v2.84h-.71Z" />
			<path class="cls-17" d="M293.67,49h.8v.77h-.8Zm.05,1.78h.69v4.66h-.69Z" />
			<path class="cls-17" d="M296,56.23l.31-.54a3,3,0,0,0,1.79.59,1.53,1.53,0,0,0,1.7-1.65v-.55a2.22,2.22,0,0,1-1.83,1,2.15,2.15,0,0,1-2.19-2.18v0a2.16,2.16,0,0,1,2.19-2.19,2.2,2.2,0,0,1,1.82.93v-.84h.69v3.85a2.28,2.28,0,0,1-.59,1.65,2.49,2.49,0,0,1-1.78.62A3.66,3.66,0,0,1,296,56.23Zm3.81-3.36v0a1.62,1.62,0,0,0-1.71-1.57,1.54,1.54,0,0,0-1.61,1.56v0a1.58,1.58,0,0,0,1.61,1.59A1.64,1.64,0,0,0,299.78,52.87Z" />
			<path class="cls-17" d="M302,48.85h.69v2.73a1.75,1.75,0,0,1,1.59-.91,1.7,1.7,0,0,1,1.79,1.86v2.89h-.7V52.7a1.24,1.24,0,0,0-1.28-1.4,1.36,1.36,0,0,0-1.4,1.45v2.67H302Z" />
			<path class="cls-17" d="M307.35,52.35h2.5v.73h-2.5Z" />
			<path class="cls-17" d="M312.19,49.77h-2.12v-.65H315v.65h-2.11v5.65h-.72Z" />
			<path class="cls-17" d="M314.8,53.11h0a2.43,2.43,0,0,1,4.86,0v0a2.42,2.42,0,0,1-2.44,2.43A2.39,2.39,0,0,1,314.8,53.11Zm4.14,0h0a1.76,1.76,0,0,0-1.72-1.82,1.72,1.72,0,0,0-1.7,1.8v0a1.74,1.74,0,0,0,1.71,1.81A1.72,1.72,0,0,0,318.94,53.11Z" />
			<path class="cls-17" d="M320.83,53.65V50.76h.7v2.72a1.24,1.24,0,0,0,1.28,1.41,1.38,1.38,0,0,0,1.4-1.46V50.76h.68v4.66h-.68v-.81a1.78,1.78,0,0,1-1.59.91A1.71,1.71,0,0,1,320.83,53.65Z" />
			<path class="cls-17" d="M326.16,53.11h0a2.43,2.43,0,0,1,4.25-1.61L330,52a1.86,1.86,0,0,0-1.41-.7,1.72,1.72,0,0,0-1.67,1.8v0a1.75,1.75,0,0,0,1.71,1.81,1.92,1.92,0,0,0,1.43-.7l.44.42a2.41,2.41,0,0,1-4.29-1.52Z" />
			<path class="cls-17" d="M331.59,48.85h.69v2.73a1.75,1.75,0,0,1,1.59-.91,1.7,1.7,0,0,1,1.79,1.86v2.89H335V52.7a1.23,1.23,0,0,0-1.28-1.4,1.37,1.37,0,0,0-1.4,1.45v2.67h-.69Z" />
			<path class="cls-17" d="M232.65,59.92h4.56v.65h-3.85v2.15h3.44v.65h-3.44v2.2h3.89v.65h-4.6Z" />
			<path class="cls-17" d="M238.57,61.57h.69v.81a1.75,1.75,0,0,1,1.59-.91,1.7,1.7,0,0,1,1.79,1.86v2.89h-.7V63.5a1.24,1.24,0,0,0-1.28-1.4,1.36,1.36,0,0,0-1.4,1.45v2.67h-.69Z" />
			<path class="cls-17" d="M244.06,67l.31-.54a3,3,0,0,0,1.79.59,1.53,1.53,0,0,0,1.7-1.65v-.55a2.22,2.22,0,0,1-1.83,1,2.15,2.15,0,0,1-2.19-2.18v0A2.16,2.16,0,0,1,246,61.47a2.2,2.2,0,0,1,1.82.93v-.83h.69v3.84a2.28,2.28,0,0,1-.59,1.65,2.49,2.49,0,0,1-1.78.62A3.66,3.66,0,0,1,244.06,67Zm3.81-3.36v0a1.62,1.62,0,0,0-1.71-1.57,1.54,1.54,0,0,0-1.61,1.56v0a1.58,1.58,0,0,0,1.61,1.59A1.64,1.64,0,0,0,247.87,63.67Z" />
			<path class="cls-17" d="M249.73,64.87v0c0-1,.82-1.5,2-1.5a4.88,4.88,0,0,1,1.43.2v-.17c0-.83-.52-1.27-1.39-1.27a3.19,3.19,0,0,0-1.41.35l-.21-.57a3.9,3.9,0,0,1,1.69-.39,2,2,0,0,1,1.51.52,1.84,1.84,0,0,1,.47,1.36v2.84h-.66v-.7a2.07,2.07,0,0,1-1.69.8A1.58,1.58,0,0,1,249.73,64.87Zm3.44-.36v-.45a4.91,4.91,0,0,0-1.37-.2c-.88,0-1.36.38-1.36,1v0c0,.59.54.93,1.17.93A1.41,1.41,0,0,0,253.17,64.51Z" />
			<path class="cls-17" d="M255.24,67l.32-.54a2.94,2.94,0,0,0,1.79.59A1.52,1.52,0,0,0,259,65.43v-.55a2.2,2.2,0,0,1-1.83,1A2.15,2.15,0,0,1,255,63.68v0a2.15,2.15,0,0,1,2.18-2.19,2.18,2.18,0,0,1,1.82.93v-.83h.7v3.84a2.25,2.25,0,0,1-.6,1.65,2.45,2.45,0,0,1-1.77.62A3.66,3.66,0,0,1,255.24,67Zm3.82-3.36v0a1.63,1.63,0,0,0-1.71-1.57,1.54,1.54,0,0,0-1.61,1.56v0a1.58,1.58,0,0,0,1.61,1.59A1.64,1.64,0,0,0,259.06,63.67Z" />
			<path class="cls-17" d="M261,63.91v0a2.3,2.3,0,0,1,2.24-2.42,2.21,2.21,0,0,1,2.17,2.45,1.69,1.69,0,0,1,0,.23h-3.69a1.62,1.62,0,0,0,1.64,1.57,1.94,1.94,0,0,0,1.46-.65l.44.38a2.39,2.39,0,0,1-1.92.88A2.32,2.32,0,0,1,261,63.91Zm3.7-.27a1.53,1.53,0,0,0-1.48-1.59,1.61,1.61,0,0,0-1.51,1.59Z" />
			<path class="cls-17" d="M266.6,61.57h.69v.78a1.7,1.7,0,0,1,1.51-.88,1.58,1.58,0,0,1,1.49.92,1.87,1.87,0,0,1,1.64-.92,1.67,1.67,0,0,1,1.73,1.87v2.88H273V63.5c0-.9-.45-1.4-1.21-1.4a1.3,1.3,0,0,0-1.28,1.44v2.68h-.69V63.48c0-.87-.46-1.38-1.2-1.38a1.35,1.35,0,0,0-1.3,1.46v2.66h-.69Z" />
			<path class="cls-17" d="M274.87,63.91v0a2.3,2.3,0,0,1,2.23-2.42,2.21,2.21,0,0,1,2.17,2.45v.23h-3.7a1.62,1.62,0,0,0,1.64,1.57,2,2,0,0,0,1.47-.65l.43.38a2.38,2.38,0,0,1-1.92.88A2.32,2.32,0,0,1,274.87,63.91Zm3.7-.27a1.53,1.53,0,0,0-1.48-1.59,1.62,1.62,0,0,0-1.52,1.59Z" />
			<path class="cls-17" d="M280.49,61.57h.69v.81a1.75,1.75,0,0,1,1.59-.91,1.7,1.7,0,0,1,1.79,1.86v2.89h-.7V63.5a1.24,1.24,0,0,0-1.28-1.4,1.36,1.36,0,0,0-1.4,1.45v2.67h-.69Z" />
			<path class="cls-17" d="M286.27,65V62.18h-.64v-.61h.64V60.16h.7v1.41h1.47v.61H287V64.9a.69.69,0,0,0,.78.77,1.47,1.47,0,0,0,.68-.16v.59a1.74,1.74,0,0,1-.84.2A1.19,1.19,0,0,1,286.27,65Z" />
			<path class="cls-17" d="M292.39,59.78h.79v.77h-.79Zm0,1.79h.69v4.65h-.69Z" />
			<path class="cls-17" d="M294.73,61.57h.7v.81a1.74,1.74,0,0,1,1.59-.91,1.69,1.69,0,0,1,1.78,1.86v2.89h-.69V63.5a1.24,1.24,0,0,0-1.29-1.4,1.36,1.36,0,0,0-1.39,1.45v2.67h-.7Z" />
			<path class="cls-17" d="M302.63,64.87v0c0-1,.81-1.5,2-1.5a4.88,4.88,0,0,1,1.43.2v-.17c0-.83-.51-1.27-1.39-1.27a3.19,3.19,0,0,0-1.41.35l-.21-.57a3.93,3.93,0,0,1,1.69-.39,2,2,0,0,1,1.51.52,1.84,1.84,0,0,1,.48,1.36v2.84h-.67v-.7a2,2,0,0,1-1.68.8A1.57,1.57,0,0,1,302.63,64.87Zm3.43-.36v-.45a4.8,4.8,0,0,0-1.37-.2c-.87,0-1.36.38-1.36,1v0c0,.59.54.93,1.17.93A1.41,1.41,0,0,0,306.06,64.51Z" />
			<path class="cls-17" d="M232.65,70.72h2.19a3.14,3.14,0,0,1,3.35,3.13v0A3.16,3.16,0,0,1,234.84,77h-2.19Zm.71.66v5h1.48a2.44,2.44,0,0,0,2.61-2.47v0a2.45,2.45,0,0,0-2.61-2.49Z" />
			<path class="cls-17" d="M239.59,70.58h.8v.77h-.8Zm0,1.79h.69V77h-.69Z" />
			<path class="cls-17" d="M241.89,77.83l.31-.54a3,3,0,0,0,1.79.59,1.53,1.53,0,0,0,1.7-1.65v-.55a2.22,2.22,0,0,1-1.83,1,2.15,2.15,0,0,1-2.19-2.18v0a2.16,2.16,0,0,1,2.19-2.19,2.2,2.2,0,0,1,1.82.93v-.83h.69v3.84a2.28,2.28,0,0,1-.59,1.65,2.49,2.49,0,0,1-1.78.62A3.66,3.66,0,0,1,241.89,77.83Zm3.81-3.36v0A1.62,1.62,0,0,0,244,72.88a1.54,1.54,0,0,0-1.61,1.56v0A1.58,1.58,0,0,0,244,76.05,1.64,1.64,0,0,0,245.7,74.47Z" />
			<path class="cls-17" d="M247.93,70.58h.8v.77h-.8Zm0,1.79h.69V77H248Z" />
			<path class="cls-17" d="M250.53,75.79V73h-.65v-.61h.65V71h.69v1.41h1.48V73h-1.48V75.7a.69.69,0,0,0,.78.77,1.41,1.41,0,0,0,.68-.16v.59a1.68,1.68,0,0,1-.84.2A1.18,1.18,0,0,1,250.53,75.79Z" />
			<path class="cls-17" d="M253.57,75.67v0c0-1,.81-1.5,2-1.5a4.83,4.83,0,0,1,1.43.2v-.17c0-.83-.51-1.27-1.39-1.27a3.19,3.19,0,0,0-1.41.35l-.21-.57a3.94,3.94,0,0,1,1.7-.39,2,2,0,0,1,1.5.52,1.83,1.83,0,0,1,.48,1.35V77H257v-.7a2,2,0,0,1-1.68.8A1.57,1.57,0,0,1,253.57,75.67Zm3.43-.36v-.45a4.8,4.8,0,0,0-1.37-.2c-.87,0-1.36.38-1.36,1v0c0,.59.54.93,1.17.93A1.41,1.41,0,0,0,257,75.31Z" />
			<path class="cls-17" d="M259.19,70.45h.7V77h-.7Z" />
			<path class="cls-17" d="M264.32,70.72h4.55v.65H265v2.15h3.44v.65H265v2.2h3.89V77h-4.6Z" />
			<path class="cls-17" d="M270.23,72.37h.69v.81a1.76,1.76,0,0,1,1.6-.91,1.7,1.7,0,0,1,1.78,1.86V77h-.7V74.3a1.23,1.23,0,0,0-1.28-1.4,1.37,1.37,0,0,0-1.4,1.45V77h-.69Z" />
			<path class="cls-17" d="M275.13,72.37h.77l1.57,3.86L279,72.37h.75l-2,4.69h-.61Z" />
			<path class="cls-17" d="M280.89,70.58h.8v.77h-.8Zm.05,1.79h.69V77h-.69Z" />
			<path class="cls-17" d="M283.24,72.37h.7v1.21a2,2,0,0,1,1.9-1.3V73h-.06a1.88,1.88,0,0,0-1.84,2.14V77h-.7Z" />
			<path class="cls-17" d="M286.4,74.71h0a2.41,2.41,0,0,1,2.43-2.43,2.38,2.38,0,0,1,2.42,2.41v0a2.42,2.42,0,0,1-2.44,2.43A2.39,2.39,0,0,1,286.4,74.71Zm4.14,0h0a1.76,1.76,0,0,0-1.73-1.82,1.72,1.72,0,0,0-1.7,1.8v0a1.75,1.75,0,0,0,1.72,1.81A1.72,1.72,0,0,0,290.54,74.71Z" />
			<path class="cls-17" d="M292.5,72.37h.7v.81a1.74,1.74,0,0,1,1.59-.91,1.69,1.69,0,0,1,1.78,1.86V77h-.69V74.3a1.24,1.24,0,0,0-1.29-1.4,1.36,1.36,0,0,0-1.39,1.45V77h-.7Z" />
			<path class="cls-17" d="M298.05,72.37h.69v.78a1.7,1.7,0,0,1,1.5-.88,1.58,1.58,0,0,1,1.5.92,1.85,1.85,0,0,1,1.64-.92,1.67,1.67,0,0,1,1.73,1.87V77h-.7V74.3c0-.9-.45-1.4-1.2-1.4a1.29,1.29,0,0,0-1.28,1.44V77h-.7V74.28c0-.87-.45-1.38-1.19-1.38a1.35,1.35,0,0,0-1.3,1.46V77h-.69Z" />
			<path class="cls-17" d="M306.32,74.71v0a2.29,2.29,0,0,1,2.23-2.42,2.21,2.21,0,0,1,2.17,2.45,1.69,1.69,0,0,1,0,.23H307a1.62,1.62,0,0,0,1.64,1.57,2,2,0,0,0,1.47-.65l.43.38a2.39,2.39,0,0,1-1.92.88A2.31,2.31,0,0,1,306.32,74.71Zm3.7-.27a1.54,1.54,0,0,0-1.49-1.59A1.61,1.61,0,0,0,307,74.44Z" />
			<path class="cls-17" d="M311.93,72.37h.7v.81a1.74,1.74,0,0,1,1.59-.91A1.69,1.69,0,0,1,316,74.13V77h-.69V74.3A1.24,1.24,0,0,0,314,72.9a1.36,1.36,0,0,0-1.39,1.45V77h-.7Z" />
			<path class="cls-17" d="M317.72,75.79V73h-.65v-.61h.65V71h.7v1.41h1.47V73h-1.47V75.7a.69.69,0,0,0,.78.77,1.4,1.4,0,0,0,.67-.16v.59a1.67,1.67,0,0,1-.83.2A1.19,1.19,0,0,1,317.72,75.79Z" />
		</g></a>
		<a xlink:href="https://nwcua.org/culture-defines-experience-weaving-culture-and-brand-through-your-organization/" title="Culture Defines Experience: Weaving Culture and Brand Through Your Organization" target="_top"><g id="culture">
			<polygon class="cls-18" points="82.11 125.97 0.53 125.97 0.53 89 92.67 89 82.11 125.97" />
			<line class="cls-19" x1="43.13" y1="89.11" x2="43.13" y2="6.67" />
			<circle class="cls-20" cx="43.13" cy="4.47" r="4.47" />
			<path class="cls-20" d="M54.66,29.14v0a3.56,3.56,0,0,1,3.65-3.62,3.61,3.61,0,0,1,2.76,1.08l-1,1.13a2.58,2.58,0,0,0-1.79-.79,2.07,2.07,0,0,0-2,2.18v0a2.08,2.08,0,0,0,2,2.2,2.53,2.53,0,0,0,1.84-.82l1,1a3.58,3.58,0,0,1-2.87,1.25A3.53,3.53,0,0,1,54.66,29.14Z" />
			<path class="cls-20" d="M62.24,29.62v-4h1.54v4c0,1.14.57,1.73,1.51,1.73s1.51-.57,1.51-1.68v-4h1.54v3.95a2.82,2.82,0,0,1-3.07,3.16A2.78,2.78,0,0,1,62.24,29.62Z" />
			<path class="cls-20" d="M69.91,25.62h1.54v5.6h3.49v1.4h-5Z" />
			<path class="cls-20" d="M76.73,27H74.6V25.62h5.8V27H78.27v5.58H76.73Z" />
			<path class="cls-20" d="M81.47,29.62v-4H83v4c0,1.14.57,1.73,1.51,1.73S86,30.74,86,29.63v-4h1.54v3.95a2.82,2.82,0,0,1-3.07,3.16A2.78,2.78,0,0,1,81.47,29.62Z" />
			<path class="cls-20" d="M89.14,25.62h3.2a2.79,2.79,0,0,1,2,.71,2.2,2.2,0,0,1,.6,1.6v0a2.17,2.17,0,0,1-1.5,2.17l1.71,2.5h-1.8l-1.5-2.24H90.68v2.24H89.14Zm3.1,3.4c.75,0,1.18-.4,1.18-1v0c0-.66-.46-1-1.21-1H90.68v2Z" />
			<path class="cls-20" d="M96.37,25.62h5.28V27H97.9v1.42h3.3v1.37H97.9v1.47h3.8v1.37H96.37Z" />
			<path class="cls-20" d="M106.07,25.62h2.73a3.49,3.49,0,0,1,3.72,3.48v0a3.5,3.5,0,0,1-3.72,3.5h-2.73Zm2.73,5.61a2,2,0,0,0,2.11-2.09v0A2,2,0,0,0,108.8,27h-1.19v4.22Z" />
			<path class="cls-20" d="M113.89,25.62h5.28V27h-3.75v1.42h3.3v1.37h-3.3v1.47h3.8v1.37h-5.33Z" />
			<path class="cls-20" d="M120.59,25.62h5.33V27h-3.79v1.49h3.34v1.4h-3.34v2.71h-1.54Z" />
			<path class="cls-20" d="M127.22,25.62h1.54v7h-1.54Z" />
			<path class="cls-20" d="M130.51,25.62h1.42l3.28,4.31V25.62h1.52v7h-1.31L132,28.17v4.45h-1.52Z" />
			<path class="cls-20" d="M138.41,25.62h5.28V27h-3.75v1.42h3.3v1.37h-3.3v1.47h3.8v1.37h-5.33Z" />
			<path class="cls-20" d="M144.63,31.6l.91-1.09a3.21,3.21,0,0,0,2.09.85c.63,0,1-.25,1-.66v0c0-.39-.24-.59-1.41-.89-1.41-.36-2.32-.75-2.32-2.14v0a2.19,2.19,0,0,1,2.45-2.11,4.05,4.05,0,0,1,2.6.89l-.8,1.16a3.28,3.28,0,0,0-1.82-.69c-.59,0-.9.27-.9.61v0c0,.46.3.61,1.51.92,1.42.37,2.22.88,2.22,2.1v0c0,1.39-1.06,2.17-2.57,2.17A4.45,4.45,0,0,1,144.63,31.6Z" />
			<path class="cls-20" d="M55,37.62h5.28V39H56.5v1.42h3.3v1.37H56.5v1.47h3.8v1.37H55Z" />
			<path class="cls-20" d="M63.58,41.06l-2.34-3.44H63l1.46,2.27L66,37.62h1.75L65.4,41l2.44,3.58H66l-1.57-2.4-1.58,2.4H61.14Z" />
			<path class="cls-20" d="M69,37.62h2.86A2.4,2.4,0,0,1,74.53,40v0c0,1.62-1.26,2.46-2.83,2.46H70.53v2.1H69Zm2.76,3.53A1.08,1.08,0,0,0,73,40.09v0c0-.69-.48-1.06-1.25-1.06H70.53v2.14Z" />
			<path class="cls-20" d="M75.67,37.62H81V39H77.2v1.42h3.3v1.37H77.2v1.47H81v1.37H75.67Z" />
			<path class="cls-20" d="M82.37,37.62h3.2a2.79,2.79,0,0,1,2,.71,2.2,2.2,0,0,1,.6,1.6v0a2.17,2.17,0,0,1-1.5,2.17l1.71,2.5h-1.8l-1.5-2.24H83.91v2.24H82.37Zm3.1,3.4c.75,0,1.18-.4,1.18-1v0c0-.66-.46-1-1.21-1H83.91v2Z" />
			<path class="cls-20" d="M89.67,37.62h1.54v7H89.67Z" />
			<path class="cls-20" d="M93,37.62h5.28V39H94.49v1.42h3.3v1.37h-3.3v1.47h3.8v1.37H93Z" />
			<path class="cls-20" d="M99.66,37.62h1.42l3.28,4.31V37.62h1.52v7h-1.31l-3.39-4.45v4.45H99.66Z" />
			<path class="cls-20" d="M107.25,41.14v0a3.56,3.56,0,0,1,3.65-3.62,3.61,3.61,0,0,1,2.76,1.08l-1,1.13a2.58,2.58,0,0,0-1.79-.79,2.07,2.07,0,0,0-2,2.18v0a2.08,2.08,0,0,0,2,2.2,2.53,2.53,0,0,0,1.84-.82l1,1a3.58,3.58,0,0,1-2.87,1.25A3.53,3.53,0,0,1,107.25,41.14Z" />
			<path class="cls-20" d="M114.94,37.62h5.28V39h-3.75v1.42h3.3v1.37h-3.3v1.47h3.8v1.37h-5.33Z" />
			<path class="cls-20" d="M121.47,39.26h1.62v1.6h-1.62Zm0,3.76h1.62v1.6h-1.62Z" />
			<path class="cls-20" d="M54.54,49.12h.77l1.8,5.25,1.73-5.27h.59l1.72,5.27L63,49.12h.75l-2.25,6.34h-.6l-1.73-5.11-1.74,5.11h-.59Z" />
			<path class="cls-20" d="M64,53.11v0a2.29,2.29,0,0,1,2.23-2.42,2.21,2.21,0,0,1,2.17,2.45,1.69,1.69,0,0,1,0,.23H64.7a1.62,1.62,0,0,0,1.64,1.57,1.91,1.91,0,0,0,1.46-.65l.44.38a2.39,2.39,0,0,1-1.92.88A2.31,2.31,0,0,1,64,53.11Zm3.7-.27a1.54,1.54,0,0,0-1.49-1.59,1.61,1.61,0,0,0-1.51,1.59Z" />
			<path class="cls-20" d="M69.26,54.07v0c0-1,.81-1.5,2-1.5a4.78,4.78,0,0,1,1.43.2v-.17c0-.83-.51-1.27-1.38-1.27a3.24,3.24,0,0,0-1.42.35l-.2-.57a3.73,3.73,0,0,1,1.69-.39,2,2,0,0,1,1.5.51,1.83,1.83,0,0,1,.48,1.36v2.85h-.67v-.7a2,2,0,0,1-1.68.8A1.57,1.57,0,0,1,69.26,54.07Zm3.43-.36v-.45a4.8,4.8,0,0,0-1.37-.2c-.87,0-1.36.38-1.36,1v0c0,.59.54.93,1.17.93A1.41,1.41,0,0,0,72.69,53.71Z" />
			<path class="cls-20" d="M74.18,50.76H75l1.57,3.87,1.57-3.87h.75l-2,4.7H76.2Z" />
			<path class="cls-20" d="M79.94,49h.8v.77h-.8Zm0,1.78h.69v4.66H80Z" />
			<path class="cls-20" d="M82.29,50.76H83v.82a1.74,1.74,0,0,1,1.59-.91,1.69,1.69,0,0,1,1.78,1.86v2.89h-.69V52.7a1.24,1.24,0,0,0-1.29-1.4A1.36,1.36,0,0,0,83,52.75v2.67h-.7Z" />
			<path class="cls-20" d="M87.78,56.23l.32-.54a2.94,2.94,0,0,0,1.79.59,1.52,1.52,0,0,0,1.69-1.65v-.55a2.19,2.19,0,0,1-1.82,1,2.15,2.15,0,0,1-2.19-2.18v0a2.2,2.2,0,0,1,4-1.26v-.84h.7v3.85a2.25,2.25,0,0,1-.6,1.65,2.45,2.45,0,0,1-1.77.62A3.71,3.71,0,0,1,87.78,56.23Zm3.82-3.36v0a1.63,1.63,0,0,0-1.71-1.57,1.54,1.54,0,0,0-1.61,1.56v0a1.58,1.58,0,0,0,1.61,1.59A1.64,1.64,0,0,0,91.6,52.87Z" />
			<path class="cls-20" d="M96.35,52.29v0A3.18,3.18,0,0,1,99.54,49,3.27,3.27,0,0,1,102,50l-.49.52a2.74,2.74,0,0,0-2-.86,2.46,2.46,0,0,0-2.44,2.58v0a2.48,2.48,0,0,0,2.44,2.6,2.71,2.71,0,0,0,2-.91l.47.46a3.26,3.26,0,0,1-2.52,1.11A3.14,3.14,0,0,1,96.35,52.29Z" />
			<path class="cls-20" d="M103.08,53.65V50.76h.7v2.72a1.24,1.24,0,0,0,1.28,1.41,1.38,1.38,0,0,0,1.4-1.46V50.76h.68v4.66h-.68v-.81a1.78,1.78,0,0,1-1.59.91A1.71,1.71,0,0,1,103.08,53.65Z" />
			<path class="cls-20" d="M108.76,48.85h.7v6.57h-.7Z" />
			<path class="cls-20" d="M111.31,54.19V51.38h-.65v-.62h.65v-1.4H112v1.4h1.48v.62H112V54.1a.69.69,0,0,0,.79.77,1.4,1.4,0,0,0,.67-.16v.59a1.68,1.68,0,0,1-.84.2A1.18,1.18,0,0,1,111.31,54.19Z" />
			<path class="cls-20" d="M114.63,53.65V50.76h.69v2.72a1.24,1.24,0,0,0,1.29,1.41,1.38,1.38,0,0,0,1.4-1.46V50.76h.68v4.66H118v-.81a1.8,1.8,0,0,1-1.6.91A1.7,1.7,0,0,1,114.63,53.65Z" />
			<path class="cls-20" d="M120.25,50.76h.69V52a2,2,0,0,1,1.9-1.3v.75h-.06a1.88,1.88,0,0,0-1.84,2.13v1.86h-.69Z" />
			<path class="cls-20" d="M123.4,53.11v0a2.3,2.3,0,0,1,2.24-2.42,2.21,2.21,0,0,1,2.17,2.45,1.69,1.69,0,0,1,0,.23h-3.69a1.62,1.62,0,0,0,1.64,1.57,1.94,1.94,0,0,0,1.46-.65l.43.38a2.36,2.36,0,0,1-1.91.88A2.32,2.32,0,0,1,123.4,53.11Zm3.7-.27a1.53,1.53,0,0,0-1.48-1.59,1.61,1.61,0,0,0-1.51,1.59Z" />
			<path class="cls-20" d="M131.37,54.07v0c0-1,.81-1.5,2-1.5a4.83,4.83,0,0,1,1.43.2v-.17c0-.83-.51-1.27-1.39-1.27a3.19,3.19,0,0,0-1.41.35l-.21-.57a3.8,3.8,0,0,1,1.7-.39,2,2,0,0,1,1.5.51,1.83,1.83,0,0,1,.48,1.36v2.85h-.67v-.7a2,2,0,0,1-1.68.8A1.57,1.57,0,0,1,131.37,54.07Zm3.43-.36v-.45a4.8,4.8,0,0,0-1.37-.2c-.87,0-1.36.38-1.36,1v0c0,.59.54.93,1.17.93A1.41,1.41,0,0,0,134.8,53.71Z" />
			<path class="cls-20" d="M136.93,50.76h.7v.82a1.74,1.74,0,0,1,1.59-.91A1.7,1.7,0,0,1,141,52.53v2.89h-.69V52.7A1.24,1.24,0,0,0,139,51.3a1.36,1.36,0,0,0-1.39,1.45v2.67h-.7Z" />
			<path class="cls-20" d="M142.21,53.11v0a2.28,2.28,0,0,1,2.22-2.42,2.08,2.08,0,0,1,1.78,1V48.85h.69v6.57h-.69v-.94a2.1,2.1,0,0,1-1.78,1A2.26,2.26,0,0,1,142.21,53.11Zm4,0v0a1.73,1.73,0,0,0-1.68-1.79,1.63,1.63,0,0,0-1.64,1.79v0a1.68,1.68,0,0,0,1.64,1.8A1.74,1.74,0,0,0,146.24,53.1Z" />
			<path class="cls-20" d="M55,59.92h2.69a2.3,2.3,0,0,1,1.64.56,1.4,1.4,0,0,1,.41,1v0a1.52,1.52,0,0,1-1,1.46c.75.23,1.35.66,1.35,1.52v0c0,1.08-.91,1.72-2.29,1.72H55Zm4,1.66c0-.62-.5-1-1.4-1H55.73v2.17h1.86c.85,0,1.45-.39,1.45-1.13Zm-1.32,1.78h-2v2.22h2.11c1,0,1.55-.42,1.55-1.12v0C59.39,63.75,58.81,63.36,57.72,63.36Z" />
			<path class="cls-20" d="M61.4,61.57h.7v1.21a2,2,0,0,1,1.9-1.3v.75h-.06a1.88,1.88,0,0,0-1.84,2.14v1.85h-.7Z" />
			<path class="cls-20" d="M64.47,64.87v0c0-1,.81-1.5,2-1.5a4.78,4.78,0,0,1,1.43.2v-.17c0-.83-.51-1.27-1.38-1.27a3.27,3.27,0,0,0-1.42.35l-.2-.57a3.86,3.86,0,0,1,1.69-.39,2,2,0,0,1,1.5.52,1.8,1.8,0,0,1,.48,1.36v2.84h-.67v-.7a2,2,0,0,1-1.68.8A1.58,1.58,0,0,1,64.47,64.87Zm3.43-.36v-.45a4.8,4.8,0,0,0-1.37-.2c-.87,0-1.35.38-1.35,1v0c0,.59.54.93,1.17.93A1.4,1.4,0,0,0,67.9,64.51Z" />
			<path class="cls-20" d="M70,61.57h.69v.81a1.74,1.74,0,0,1,1.59-.91,1.69,1.69,0,0,1,1.78,1.86v2.89h-.69V63.5a1.24,1.24,0,0,0-1.29-1.4,1.36,1.36,0,0,0-1.39,1.45v2.67H70Z" />
			<path class="cls-20" d="M75.31,63.91v0a2.28,2.28,0,0,1,2.22-2.42,2.09,2.09,0,0,1,1.79,1V59.65H80v6.57h-.69v-.94a2.1,2.1,0,0,1-1.79,1A2.27,2.27,0,0,1,75.31,63.91Zm4,0v0a1.73,1.73,0,0,0-1.68-1.79A1.64,1.64,0,0,0,76,63.88v0a1.68,1.68,0,0,0,1.64,1.8A1.74,1.74,0,0,0,79.34,63.9Z" />
			<path class="cls-20" d="M86,60.58H83.92v-.66h5v.66H86.76v5.64H86Z" />
			<path class="cls-20" d="M89.94,59.65h.7v2.73a1.74,1.74,0,0,1,1.59-.91A1.7,1.7,0,0,1,94,63.33v2.89h-.69V63.5A1.24,1.24,0,0,0,92,62.1a1.36,1.36,0,0,0-1.39,1.45v2.67h-.7Z" />
			<path class="cls-20" d="M95.49,61.57h.69v1.21a2,2,0,0,1,1.9-1.3v.75H98a1.88,1.88,0,0,0-1.84,2.14v1.85h-.69Z" />
			<path class="cls-20" d="M98.65,63.92v0a2.43,2.43,0,0,1,4.85,0v0a2.42,2.42,0,0,1-2.44,2.43A2.38,2.38,0,0,1,98.65,63.92Zm4.14,0v0a1.76,1.76,0,0,0-1.73-1.82,1.72,1.72,0,0,0-1.7,1.8v0a1.75,1.75,0,0,0,1.72,1.81A1.72,1.72,0,0,0,102.79,63.92Z" />
			<path class="cls-20" d="M104.68,64.46V61.57h.69v2.71a1.24,1.24,0,0,0,1.29,1.41,1.37,1.37,0,0,0,1.39-1.46V61.57h.69v4.65h-.69v-.81a1.77,1.77,0,0,1-1.59.91A1.7,1.7,0,0,1,104.68,64.46Z" />
			<path class="cls-20" d="M110.24,67l.31-.54a3,3,0,0,0,1.8.59A1.53,1.53,0,0,0,114,65.43v-.55a2.22,2.22,0,0,1-1.83,1A2.15,2.15,0,0,1,110,63.68v0a2.16,2.16,0,0,1,2.19-2.19,2.2,2.2,0,0,1,1.82.93v-.83h.69v3.84a2.24,2.24,0,0,1-.59,1.65,2.49,2.49,0,0,1-1.78.62A3.66,3.66,0,0,1,110.24,67Zm3.82-3.36v0a1.63,1.63,0,0,0-1.71-1.57,1.54,1.54,0,0,0-1.62,1.56v0a1.58,1.58,0,0,0,1.62,1.59A1.64,1.64,0,0,0,114.06,63.67Z" />
			<path class="cls-20" d="M116.27,59.65H117v2.73a1.75,1.75,0,0,1,1.59-.91,1.7,1.7,0,0,1,1.79,1.86v2.89h-.7V63.5a1.23,1.23,0,0,0-1.28-1.4,1.37,1.37,0,0,0-1.4,1.45v2.67h-.69Z" />
			<path class="cls-20" d="M126.6,63.73,124,59.92h.87L127,63.07l2.14-3.15h.83l-2.62,3.8v2.5h-.72Z" />
			<path class="cls-20" d="M129.68,63.92v0a2.43,2.43,0,0,1,4.85,0v0a2.42,2.42,0,0,1-2.44,2.43A2.39,2.39,0,0,1,129.68,63.92Zm4.14,0v0a1.76,1.76,0,0,0-1.73-1.82,1.72,1.72,0,0,0-1.7,1.8v0a1.75,1.75,0,0,0,1.72,1.81A1.72,1.72,0,0,0,133.82,63.92Z" />
			<path class="cls-20" d="M135.71,64.46V61.57h.69v2.71a1.24,1.24,0,0,0,1.29,1.41,1.37,1.37,0,0,0,1.39-1.46V61.57h.69v4.65h-.69v-.81a1.77,1.77,0,0,1-1.59.91A1.7,1.7,0,0,1,135.71,64.46Z" />
			<path class="cls-20" d="M141.32,61.57h.7v1.21a2,2,0,0,1,1.9-1.3v.75h-.06A1.88,1.88,0,0,0,142,64.37v1.85h-.7Z" />
			<path class="cls-20" d="M54.74,73.89v0A3.2,3.2,0,0,1,58,70.61a3.15,3.15,0,0,1,3.2,3.24v0a3.22,3.22,0,1,1-6.43,0Zm5.69,0v0A2.5,2.5,0,0,0,58,71.27a2.48,2.48,0,0,0-2.47,2.58v0A2.51,2.51,0,0,0,58,76.47,2.47,2.47,0,0,0,60.43,73.89Z" />
			<path class="cls-20" d="M62.56,72.37h.69v1.21a2,2,0,0,1,1.9-1.3V73H65.1a1.88,1.88,0,0,0-1.85,2.14V77h-.69Z" />
			<path class="cls-20" d="M66,77.83l.31-.54a3,3,0,0,0,1.79.59,1.53,1.53,0,0,0,1.7-1.65v-.55a2.22,2.22,0,0,1-1.83,1,2.15,2.15,0,0,1-2.19-2.18v0a2.16,2.16,0,0,1,2.19-2.19,2.2,2.2,0,0,1,1.82.93v-.83h.69v3.84a2.24,2.24,0,0,1-.59,1.65,2.49,2.49,0,0,1-1.78.62A3.66,3.66,0,0,1,66,77.83Zm3.81-3.36v0a1.62,1.62,0,0,0-1.71-1.57,1.54,1.54,0,0,0-1.61,1.56v0a1.58,1.58,0,0,0,1.61,1.59A1.64,1.64,0,0,0,69.77,74.47Z" />
			<path class="cls-20" d="M71.64,75.67v0c0-1,.81-1.5,2-1.5a4.88,4.88,0,0,1,1.43.2v-.17c0-.83-.51-1.27-1.39-1.27a3.19,3.19,0,0,0-1.41.35l-.21-.57a3.9,3.9,0,0,1,1.69-.39,2,2,0,0,1,1.51.52,1.83,1.83,0,0,1,.48,1.35V77h-.67v-.7a2.07,2.07,0,0,1-1.69.8A1.57,1.57,0,0,1,71.64,75.67Zm3.43-.36v-.45a4.8,4.8,0,0,0-1.37-.2c-.87,0-1.36.38-1.36,1v0c0,.59.54.93,1.17.93A1.41,1.41,0,0,0,75.07,75.31Z" />
			<path class="cls-20" d="M77.2,72.37h.69v.81a1.76,1.76,0,0,1,1.6-.91,1.7,1.7,0,0,1,1.78,1.86V77h-.69V74.3a1.24,1.24,0,0,0-1.29-1.4,1.37,1.37,0,0,0-1.4,1.45V77H77.2Z" />
			<path class="cls-20" d="M82.76,70.58h.79v.77h-.79Zm0,1.79h.69V77h-.69Z" />
			<path class="cls-20" d="M84.84,76.58,87.93,73H85v-.58h3.92v.44l-3.09,3.62h3.09V77h-4Z" />
			<path class="cls-20" d="M89.76,75.67v0c0-1,.81-1.5,2-1.5a4.78,4.78,0,0,1,1.43.2v-.17c0-.83-.51-1.27-1.38-1.27a3.27,3.27,0,0,0-1.42.35l-.2-.57a3.86,3.86,0,0,1,1.69-.39,2,2,0,0,1,1.5.52,1.79,1.79,0,0,1,.48,1.35V77h-.67v-.7a2,2,0,0,1-1.68.8A1.58,1.58,0,0,1,89.76,75.67Zm3.43-.36v-.45a4.8,4.8,0,0,0-1.37-.2c-.87,0-1.36.38-1.36,1v0c0,.59.54.93,1.18.93A1.4,1.4,0,0,0,93.19,75.31Z" />
			<path class="cls-20" d="M95.52,75.79V73h-.64v-.61h.64V71h.7v1.41h1.47V73H96.22V75.7a.69.69,0,0,0,.78.77,1.47,1.47,0,0,0,.68-.16v.59a1.74,1.74,0,0,1-.84.2A1.19,1.19,0,0,1,95.52,75.79Z" />
			<path class="cls-20" d="M98.93,70.58h.8v.77h-.8Zm0,1.79h.69V77H99Z" />
			<path class="cls-20" d="M101,74.71h0a2.43,2.43,0,0,1,4.85,0v0a2.42,2.42,0,0,1-2.44,2.43A2.38,2.38,0,0,1,101,74.71Zm4.14,0h0a1.76,1.76,0,0,0-1.73-1.82,1.72,1.72,0,0,0-1.7,1.8v0a1.72,1.72,0,1,0,3.43,0Z" />
			<path class="cls-20" d="M107.1,72.37h.69v.81a1.75,1.75,0,0,1,1.59-.91,1.7,1.7,0,0,1,1.79,1.86V77h-.7V74.3a1.24,1.24,0,0,0-1.28-1.4,1.36,1.36,0,0,0-1.4,1.45V77h-.69Z" />
			<path class="cls-2" d="M42.58,109.67a6.2,6.2,0,1,0-6.19-6.2,6.21,6.21,0,0,0,6.19,6.2Z" />
			<path class="cls-2" d="M47.25,109a7.26,7.26,0,0,1-9.34,0A11.13,11.13,0,0,0,32,118.52H53.2a11.12,11.12,0,0,0-6-9.49Z" />
		</g></a>
		<a xlink:href="https://nwcua.org/inform-the-future-inspiring-tomorrows-leaders-today/" title="Inform the Future: Inspiring Tomorrow’s Leaders Today" target="_top"><g id="inform">
			<line class="cls-21" x1="132.85" y1="122.37" x2="132.85" y2="204.81" />
			<circle class="cls-22" cx="132.85" cy="207.02" r="4.47" />
			<polygon class="cls-23" points="171.41 125.68 81.21 125.68 91.51 88.7 181.76 88.7 171.41 125.68" />
			<path class="cls-2" d="M124.55,104.92a.66.66,0,0,0,.52-.79h0a.67.67,0,0,0-.79-.53l-1.22.25a.68.68,0,0,0-.53.8h0a.68.68,0,0,0,.8.52l1.22-.25Zm-.3-3.14a.66.66,0,0,0,.78-.54h0a.67.67,0,0,0-.54-.78l-1.22-.22a.67.67,0,0,0-.79.54h0a.67.67,0,0,0,.55.78l1.22.22Zm1.16-2.7a.68.68,0,0,0,1,0h0a.67.67,0,0,0-.06-1l-.93-.83a.68.68,0,0,0-1,0h0a.68.68,0,0,0,.06,1l.93.83Zm2.42-1.91a.68.68,0,0,0,.91.28h0a.68.68,0,0,0,.27-.92l-.59-1.09a.67.67,0,0,0-.91-.27h0a.67.67,0,0,0-.28.91l.6,1.09Zm12.23,8a.67.67,0,0,0,.79-.52h0a.68.68,0,0,0-.53-.8l-1.21-.25a.68.68,0,0,0-.8.53h0a.67.67,0,0,0,.53.79l1.22.25Zm.3-3.61a.67.67,0,0,0,.54-.78h0a.67.67,0,0,0-.78-.54l-1.23.22a.68.68,0,0,0-.54.78h0a.67.67,0,0,0,.78.54l1.23-.22Zm-1.46-3.31a.67.67,0,0,0,.06-1h0a.68.68,0,0,0-1,0l-.93.83a.67.67,0,0,0-.06,1h0a.68.68,0,0,0,.95,0l.93-.83Zm-2.75-2.17a.68.68,0,0,0-.27-.91h0a.68.68,0,0,0-.92.27l-.59,1.09a.68.68,0,0,0,.27.92h0a.67.67,0,0,0,.91-.28l.6-1.09ZM132.41,95a.67.67,0,0,0-.68-.67h0a.67.67,0,0,0-.67.67v1.24a.67.67,0,0,0,.67.68h0a.67.67,0,0,0,.68-.68V95Zm5.45,6.39c-.5-2-2.85-4.1-6.13-4.1s-5.62,2.13-6.12,4.1a5.92,5.92,0,0,0,.68,4.3c.65,1.25,1.33,2.28,1.88,3.56a13.46,13.46,0,0,1,.59,2.41c.13.59.36.79,1.07.79h.45v-7.23h-1.11a1.83,1.83,0,1,1,1.83-1.85h0v1.13h1.47v-1.13h0a1.83,1.83,0,0,1,1.84-1.81,1.83,1.83,0,1,1,0,3.66H133.2v7.23h.44c.71,0,.94-.2,1.07-.79a13.46,13.46,0,0,1,.59-2.41c.56-1.28,1.23-2.31,1.88-3.56a5.92,5.92,0,0,0,.68-4.3Zm-2.44,2a1.11,1.11,0,1,0-2.22,0v1.11h1.11a1.11,1.11,0,0,0,1.11-1.11Zm-6.25-1.11a1.11,1.11,0,1,0,0,2.22h1.11v-1.11a1.11,1.11,0,0,0-1.11-1.11Zm3.3,2.94H131v7.23h1.47v-7.23Zm2.37,8.45a.78.78,0,0,0-.77-.77H129.4a.78.78,0,0,0-.77.77h0a.77.77,0,0,0,.77.77h4.67a.77.77,0,0,0,.77-.77Zm0,2a.78.78,0,0,1-.77.77H129.4a.78.78,0,0,1-.77-.77h0a.77.77,0,0,1,.77-.77h4.67a.77.77,0,0,1,.77.77Z" />
			<path class="cls-22" d="M142.18,156.27h1.54v7h-1.54Z" />
			<path class="cls-22" d="M145.47,156.27h1.42l3.28,4.31v-4.31h1.52v7h-1.31L147,158.82v4.45h-1.52Z" />
			<path class="cls-22" d="M153.37,156.27h5.33v1.4h-3.79v1.49h3.34v1.4h-3.34v2.71h-1.54Z" />
			<path class="cls-22" d="M159.62,159.79v0a3.72,3.72,0,0,1,7.44,0v0a3.72,3.72,0,0,1-7.44,0Zm5.83,0v0a2.13,2.13,0,0,0-2.12-2.2,2.09,2.09,0,0,0-2.1,2.18v0a2.13,2.13,0,0,0,2.12,2.2A2.09,2.09,0,0,0,165.45,159.79Z" />
			<path class="cls-22" d="M168.43,156.27h3.2a2.79,2.79,0,0,1,2,.71,2.2,2.2,0,0,1,.6,1.6v0a2.17,2.17,0,0,1-1.5,2.17l1.71,2.5h-1.8l-1.5-2.24H170v2.24h-1.54Zm3.1,3.4c.75,0,1.18-.4,1.18-1v0c0-.66-.46-1-1.21-1H170v2Z" />
			<path class="cls-22" d="M175.66,156.27h1.66l1.84,3,1.84-3h1.66v7h-1.53V158.7l-2,3h0l-2-3v4.54h-1.51Z" />
			<path class="cls-22" d="M189,157.69h-2.13v-1.42h5.8v1.42h-2.13v5.58H189Z" />
			<path class="cls-22" d="M193.82,156.27h1.54V159h2.84v-2.77h1.54v7H198.2v-2.81h-2.84v2.81h-1.54Z" />
			<path class="cls-22" d="M201.42,156.27h5.28v1.37H203v1.42h3.3v1.37H203v1.47h3.8v1.37h-5.33Z" />
			<path class="cls-22" d="M142.11,168.27h5.33v1.4h-3.79v1.49H147v1.4h-3.34v2.71h-1.54Z" />
			<path class="cls-22" d="M148.56,172.27v-4h1.54v4c0,1.14.57,1.73,1.51,1.73s1.51-.57,1.51-1.68v-4h1.54v3.95a2.82,2.82,0,0,1-3.07,3.16A2.78,2.78,0,0,1,148.56,172.27Z" />
			<path class="cls-22" d="M157.86,169.69h-2.13v-1.42h5.8v1.42H159.4v5.58h-1.54Z" />
			<path class="cls-22" d="M162.6,172.27v-4h1.54v4c0,1.14.57,1.73,1.51,1.73s1.51-.57,1.51-1.68v-4h1.54v3.95a2.82,2.82,0,0,1-3.07,3.16A2.78,2.78,0,0,1,162.6,172.27Z" />
			<path class="cls-22" d="M170.27,168.27h3.2a2.79,2.79,0,0,1,2,.71,2.2,2.2,0,0,1,.6,1.6v0a2.17,2.17,0,0,1-1.5,2.17l1.71,2.5h-1.8L173,173h-1.21v2.24h-1.54Zm3.1,3.4c.75,0,1.18-.4,1.18-1v0c0-.66-.46-1-1.21-1h-1.53v2Z" />
			<path class="cls-22" d="M177.5,168.27h5.28v1.37H179v1.42h3.3v1.37H179v1.47h3.8v1.37H177.5Z" />
			<path class="cls-22" d="M184,169.91h1.62v1.6H184Zm0,3.76h1.62v1.6H184Z" />
			<path class="cls-22" d="M142.23,179.77h.71v6.3h-.71Z" />
			<path class="cls-22" d="M144.66,181.41h.7v.81a1.76,1.76,0,0,1,1.59-.91,1.7,1.7,0,0,1,1.78,1.87v2.89H148v-2.72a1.24,1.24,0,0,0-1.29-1.4,1.36,1.36,0,0,0-1.39,1.45v2.67h-.7Z" />
			<path class="cls-22" d="M149.82,185.47l.35-.49a2.73,2.73,0,0,0,1.61.59c.56,0,1-.28,1-.73v0c0-.47-.55-.65-1.16-.82s-1.54-.46-1.54-1.32h0a1.4,1.4,0,0,1,1.58-1.34,3.16,3.16,0,0,1,1.68.52l-.32.52a2.63,2.63,0,0,0-1.38-.45c-.55,0-.9.29-.9.67v0c0,.44.58.61,1.2.8s1.49.5,1.49,1.34h0a1.46,1.46,0,0,1-1.65,1.4A3.16,3.16,0,0,1,149.82,185.47Z" />
			<path class="cls-22" d="M154.69,181.41h.69v.94a2.1,2.1,0,0,1,1.79-1,2.28,2.28,0,0,1,2.22,2.42v0a2.28,2.28,0,0,1-2.22,2.42,2.11,2.11,0,0,1-1.79-1v2.33h-.69Zm4,2.34h0a1.68,1.68,0,0,0-1.64-1.8,1.74,1.74,0,0,0-1.68,1.79v0a1.73,1.73,0,0,0,1.68,1.8A1.65,1.65,0,0,0,158.68,183.75Z" />
			<path class="cls-22" d="M160.68,179.63h.8v.77h-.8Zm0,1.78h.69v4.66h-.69Z" />
			<path class="cls-22" d="M163,181.41h.7v1.22a2,2,0,0,1,1.9-1.3v.75h-.06a1.87,1.87,0,0,0-1.84,2.13v1.86H163Z" />
			<path class="cls-22" d="M166.7,179.63h.79v.77h-.79Zm0,1.78h.69v4.66h-.69Z" />
			<path class="cls-22" d="M169,181.41h.7v.81a1.76,1.76,0,0,1,1.59-.91,1.7,1.7,0,0,1,1.78,1.87v2.89h-.69v-2.72a1.24,1.24,0,0,0-1.29-1.4,1.36,1.36,0,0,0-1.39,1.45v2.67H169Z" />
			<path class="cls-22" d="M174.54,186.88l.31-.54a2.94,2.94,0,0,0,1.79.59,1.52,1.52,0,0,0,1.69-1.65v-.55a2.19,2.19,0,0,1-1.82,1,2.15,2.15,0,0,1-2.19-2.18v0a2.16,2.16,0,0,1,2.19-2.2,2.21,2.21,0,0,1,1.82.94v-.84H179v3.85a2.25,2.25,0,0,1-.6,1.65,2.45,2.45,0,0,1-1.77.62A3.66,3.66,0,0,1,174.54,186.88Zm3.81-3.36v0a1.63,1.63,0,0,0-1.71-1.57,1.54,1.54,0,0,0-1.61,1.56v0a1.58,1.58,0,0,0,1.61,1.59A1.64,1.64,0,0,0,178.35,183.52Z" />
			<path class="cls-22" d="M185.05,180.42h-2.12v-.65h4.95v.65h-2.11v5.65h-.72Z" />
			<path class="cls-22" d="M187.67,183.76h0a2.43,2.43,0,1,1,4.85,0v0a2.42,2.42,0,0,1-2.44,2.43A2.38,2.38,0,0,1,187.67,183.76Zm4.14,0h0a1.76,1.76,0,0,0-1.73-1.82,1.72,1.72,0,0,0-1.7,1.8v0a1.75,1.75,0,0,0,1.72,1.81A1.72,1.72,0,0,0,191.81,183.76Z" />
			<path class="cls-22" d="M193.77,181.41h.69v.79a1.71,1.71,0,0,1,1.5-.89,1.59,1.59,0,0,1,1.5.93,1.86,1.86,0,0,1,1.64-.93,1.68,1.68,0,0,1,1.73,1.88v2.88h-.7v-2.72c0-.9-.45-1.4-1.2-1.4a1.29,1.29,0,0,0-1.28,1.44v2.68H197v-2.74c0-.87-.45-1.38-1.19-1.38a1.35,1.35,0,0,0-1.3,1.46v2.66h-.69Z" />
			<path class="cls-22" d="M202,183.76h0a2.42,2.42,0,0,1,2.43-2.44,2.39,2.39,0,0,1,2.42,2.42v0a2.42,2.42,0,0,1-2.44,2.43A2.39,2.39,0,0,1,202,183.76Zm4.14,0h0a1.76,1.76,0,0,0-1.73-1.82,1.72,1.72,0,0,0-1.7,1.8v0a1.75,1.75,0,0,0,1.72,1.81A1.72,1.72,0,0,0,206.18,183.76Z" />
			<path class="cls-22" d="M208.14,181.41h.69v1.22a2,2,0,0,1,1.9-1.3v.75h0a1.88,1.88,0,0,0-1.85,2.13v1.86h-.69Z" />
			<path class="cls-22" d="M211.79,181.41h.69v1.22a2,2,0,0,1,1.9-1.3v.75h-.06a1.88,1.88,0,0,0-1.84,2.13v1.86h-.69Z" />
			<path class="cls-22" d="M214.94,183.76h0a2.43,2.43,0,0,1,4.86,0v0a2.42,2.42,0,0,1-2.44,2.43A2.39,2.39,0,0,1,214.94,183.76Zm4.14,0h0a1.76,1.76,0,0,0-1.72-1.82,1.72,1.72,0,0,0-1.7,1.8v0a1.74,1.74,0,0,0,1.71,1.81A1.72,1.72,0,0,0,219.08,183.76Z" />
			<path class="cls-22" d="M220.43,181.41h.73l1.23,3.74,1.25-3.75h.58l1.26,3.75,1.22-3.74h.72l-1.64,4.69h-.6l-1.25-3.67-1.26,3.67h-.61Z" />
			<path class="cls-22" d="M228.26,181.5c.45-.17.64-.4.6-.79h-.32v-.94h.82v.81a1.1,1.1,0,0,1-1,1.23Z" />
			<path class="cls-22" d="M230.15,185.47l.36-.49a2.69,2.69,0,0,0,1.61.59c.56,0,1-.28,1-.73v0c0-.47-.55-.65-1.16-.82s-1.54-.46-1.54-1.32h0a1.41,1.41,0,0,1,1.58-1.34,3.16,3.16,0,0,1,1.68.52l-.32.52a2.59,2.59,0,0,0-1.37-.45c-.55,0-.9.29-.9.67v0c0,.44.57.61,1.19.8s1.5.5,1.5,1.34h0c0,.89-.73,1.4-1.66,1.4A3.18,3.18,0,0,1,230.15,185.47Z" />
			<path class="cls-22" d="M142.16,190.57h.71v5.64h3.55v.66h-4.26Z" />
			<path class="cls-22" d="M147.24,194.56v0a2.29,2.29,0,0,1,2.23-2.42,2.21,2.21,0,0,1,2.17,2.45,1.69,1.69,0,0,1,0,.23h-3.69a1.62,1.62,0,0,0,1.64,1.57,2,2,0,0,0,1.47-.65l.43.38a2.39,2.39,0,0,1-1.92.88A2.31,2.31,0,0,1,147.24,194.56Zm3.7-.27a1.54,1.54,0,0,0-1.49-1.59,1.61,1.61,0,0,0-1.51,1.59Z" />
			<path class="cls-22" d="M152.5,195.52v0c0-1,.81-1.5,2-1.5a4.78,4.78,0,0,1,1.43.2V194c0-.83-.51-1.27-1.38-1.27a3.27,3.27,0,0,0-1.42.35l-.2-.57a3.76,3.76,0,0,1,1.69-.39,2,2,0,0,1,1.5.52,1.79,1.79,0,0,1,.48,1.35v2.85h-.67v-.7a2,2,0,0,1-1.68.8A1.58,1.58,0,0,1,152.5,195.52Zm3.43-.36v-.45a4.78,4.78,0,0,0-1.36-.2c-.88,0-1.36.38-1.36,1v0c0,.59.54.93,1.17.93A1.4,1.4,0,0,0,155.93,195.16Z" />
			<path class="cls-22" d="M157.8,194.56v0a2.28,2.28,0,0,1,2.22-2.42,2.08,2.08,0,0,1,1.78,1V190.3h.7v6.57h-.7v-.94a2.1,2.1,0,0,1-1.78,1A2.26,2.26,0,0,1,157.8,194.56Zm4,0v0a1.73,1.73,0,0,0-1.68-1.79,1.64,1.64,0,0,0-1.64,1.79v0a1.68,1.68,0,0,0,1.64,1.8A1.74,1.74,0,0,0,161.83,194.55Z" />
			<path class="cls-22" d="M163.75,194.56v0a2.3,2.3,0,0,1,2.24-2.42,2.21,2.21,0,0,1,2.17,2.45,1.69,1.69,0,0,1,0,.23h-3.69a1.61,1.61,0,0,0,1.63,1.57,2,2,0,0,0,1.47-.65l.43.38a2.36,2.36,0,0,1-1.91.88A2.32,2.32,0,0,1,163.75,194.56Zm3.7-.27A1.53,1.53,0,0,0,166,192.7a1.61,1.61,0,0,0-1.51,1.59Z" />
			<path class="cls-22" d="M169.37,192.21h.69v1.22a2,2,0,0,1,1.9-1.3v.75h-.05a1.88,1.88,0,0,0-1.85,2.13v1.86h-.69Z" />
			<path class="cls-22" d="M172.63,196.28l.35-.5a2.69,2.69,0,0,0,1.61.59c.56,0,1-.28,1-.73v0c0-.47-.55-.65-1.16-.82s-1.54-.46-1.54-1.32h0a1.42,1.42,0,0,1,1.59-1.34,3.16,3.16,0,0,1,1.67.52l-.31.52a2.65,2.65,0,0,0-1.38-.45c-.55,0-.9.29-.9.67v0c0,.44.57.61,1.2.8s1.49.5,1.49,1.34h0c0,.89-.73,1.4-1.66,1.4A3.21,3.21,0,0,1,172.63,196.28Z" />
			<path class="cls-22" d="M182,191.22h-2.12v-.65h4.95v.65H182.7v5.65H182Z" />
			<path class="cls-22" d="M184.6,194.56h0a2.43,2.43,0,0,1,4.85,0v0A2.42,2.42,0,0,1,187,197,2.38,2.38,0,0,1,184.6,194.56Zm4.14,0h0a1.76,1.76,0,0,0-1.73-1.82,1.72,1.72,0,0,0-1.7,1.8v0a1.75,1.75,0,0,0,1.72,1.81A1.72,1.72,0,0,0,188.74,194.56Z" />
			<path class="cls-22" d="M190.43,194.56v0a2.28,2.28,0,0,1,2.22-2.42,2.09,2.09,0,0,1,1.79,1V190.3h.69v6.57h-.69v-.94a2.1,2.1,0,0,1-1.79,1A2.27,2.27,0,0,1,190.43,194.56Zm4,0v0a1.73,1.73,0,0,0-1.68-1.79,1.64,1.64,0,0,0-1.64,1.79v0a1.69,1.69,0,0,0,1.64,1.8A1.74,1.74,0,0,0,194.46,194.55Z" />
			<path class="cls-22" d="M196.32,195.52v0c0-1,.81-1.5,2-1.5a4.78,4.78,0,0,1,1.43.2V194c0-.83-.51-1.27-1.38-1.27a3.27,3.27,0,0,0-1.42.35l-.2-.57a3.73,3.73,0,0,1,1.69-.39,2,2,0,0,1,1.5.52,1.79,1.79,0,0,1,.48,1.35v2.85h-.67v-.7a2,2,0,0,1-1.68.8A1.58,1.58,0,0,1,196.32,195.52Zm3.43-.36v-.45a4.8,4.8,0,0,0-1.37-.2c-.87,0-1.35.38-1.35,1v0c0,.59.54.93,1.17.93A1.4,1.4,0,0,0,199.75,195.16Z" />
			<path class="cls-22" d="M205.19,192.21h.74L204,197c-.39,1-.84,1.32-1.54,1.32a2,2,0,0,1-1-.24l.23-.55a1.41,1.41,0,0,0,.73.17c.41,0,.67-.21.95-.87l-2.11-4.64H202l1.7,3.88Z" />
		</g></a>
	</g>
</svg>
