<?xml version="1.0" encoding="utf-8"?>
<svg version="1.1" xmlns="http://www.w3.org/2000/svg" xmlns:xlink="http://www.w3.org/1999/xlink" viewBox="0 0 1410.77 437.33" xml:space="preserve">
	<defs>
		<style>
		.cls-1, .cls-3 { fill: #789c49; }
		.cls-1, .cls-10, .cls-11, .cls-16, .cls-19, .cls-20, .cls-5 { stroke: #fff; stroke-width: 2.19px; }
		.cls-1, .cls-10, .cls-11, .cls-12, .cls-14, .cls-16, .cls-17, .cls-19, .cls-2, .cls-20, .cls-21, .cls-5, .cls-6, .cls-8 { stroke-miterlimit: 10; }
		.cls-12, .cls-14, .cls-17, .cls-2, .cls-21, .cls-6, .cls-8 { fill: none; stroke-width: 4.09px; }
		.cls-2 { stroke: #789c49; }
		.cls-4 { fill: #fff; }
		.cls-5, .cls-7 { fill: #172b53; }
		.cls-6 { stroke: #172b53; }
		.cls-8 { stroke: #055481; }
		.cls-10, .cls-9 { fill: #055481; }
		.cls-11, .cls-13 { fill: #0092bb; }
		.cls-12 { stroke: #0092bb; }
		.cls-14 { stroke: #22958a; }
		.cls-15, .cls-16 { fill: #22958a; }
		.cls-17 { stroke: #98a344; }
		.cls-18, .cls-19 { fill: #98a344; }
		.cls-20, .cls-22 { fill: #eb8b23; }
		.cls-21 { stroke: #eb8b23; }
		#financial, #directors, #enterprise, #culture, #community, #operational, #inform { transition: opacity 400ms ease-in-out; opacity: 1; }
		#financial:hover, #directors:hover, #enterprise:hover, #culture:hover, #community:hover, #operational:hover, #inform:hover { opacity: .8; }
		</style>
	</defs>
	<g id="traxx">
		<a xlink:href="https://nwcua.org/community-impact-financial-health-leveraging-resource-for-financial-resilience/" title="https://nwcua.org/community-impact-financial-health-leveraging-resource-for-financial-resilience/" target="_top"><g id="community">
			<polygon class="cls-1" points="539.71 259.9 353.17 259.9 374.47 183.44 561.1 183.44 539.71 259.9" />
			<line class="cls-2" x1="458.59" y1="184.28" x2="458.59" y2="13.79" />
			<circle class="cls-3" cx="458.59" cy="9.24" r="9.24" />
			<path class="cls-3" d="M480.8,63.42v-.06a10.31,10.31,0,0,1,10.57-10.48,10.47,10.47,0,0,1,8,3.13l-2.84,3.27A7.45,7.45,0,0,0,491.34,57a6,6,0,0,0-5.88,6.31v0c0,3.48,2.41,6.37,5.88,6.37a7.35,7.35,0,0,0,5.33-2.37l2.83,2.86a10.34,10.34,0,0,1-8.3,3.62A10.23,10.23,0,0,1,480.8,63.42Z" />
			<path class="cls-3" d="M501.59,63.42v-.06a10.77,10.77,0,0,1,21.54,0v0a10.77,10.77,0,0,1-21.54.06Zm16.88,0v-.06A6.15,6.15,0,0,0,512.33,57a6.06,6.06,0,0,0-6.08,6.31v0a6.16,6.16,0,0,0,6.14,6.37A6.06,6.06,0,0,0,518.47,63.42Z" />
			<path class="cls-3" d="M527.1,53.23h4.8l5.33,8.57,5.32-8.57h4.81V73.49h-4.43V60.27l-5.7,8.65h-.12l-5.64-8.57V73.49H527.1Z" />
			<path class="cls-3" d="M552.23,53.23H557l5.33,8.57,5.32-8.57h4.81V73.49h-4.43V60.27l-5.7,8.65h-.12l-5.64-8.57V73.49h-4.37Z" />
			<path class="cls-3" d="M577,64.81V53.23h4.46V64.69c0,3.3,1.65,5,4.37,5s4.37-1.65,4.37-4.86V53.23h4.46V64.67c0,6.13-3.45,9.14-8.89,9.14S577,70.77,577,64.81Z" />
			<path class="cls-3" d="M599.24,53.23h4.11l9.5,12.48V53.23h4.4V73.49h-3.79l-9.82-12.88V73.49h-4.4Z" />
			<path class="cls-3" d="M622.32,53.23h4.46V73.49h-4.46Z" />
			<path class="cls-3" d="M636.56,57.34H630.4V53.23h16.78v4.11H641V73.49h-4.46Z" />
			<path class="cls-3" d="M656.3,65.5l-7.78-12.27h5.21l4.83,8.14,4.92-8.14h5.07l-7.79,12.19v8.07H656.3Z" />
			<path class="cls-3" d="M481.9,88h4.46v20.27H481.9Z" />
			<path class="cls-3" d="M491.43,88h4.8l5.33,8.57L506.89,88h4.8v20.27h-4.43V95l-5.7,8.65h-.12l-5.64-8.57v13.15h-4.37Z" />
			<path class="cls-3" d="M516.56,88h8.28c4.83,0,7.76,2.87,7.76,7V95c0,4.69-3.65,7.12-8.2,7.12H521v6.08h-4.46Zm8,10.22c2.23,0,3.53-1.33,3.53-3.07v-.06c0-2-1.39-3.06-3.62-3.06H521v6.19Z" />
			<path class="cls-3" d="M540.82,87.83h4.11l8.68,20.41H549l-1.85-4.55h-8.57l-1.85,4.55h-4.54Zm4.69,11.92-2.69-6.57-2.7,6.57Z" />
			<path class="cls-3" d="M554.54,98.16V98.1a10.3,10.3,0,0,1,10.57-10.47,10.46,10.46,0,0,1,8,3.12L570.26,94a7.45,7.45,0,0,0-5.18-2.28,6,6,0,0,0-5.88,6.31v0c0,3.48,2.41,6.37,5.88,6.37a7.31,7.31,0,0,0,5.33-2.37l2.83,2.86a10.34,10.34,0,0,1-8.3,3.62A10.23,10.23,0,0,1,554.54,98.16Z" />
			<path class="cls-3" d="M581.53,92.08h-6.17V88h16.79v4.11H586v16.16h-4.45Z" />
			<path class="cls-3" d="M615.54,106.27a9.12,9.12,0,0,1-5.93,2.25c-3.88,0-6.81-2.25-6.81-5.84v-.06c0-2.58,1.39-4.4,3.94-5.56a6.79,6.79,0,0,1-1.42-4V93c0-2.78,2.23-5.32,6.14-5.32,3.44,0,5.7,2.25,5.7,5.09v.06c0,2.72-1.74,4.31-4.25,5.3l2.69,2.69c.66-1,1.33-2.23,2-3.48l3.27,1.8a36.08,36.08,0,0,1-2.67,4.28l3,3-3.27,2.29Zm-2.49-2.55-3.88-3.94a3,3,0,0,0-1.88,2.67v0c0,1.42,1.19,2.38,2.84,2.38A4.83,4.83,0,0,0,613.05,103.72ZM613.28,93V93a1.78,1.78,0,0,0-1.91-1.88,1.91,1.91,0,0,0-2,2.05v.06a3.61,3.61,0,0,0,1.19,2.52C612.36,95.06,613.28,94.31,613.28,93Z" />
			<path class="cls-3" d="M481.7,122.71h15.43v4.06h-11v4.31h9.67v4h-9.67V143H481.7Z" />
			<path class="cls-3" d="M500.9,122.71h4.45V143H500.9Z" />
			<path class="cls-3" d="M510.42,122.71h4.11l9.5,12.48V122.71h4.4V143h-3.8l-9.81-12.88V143h-4.4Z" />
			<path class="cls-3" d="M540.24,122.57h4.11L553,143h-4.66l-1.85-4.55H538L536.1,143h-4.54Zm4.69,11.93-2.69-6.57-2.7,6.57Z" />
			<path class="cls-3" d="M556.16,122.71h4.11l9.5,12.48V122.71h4.4V143h-3.79l-9.82-12.88V143h-4.4Z" />
			<path class="cls-3" d="M578.14,132.9v-.05a10.3,10.3,0,0,1,10.56-10.48,10.46,10.46,0,0,1,8,3.12l-2.83,3.27a7.53,7.53,0,0,0-5.19-2.28,6,6,0,0,0-5.87,6.31v.06c0,3.47,2.4,6.36,5.87,6.36a7.3,7.3,0,0,0,5.33-2.37l2.84,2.87a10.39,10.39,0,0,1-8.31,3.61A10.23,10.23,0,0,1,578.14,132.9Z" />
			<path class="cls-3" d="M600.6,122.71h4.46V143H600.6Z" />
			<path class="cls-3" d="M617.08,122.57h4.11L629.87,143h-4.66l-1.85-4.55h-8.57L612.94,143h-4.55Zm4.68,11.93-2.69-6.57-2.69,6.57Z" />
			<path class="cls-3" d="M633,122.71h4.46v16.21h10.1V143H633Z" />
			<path class="cls-3" d="M659.61,122.71h4.45v8h8.22v-8h4.46V143h-4.46v-8.14h-8.22V143h-4.45Z" />
			<path class="cls-3" d="M681.61,122.71h15.28v4H686v4.11h9.55v4H686V139h11v4H681.61Z" />
			<path class="cls-3" d="M708,122.57h4.11L720.75,143h-4.66l-1.86-4.55h-8.56L703.81,143h-4.54Zm4.69,11.93L710,127.93l-2.69,6.57Z" />
			<path class="cls-3" d="M723.88,122.71h4.45v16.21h10.11V143H723.88Z" />
			<path class="cls-3" d="M743.62,126.83h-6.16v-4.12h16.78v4.12h-6.16V143h-4.46Z" />
			<path class="cls-3" d="M757.66,122.71h4.46v8h8.22v-8h4.46V143h-4.46v-8.14h-8.22V143h-4.46Z" />
			<path class="cls-4" d="M474.45,242.91a2,2,0,0,0-1.74-1.08,2.18,2.18,0,0,0-.52.07,7.79,7.79,0,0,0-7.86-2.11,5.69,5.69,0,0,0-7.33.33,7.07,7.07,0,0,0-5.48,2.84,4.62,4.62,0,0,0-.66-.06,4.3,4.3,0,0,0-4.29,4.3h30.6a3.06,3.06,0,0,0,.23-1.18,3.12,3.12,0,0,0-2.95-3.11Z" />
			<path class="cls-4" d="M482.18,193.09s-4.7,4.77-13.84,8.27c-9.49,3.76-9.28,12.63-5.24,19.84.78-5,5.66-11.2,10.4-14.12a.21.21,0,0,1,.28.09.22.22,0,0,1-.08.27,14.32,14.32,0,0,0-2.19,1.82,26.48,26.48,0,0,0-3.82,5,37.08,37.08,0,0,0-2.79,5.58c-.32.79-.53,1.4-.7,1.9l-.1.3h0a52.46,52.46,0,0,0-2.4,9.53,17,17,0,0,0-2.12-4.76l-.06-.1c-.15-.27-.33-.61-.6-1a22.08,22.08,0,0,0-2.18-3,15.22,15.22,0,0,0-2.72-2.49,8.55,8.55,0,0,0-1.45-.83.12.12,0,0,1-.07-.15.12.12,0,0,1,.15-.08c3,1.22,6.5,4.29,7.46,7.15a11.66,11.66,0,0,0,.65-2.29,7.34,7.34,0,0,0-5.7-8.7,24.56,24.56,0,0,1-8.86-3.4s.57,9.3,3.78,13.57a6.76,6.76,0,0,0,8.93,1.87,15.06,15.06,0,0,1,2.46,8.55c0,.83,0,1.67,0,2.55a4.94,4.94,0,0,1,.87.14c0-.21,0-.42,0-.63h0c0-.76,0-1.45,0-2.09a42.34,42.34,0,0,1,2.65-13.46,11.41,11.41,0,0,0,14.92-5.5c4.12-8.07,2.38-23.79,2.38-23.79Z" />
		</g></a>
		<a xlink:href="https://nwcua.org/directors-only-series-guiding-the-movement-into-tomorrow/" title="Directors’ Only Series: Guiding the Movement into Tomorrow" target="_top"><g id="directors">
			<polygon class="cls-5" points="1280.67 259.9 1094.13 259.9 1115.44 183.44 1302.07 183.44 1280.67 259.9" />
			<path class="cls-4" d="M1215.79,219.67l3.09-5-5,3.06a7.93,7.93,0,0,1,1.89,1.9Z" />
			<path class="cls-4" d="M1213.87,230.69l5,3.09-3.08-5a7.79,7.79,0,0,1-1.9,1.9Z" />
			<path class="cls-4" d="M1202.84,228.77l-3.08,5,5-3.06a8.16,8.16,0,0,1-1.9-1.9Z" />
			<path class="cls-4" d="M1204.76,217.75l-5-3.09,3.07,5a8.12,8.12,0,0,1,1.9-1.89Z" />
			<path class="cls-4" d="M1209.32,225.79a1.58,1.58,0,1,1,1.57-1.57,1.57,1.57,0,0,1-1.57,1.57Zm3.82-4.43a4.55,4.55,0,0,0-1-1l-2.84-12.15-2.89,12.14a4.75,4.75,0,0,0-1,1l-12.17,2.84,12.16,2.9a4.75,4.75,0,0,0,1,.95l2.83,12.15,2.9-12.14a4.75,4.75,0,0,0,1-.95l12.17-2.84-12.16-2.89Z" />
			<path class="cls-4" d="M1209.3,242.4a18.18,18.18,0,1,1,18.18-18.18,18.19,18.19,0,0,1-18.18,18.18Zm0-45a2.11,2.11,0,1,1-2.11,2.11,2.12,2.12,0,0,1,2.11-2.11Zm4.44,4.93a5.32,5.32,0,0,0,.82-2.82,5.26,5.26,0,1,0-9.69,2.82,22.37,22.37,0,1,0,8.87,0Z" />
			<line class="cls-6" x1="1198.52" y1="184.28" x2="1198.52" y2="13.79" />
			<circle class="cls-7" cx="1198.52" cy="9.24" r="9.24" />
			<path class="cls-7" d="M1217.09,53.23H1225c6.36,0,10.76,4.37,10.76,10.08v0c0,5.71-4.4,10.13-10.76,10.13h-7.91ZM1225,69.47a5.77,5.77,0,0,0,6.1-6v-.06a5.81,5.81,0,0,0-6.1-6.1h-3.45V69.47Z" />
			<path class="cls-7" d="M1239.94,53.23h4.45V73.49h-4.45Z" />
			<path class="cls-7" d="M1249.46,53.23h9.26a8.09,8.09,0,0,1,5.91,2.06,6.35,6.35,0,0,1,1.73,4.63V60a6.29,6.29,0,0,1-4.34,6.28l5,7.23h-5.21L1257.42,67h-3.5v6.48h-4.46Zm9,9.84c2.17,0,3.42-1.15,3.42-2.86v-.06c0-1.91-1.33-2.89-3.5-2.89h-4.43v5.81Z" />
			<path class="cls-7" d="M1270.39,53.23h15.29v4h-10.86v4.11h9.55v4h-9.55v4.26h11v4h-15.43Z" />
			<path class="cls-7" d="M1288.89,63.42v-.06a10.3,10.3,0,0,1,10.57-10.48,10.47,10.47,0,0,1,8,3.13l-2.84,3.27a7.47,7.47,0,0,0-5.18-2.28,6,6,0,0,0-5.88,6.31v0c0,3.48,2.4,6.37,5.88,6.37a7.33,7.33,0,0,0,5.32-2.37l2.84,2.86a10.35,10.35,0,0,1-8.31,3.62A10.23,10.23,0,0,1,1288.89,63.42Z" />
			<path class="cls-7" d="M1315.87,57.34h-6.16V53.23h16.79v4.11h-6.17V73.49h-4.46Z" />
			<path class="cls-7" d="M1328.15,63.42v-.06a10.77,10.77,0,0,1,21.54,0v0a10.77,10.77,0,0,1-21.54.06Zm16.88,0v-.06a6.15,6.15,0,0,0-6.14-6.36,6.06,6.06,0,0,0-6.08,6.31v0a6.16,6.16,0,0,0,6.14,6.37A6.06,6.06,0,0,0,1345,63.42Z" />
			<path class="cls-7" d="M1353.66,53.23h9.26a8.08,8.08,0,0,1,5.9,2.06,6.36,6.36,0,0,1,1.74,4.63V60a6.3,6.3,0,0,1-4.34,6.28l5,7.23H1366L1361.62,67h-3.51v6.48h-4.45Zm9,9.84c2.17,0,3.41-1.15,3.41-2.86v-.06c0-1.91-1.33-2.89-3.5-2.89h-4.43v5.81Z" />
			<path class="cls-7" d="M1373.05,60.73c2-.2,3-1.22,2.84-2.87h-1.79V53.23h4.68v3.91c0,3.82-1.91,5.35-5.35,5.41Z" />
			<path class="cls-7" d="M1381.48,70.54l2.63-3.15a9.35,9.35,0,0,0,6.05,2.46c1.83,0,2.93-.73,2.93-1.91v-.06c0-1.13-.7-1.71-4.09-2.58-4.08-1-6.71-2.17-6.71-6.19v-.06c0-3.68,3-6.11,7.09-6.11a11.76,11.76,0,0,1,7.53,2.58l-2.32,3.36a9.46,9.46,0,0,0-5.27-2c-1.71,0-2.6.78-2.6,1.76v.06c0,1.33.87,1.77,4.37,2.67,4.11,1.07,6.42,2.54,6.42,6.07v.06c0,4-3.06,6.28-7.44,6.28A12.89,12.89,0,0,1,1381.48,70.54Z" />
			<path class="cls-7" d="M1216.2,98.16V98.1a10.77,10.77,0,0,1,21.53,0v0a10.77,10.77,0,0,1-21.53.06Zm16.87,0V98.1a6.15,6.15,0,0,0-6.13-6.36,6.06,6.06,0,0,0-6.08,6.31v0a6.15,6.15,0,0,0,6.13,6.37A6.06,6.06,0,0,0,1233.07,98.16Z" />
			<path class="cls-7" d="M1241.7,88h4.11l9.5,12.48V88h4.4v20.27h-3.8l-9.81-12.89v12.89h-4.4Z" />
			<path class="cls-7" d="M1264.57,88H1269v16.21h10.1v4.06h-14.56Z" />
			<path class="cls-7" d="M1284.43,100.25,1276.65,88h5.21l4.83,8.14,4.92-8.14h5.07l-7.79,12.19v8.08h-4.46Z" />
			<path class="cls-7" d="M1306.75,105.28l2.64-3.15a9.31,9.31,0,0,0,6,2.46c1.82,0,2.92-.73,2.92-1.91v-.06c0-1.13-.69-1.71-4.08-2.58-4.08-1-6.72-2.17-6.72-6.19v-.06c0-3.67,3-6.11,7.1-6.11a11.71,11.71,0,0,1,7.52,2.58l-2.31,3.36a9.49,9.49,0,0,0-5.27-2c-1.71,0-2.61.78-2.61,1.77v0c0,1.34.87,1.77,4.37,2.67,4.11,1.07,6.43,2.54,6.43,6.08v0c0,4-3.07,6.28-7.44,6.28A12.92,12.92,0,0,1,1306.75,105.28Z" />
			<path class="cls-7" d="M1326.67,88H1342v4H1331.1v4.11h9.55v4h-9.55v4.26h11v4h-15.43Z" />
			<path class="cls-7" d="M1346.07,88h9.26a8.1,8.1,0,0,1,5.91,2.06,6.39,6.39,0,0,1,1.73,4.63v.06a6.29,6.29,0,0,1-4.34,6.28l4.95,7.24h-5.21l-4.34-6.49h-3.5v6.49h-4.46Zm9,9.84c2.17,0,3.42-1.15,3.42-2.86v-.06c0-1.91-1.33-2.89-3.51-2.89h-4.42v5.81Z" />
			<path class="cls-7" d="M1367.2,88h4.46v20.27h-4.46Z" />
			<path class="cls-7" d="M1376.73,88H1392v4h-10.85v4.11h9.55v4h-9.55v4.26h11v4h-15.43Z" />
			<path class="cls-7" d="M1394.74,105.28l2.63-3.15a9.31,9.31,0,0,0,6.05,2.46c1.82,0,2.92-.73,2.92-1.91v-.06c0-1.13-.69-1.71-4.08-2.58-4.08-1-6.71-2.17-6.71-6.19v-.06c0-3.67,3-6.11,7.09-6.11a11.71,11.71,0,0,1,7.52,2.58l-2.31,3.36a9.49,9.49,0,0,0-5.27-2c-1.71,0-2.6.78-2.6,1.77v0c0,1.34.86,1.77,4.37,2.67,4.11,1.07,6.42,2.54,6.42,6.08v0c0,4-3.07,6.28-7.44,6.28A12.87,12.87,0,0,1,1394.74,105.28Z" />
		</g></a>
		<a xlink:href="https://nwcua.org/enterprise-risk-management-its-more-than-just-compliance-taking-risk-to-create-member-value/" title="Enterprise Risk Management: It’s More than Just Compliance! Taking Risk to Create Member Value" target="_top"><g id="enterprise">
			<line class="cls-8" x1="1014.65" y1="253.05" x2="1014.65" y2="423.55" />
			<circle class="cls-9" cx="1014.65" cy="428.1" r="9.24" />
			<polygon class="cls-10" points="1095.43 259.9 908.89 259.9 930.2 183.44 1116.83 183.44 1095.43 259.9" />
			<path class="cls-9" d="M1032.76,323.41H1048v4h-10.85v4.11h9.55v4h-9.55v4.25h11v4h-15.43Z" />
			<path class="cls-9" d="M1052.16,323.41h4.11l9.49,12.47V323.41h4.4v20.26h-3.79l-9.81-12.88v12.88h-4.4Z" />
			<path class="cls-9" d="M1079.74,327.52h-6.16v-4.11h16.79v4.11h-6.17v16.15h-4.46Z" />
			<path class="cls-9" d="M1093.79,323.41h15.28v4h-10.85v4.11h9.55v4h-9.55v4.25h11v4h-15.42Z" />
			<path class="cls-9" d="M1113.18,323.41h9.27a8.07,8.07,0,0,1,5.9,2,6.36,6.36,0,0,1,1.74,4.63v.06a6.29,6.29,0,0,1-4.34,6.28l5,7.24h-5.21l-4.35-6.49h-3.5v6.49h-4.46Zm9,9.84c2.17,0,3.41-1.16,3.41-2.87v-.06c0-1.91-1.33-2.89-3.5-2.89h-4.43v5.82Z" />
			<path class="cls-9" d="M1134.12,323.41h8.27c4.84,0,7.76,2.86,7.76,7v.06c0,4.69-3.65,7.12-8.19,7.12h-3.39v6.08h-4.45Zm8,10.21c2.22,0,3.53-1.33,3.53-3.06v-.06c0-2-1.39-3.07-3.62-3.07h-3.45v6.19Z" />
			<path class="cls-9" d="M1153.46,323.41h9.26a8.07,8.07,0,0,1,5.9,2,6.36,6.36,0,0,1,1.74,4.63v.06a6.29,6.29,0,0,1-4.34,6.28l5,7.24h-5.21l-4.34-6.49h-3.51v6.49h-4.45Zm9,9.84c2.17,0,3.41-1.16,3.41-2.87v-.06c0-1.91-1.33-2.89-3.5-2.89h-4.43v5.82Z" />
			<path class="cls-9" d="M1174.59,323.41h4.46v20.26h-4.46Z" />
			<path class="cls-9" d="M1182.73,340.72l2.63-3.16a9.25,9.25,0,0,0,6.05,2.46c1.82,0,2.92-.72,2.92-1.91v-.06c0-1.13-.69-1.7-4.08-2.57-4.08-1.05-6.71-2.17-6.71-6.2v0c0-3.68,3-6.11,7.09-6.11a11.7,11.7,0,0,1,7.52,2.57l-2.31,3.36a9.56,9.56,0,0,0-5.27-2c-1.71,0-2.61.79-2.61,1.77v.06c0,1.33.87,1.76,4.38,2.66,4.11,1.07,6.42,2.55,6.42,6.08v.06c0,4-3.07,6.28-7.44,6.28A12.87,12.87,0,0,1,1182.73,340.72Z" />
			<path class="cls-9" d="M1202.64,323.41h15.29v4h-10.86v4.11h9.55v4h-9.55v4.25h11v4h-15.43Z" />
			<path class="cls-9" d="M1032.76,358.15H1042a8.1,8.1,0,0,1,5.91,2.05,6.39,6.39,0,0,1,1.73,4.63v.06a6.28,6.28,0,0,1-4.34,6.28l5,7.24h-5.21l-4.34-6.48h-3.5v6.48h-4.46Zm9,9.84c2.17,0,3.42-1.16,3.42-2.87v-.05c0-1.91-1.33-2.9-3.51-2.9h-4.42V368Z" />
			<path class="cls-9" d="M1053.89,358.15h4.46v20.26h-4.46Z" />
			<path class="cls-9" d="M1062,375.46l2.63-3.16a9.3,9.3,0,0,0,6,2.46c1.83,0,2.93-.72,2.93-1.91v-.06c0-1.12-.7-1.7-4.09-2.57-4.08-1-6.71-2.17-6.71-6.2v0c0-3.68,3-6.11,7.09-6.11a11.75,11.75,0,0,1,7.53,2.57l-2.32,3.36a9.52,9.52,0,0,0-5.27-2c-1.71,0-2.6.78-2.6,1.76v.06c0,1.33.87,1.76,4.37,2.66,4.11,1.07,6.42,2.55,6.42,6.08v.06c0,4-3.06,6.28-7.44,6.28A12.89,12.89,0,0,1,1062,375.46Z" />
			<path class="cls-9" d="M1082,358.15h4.45V367l8.22-8.86H1100l-8.25,8.6,8.62,11.66H1095l-6.28-8.63-2.35,2.44v6.19H1082Z" />
			<path class="cls-9" d="M1111.76,358.15h4.81l5.33,8.57,5.32-8.57H1132v20.26h-4.43V365.18l-5.7,8.66h-.12l-5.64-8.57v13.14h-4.38Z" />
			<path class="cls-9" d="M1143.84,358H1148l8.69,20.41H1152l-1.86-4.54h-8.57l-1.85,4.54h-4.54Zm4.69,11.93-2.69-6.57-2.69,6.57Z" />
			<path class="cls-9" d="M1159.77,358.15h4.11l9.49,12.47V358.15h4.4v20.26H1174l-9.82-12.88v12.88h-4.39Z" />
			<path class="cls-9" d="M1189.58,358h4.11l8.69,20.41h-4.66l-1.86-4.54h-8.56l-1.86,4.54h-4.54Zm4.69,11.93-2.69-6.57-2.69,6.57Z" />
			<path class="cls-9" d="M1203.31,368.34v-.06a10.4,10.4,0,0,1,10.62-10.48,11.09,11.09,0,0,1,8,2.78l-2.81,3.39a7.42,7.42,0,0,0-5.29-2.06,6.08,6.08,0,0,0-5.82,6.31v.06a6.06,6.06,0,0,0,6.13,6.42,7.11,7.11,0,0,0,4.2-1.21v-2.9h-4.49v-3.84h8.8v8.79a13.12,13.12,0,0,1-8.65,3.22C1207.65,378.76,1203.31,374.33,1203.31,368.34Z" />
			<path class="cls-9" d="M1226.9,358.15h15.29v4h-10.86v4.11h9.55v4h-9.55v4.25h11v4H1226.9Z" />
			<path class="cls-9" d="M1246.3,358.15h4.8l5.33,8.57,5.33-8.57h4.8v20.26h-4.43V365.18l-5.7,8.66h-.12l-5.64-8.57v13.14h-4.37Z" />
			<path class="cls-9" d="M1271.43,358.15h15.28v4h-10.85v4.11h9.55v4h-9.55v4.25h11v4h-15.43Z" />
			<path class="cls-9" d="M1290.83,358.15h4.11l9.49,12.47V358.15h4.4v20.26H1305l-9.81-12.88v12.88h-4.4Z" />
			<path class="cls-9" d="M1318.42,362.26h-6.17v-4.11H1329v4.11h-6.17v16.15h-4.45Z" />
			<path class="cls-10" d="M1018.51,193.44h-.63c-2.1,2.38-9.48,9.37-23,8.16,2.67,37.39,23.48,45.26,23.48,45.26h0s20.48-7.87,23.15-45.26c-13.52,1.21-20.9-5.78-23-8.16Z" />
			<path class="cls-4" d="M1018.36,247.7l-.28-.1c-.87-.33-21.31-8.48-24-45.94l-.06-.93.92.09c13.24,1.16,20.44-5.75,22.34-7.9l.24-.27h1.34l.23.27c1.9,2.15,9.13,9.07,22.34,7.9l.93-.09-.07.93c-2.68,37.45-22.8,45.61-23.66,45.93l-.28.11Zm-22.62-45.24c2.69,33.34,20.17,42.42,22.62,43.54,2.41-1.13,19.62-10.29,22.3-43.54-12.84.8-20.13-5.67-22.46-8.19-2.33,2.52-9.63,9-22.46,8.19Z" />
			<path class="cls-4" d="M1006.51,218.3a11.9,11.9,0,1,1,11.9,11.9,11.9,11.9,0,0,1-11.9-11.9Z" />
			<path class="cls-4" d="M1018.41,231a12.7,12.7,0,1,1,12.69-12.69A12.71,12.71,0,0,1,1018.41,231Zm0-23.81a11.12,11.12,0,1,0,11.11,11.12,11.13,11.13,0,0,0-11.11-11.12Z" />
			<path class="cls-4" d="M1018.37,230.65a12.28,12.28,0,1,1,12.27-12.28,12.3,12.3,0,0,1-12.27,12.28Z" />
			<path class="cls-4" d="M1018.37,231.44a13.07,13.07,0,1,1,13.06-13.07,13.08,13.08,0,0,1-13.06,13.07Zm0-24.55a11.49,11.49,0,1,0,11.48,11.48,11.5,11.5,0,0,0-11.48-11.48Z" />
			<path class="cls-9" d="M1017.24,223.53a1.67,1.67,0,0,1-1.17-.48l-3.21-3.11a1.67,1.67,0,1,1,2.32-2.4l1.9,1.84,4.18-5.21a1.67,1.67,0,1,1,2.61,2.1l-5.33,6.63a1.65,1.65,0,0,1-1.2.62Z" />
		</g></a>
		<a xlink:href="https://nwcua.org/inform-the-future-inspiring-tomorrows-leaders-today/" title="Inform the Future: Inspiring Tomorrow’s Leaders Today" target="_top"><g id="inform">
			<polygon class="cls-11" points="910.19 259.9 723.65 259.9 744.96 183.44 931.58 183.44 910.19 259.9" />
			<path class="cls-4" d="M817.27,219.34a1.39,1.39,0,0,0,1.09-1.64h0a1.4,1.4,0,0,0-1.64-1.09l-2.53.52a1.38,1.38,0,0,0-1.08,1.64h0a1.38,1.38,0,0,0,1.64,1.08l2.52-.51Zm-.61-6.49a1.39,1.39,0,0,0,1.62-1.12h0a1.39,1.39,0,0,0-1.12-1.62l-2.53-.46a1.4,1.4,0,0,0-1.62,1.13h0a1.38,1.38,0,0,0,1.12,1.61l2.53.46Zm2.4-5.59a1.39,1.39,0,0,0,2-.11h0a1.4,1.4,0,0,0-.11-2L819,203.47a1.38,1.38,0,0,0-2,.12h0a1.39,1.39,0,0,0,.11,2l1.93,1.71Zm5-3.94a1.38,1.38,0,0,0,1.88.56h0a1.4,1.4,0,0,0,.57-1.89l-1.23-2.26a1.39,1.39,0,0,0-1.89-.56h0a1.38,1.38,0,0,0-.56,1.88l1.23,2.27Zm25.29,16.53a1.39,1.39,0,0,0,1.64-1.08h0a1.39,1.39,0,0,0-1.09-1.64l-2.52-.52a1.39,1.39,0,0,0-1.64,1.09h0a1.38,1.38,0,0,0,1.08,1.64l2.53.51Zm.62-7.46a1.39,1.39,0,0,0,1.12-1.61h0a1.4,1.4,0,0,0-1.62-1.13l-2.53.46a1.4,1.4,0,0,0-1.13,1.62h0a1.39,1.39,0,0,0,1.62,1.12l2.54-.46Zm-3-6.84a1.38,1.38,0,0,0,.12-2h0a1.39,1.39,0,0,0-2-.12l-1.92,1.71a1.39,1.39,0,0,0-.12,2h0a1.4,1.4,0,0,0,2,.11l1.92-1.71Zm-5.7-4.5a1.38,1.38,0,0,0-.56-1.88h0a1.39,1.39,0,0,0-1.89.56L837.59,202a1.39,1.39,0,0,0,.56,1.89h0a1.38,1.38,0,0,0,1.88-.56l1.23-2.27Zm-7.73-2.27a1.39,1.39,0,0,0-1.39-1.39h0a1.39,1.39,0,0,0-1.39,1.39v2.57a1.39,1.39,0,0,0,1.39,1.39h0a1.39,1.39,0,0,0,1.39-1.39v-2.57ZM844.81,212c-1-4.07-5.9-8.47-12.67-8.48s-11.64,4.41-12.67,8.48a12.3,12.3,0,0,0,1.41,8.9c1.34,2.59,2.74,4.71,3.89,7.36a29.31,29.31,0,0,1,1.22,5c.27,1.21.73,1.62,2.21,1.63h.92V219.94h-2.3a3.79,3.79,0,1,1,0-7.58,3.8,3.8,0,0,1,3.8,3.74h0v2.35h3V216.1h0a3.8,3.8,0,1,1,3.79,3.84h-2.29v14.94h.92c1.47,0,1.94-.42,2.21-1.63a29.28,29.28,0,0,1,1.21-5c1.16-2.65,2.55-4.77,3.9-7.36a12.3,12.3,0,0,0,1.41-8.9Zm-5.06,4.16a2.3,2.3,0,1,0-4.59,0v2.3h2.29a2.3,2.3,0,0,0,2.3-2.3Zm-12.93-2.3a2.3,2.3,0,0,0,0,4.6h2.3v-2.3a2.31,2.31,0,0,0-2.3-2.3Zm6.84,6.09h-3v14.94h3V219.94Zm4.9,17.48a1.6,1.6,0,0,0-1.6-1.6h-9.65a1.6,1.6,0,0,0-1.59,1.6h0a1.59,1.59,0,0,0,1.59,1.59H837a1.6,1.6,0,0,0,1.6-1.59Zm0,4.16a1.6,1.6,0,0,1-1.6,1.59h-9.65a1.59,1.59,0,0,1-1.59-1.59h0a1.59,1.59,0,0,1,1.59-1.59H837a1.6,1.6,0,0,1,1.6,1.59Z" />
			<line class="cls-12" x1="825.21" y1="184.28" x2="825.21" y2="13.79" />
			<circle class="cls-13" cx="825.21" cy="9.24" r="9.24" />
			<path class="cls-13" d="M847.53,53.23H852V73.49h-4.46Z" />
			<path class="cls-13" d="M857.06,53.23h4.11l9.49,12.48V53.23h4.4V73.49h-3.79l-9.82-12.88V73.49h-4.39Z" />
			<path class="cls-13" d="M879.93,53.23h15.42v4.05h-11V61.6h9.67v4.05h-9.67v7.84h-4.45Z" />
			<path class="cls-13" d="M898,63.42v-.06a10.77,10.77,0,0,1,21.54,0v0a10.77,10.77,0,0,1-21.54.06Zm16.88,0v-.06A6.15,6.15,0,0,0,908.76,57a6.06,6.06,0,0,0-6.08,6.31v0a6.16,6.16,0,0,0,6.14,6.37A6.06,6.06,0,0,0,914.9,63.42Z" />
			<path class="cls-13" d="M923.53,53.23h9.26a8.06,8.06,0,0,1,5.9,2.06,6.36,6.36,0,0,1,1.74,4.63V60a6.29,6.29,0,0,1-4.34,6.28L941,73.49h-5.21L931.49,67H928v6.48h-4.45Zm9,9.84c2.17,0,3.42-1.15,3.42-2.86v-.06c0-1.91-1.34-2.89-3.51-2.89H928v5.81Z" />
			<path class="cls-13" d="M944.46,53.23h4.8l5.33,8.57,5.33-8.57h4.8V73.49h-4.43V60.27l-5.7,8.65h-.12l-5.64-8.57V73.49h-4.37Z" />
			<path class="cls-13" d="M852.05,92.08h-6.17V88h16.79v4.11H856.5v16.16h-4.45Z" />
			<path class="cls-13" d="M866.09,88h4.45v8h8.23V88h4.45v20.27h-4.45V100.1h-8.23v8.14h-4.45Z" />
			<path class="cls-13" d="M888.09,88h15.28v4H892.52v4.11h9.55v4h-9.55v4.26h11v4H888.09Z" />
			<path class="cls-13" d="M916.17,88H931.6V92h-11v4.31h9.67v4h-9.67v7.85h-4.46Z" />
			<path class="cls-13" d="M934.85,99.55V88h4.45V99.44c0,3.3,1.65,5,4.37,5s4.38-1.65,4.38-4.86V88h4.45V99.41c0,6.13-3.44,9.14-8.88,9.14S934.85,105.51,934.85,99.55Z" />
			<path class="cls-13" d="M961.77,92.08H955.6V88h16.79v4.11h-6.16v16.16h-4.46Z" />
			<path class="cls-13" d="M975.49,99.55V88H980V99.44c0,3.3,1.65,5,4.37,5s4.37-1.65,4.37-4.86V88h4.46V99.41c0,6.13-3.45,9.14-8.89,9.14S975.49,105.51,975.49,99.55Z" />
			<path class="cls-13" d="M997.7,88H1007a8.06,8.06,0,0,1,5.9,2.06,6.36,6.36,0,0,1,1.74,4.63v.06a6.29,6.29,0,0,1-4.34,6.28l5,7.24H1010l-4.34-6.49h-3.51v6.49H997.7Zm9,9.84c2.17,0,3.42-1.15,3.42-2.86v-.06c0-1.91-1.33-2.89-3.51-2.89h-4.43v5.81Z" />
			<path class="cls-13" d="M1018.63,88h15.28v4h-10.85v4.11h9.55v4h-9.55v4.26h11v4h-15.43Z" />
		</g></a>
		<a xlink:href="https://nwcua.org/operational-innovation-maintaining-high-touch-engagement-in-a-digital-environment/" title="Operational Innovation: Maintaining High-Touch Engagement in a Digital Environment" target="_top"><g id="operational">
			<line class="cls-14" x1="641.34" y1="253.05" x2="641.34" y2="423.55" />
			<circle class="cls-15" cx="641.34" cy="428.1" r="9.24" />
			<polygon class="cls-16" points="724.95 259.9 538.41 259.9 559.71 183.44 746.34 183.44 724.95 259.9" />
			<path class="cls-4" d="M645,211.59,640.18,217a2.09,2.09,0,1,0,3.12,2.78l9.45-10.6a2.09,2.09,0,0,0-.92-3.39l-13-4.17a2.09,2.09,0,1,0-1.28,4l6.14,2a27.49,27.49,0,0,0-18.31,20.28,8,8,0,0,0-3.6,2.07,8,8,0,1,0,7.87-2A23.16,23.16,0,0,1,645,211.59Zm-13.69,24a3.83,3.83,0,1,1-3.83-3.82A3.8,3.8,0,0,1,631.32,235.61Z" />
			<polygon class="cls-4" points="653.29 227.06 650.37 224.06 645.71 228.61 641.16 223.95 638.17 226.87 642.72 231.53 638.06 236.08 640.98 239.07 645.64 234.52 650.18 239.18 653.18 236.26 648.63 231.6 653.29 227.06" />
			<polygon class="cls-4" points="625.77 219.19 628.77 216.26 624.22 211.61 628.88 207.06 625.96 204.07 621.3 208.61 616.75 203.95 613.76 206.88 618.31 211.53 613.65 216.08 616.57 219.08 621.23 214.53 625.77 219.19" />
			<path class="cls-4" d="M662.16,201.69a3.76,3.76,0,0,0-2.7,1.12,3.81,3.81,0,0,0,0,5.4,3.92,3.92,0,0,0,5.4,0,3.76,3.76,0,0,0,1.12-2.7,3.82,3.82,0,0,0-3.82-3.82Zm0,11.82a8,8,0,1,1,5.66-2.34,8,8,0,0,1-5.66,2.34Z" />
			<path class="cls-15" d="M663.62,333.6v-.06a10.77,10.77,0,0,1,21.54-.06v.06a10.77,10.77,0,0,1-21.54.06Zm16.88,0v-.06a6.16,6.16,0,0,0-6.14-6.37,6.06,6.06,0,0,0-6.08,6.31v.06a6.16,6.16,0,0,0,6.14,6.37A6.06,6.06,0,0,0,680.5,333.6Z" />
			<path class="cls-15" d="M689.13,323.41h8.28c4.83,0,7.76,2.86,7.76,7v.06c0,4.69-3.65,7.12-8.2,7.12h-3.38v6.08h-4.46Zm8,10.21c2.23,0,3.53-1.33,3.53-3.06v-.06c0-2-1.39-3.07-3.62-3.07h-3.44v6.19Z" />
			<path class="cls-15" d="M708.47,323.41h15.28v4H712.9v4.11h9.55v4H712.9v4.25h11v4H708.47Z" />
			<path class="cls-15" d="M727.87,323.41h9.26a8.06,8.06,0,0,1,5.9,2,6.36,6.36,0,0,1,1.74,4.63v.06a6.28,6.28,0,0,1-4.34,6.28l5,7.24h-5.21l-4.34-6.49h-3.51v6.49h-4.45Zm9,9.84c2.17,0,3.42-1.16,3.42-2.87v-.06c0-1.91-1.33-2.89-3.51-2.89h-4.43v5.82Z" />
			<path class="cls-15" d="M755.75,323.26h4.11l8.68,20.41h-4.66L762,339.12h-8.57l-1.85,4.55h-4.55Zm4.69,11.93-2.7-6.57-2.69,6.57Z" />
			<path class="cls-15" d="M773.78,327.52h-6.16v-4.11h16.79v4.11h-6.17v16.15h-4.46Z" />
			<path class="cls-15" d="M788,323.41h4.45v20.26H788Z" />
			<path class="cls-15" d="M796.65,333.6v-.06a10.77,10.77,0,0,1,21.54-.06v.06a10.77,10.77,0,0,1-21.54.06Zm16.88,0v-.06a6.16,6.16,0,0,0-6.14-6.37,6.05,6.05,0,0,0-6.07,6.31v.06a6.15,6.15,0,0,0,6.13,6.37A6.06,6.06,0,0,0,813.53,333.6Z" />
			<path class="cls-15" d="M822.16,323.41h4.11l9.5,12.47V323.41h4.39v20.26h-3.79l-9.81-12.88v12.88h-4.4Z" />
			<path class="cls-15" d="M852,323.26h4.11l8.68,20.41h-4.66l-1.85-4.55h-8.57l-1.85,4.55h-4.55Zm4.69,11.93L854,328.62l-2.7,6.57Z" />
			<path class="cls-15" d="M867.9,323.41h4.46v16.21h10.1v4.05H867.9Z" />
			<path class="cls-15" d="M664.72,358.15h4.46v20.26h-4.46Z" />
			<path class="cls-15" d="M674.25,358.15h4.11l9.49,12.47V358.15h4.4v20.26h-3.79l-9.81-12.88v12.88h-4.4Z" />
			<path class="cls-15" d="M697.12,358.15h4.11l9.5,12.47V358.15h4.39v20.26h-3.79l-9.81-12.88v12.88h-4.4Z" />
			<path class="cls-15" d="M719.09,368.34v-.06a10.77,10.77,0,0,1,21.54-.06v.06a10.77,10.77,0,0,1-21.54.06Zm16.88,0v-.06a6.16,6.16,0,0,0-6.14-6.37,6.06,6.06,0,0,0-6.08,6.31v.06a6.16,6.16,0,0,0,6.14,6.37A6.06,6.06,0,0,0,736,368.34Z" />
			<path class="cls-15" d="M741.56,358.15h4.92l5.3,14.27,5.3-14.27h4.8l-8.19,20.4h-3.94Z" />
			<path class="cls-15" d="M769.06,358h4.11l8.69,20.41H777.2l-1.85-4.54h-8.57l-1.86,4.54h-4.54Zm4.69,11.93-2.69-6.57-2.69,6.57Z" />
			<path class="cls-15" d="M787.1,362.26h-6.16v-4.11h16.78v4.11h-6.16v16.15H787.1Z" />
			<path class="cls-15" d="M801.34,358.15h4.46v20.26h-4.46Z" />
			<path class="cls-15" d="M810,368.34v-.06a10.77,10.77,0,0,1,21.54-.06v.06a10.77,10.77,0,0,1-21.54.06Zm16.88,0v-.06a6.16,6.16,0,0,0-6.14-6.37,6.06,6.06,0,0,0-6.08,6.31v.06a6.16,6.16,0,0,0,6.14,6.37A6.06,6.06,0,0,0,826.85,368.34Z" />
			<path class="cls-15" d="M835.48,358.15h4.11l9.49,12.47V358.15h4.4v20.26h-3.79l-9.81-12.88v12.88h-4.4Z" />
		</g></a>
		<a xlink:href="https://nwcua.org/culture-defines-experience-weaving-culture-and-brand-through-your-organization/" title="Culture Defines Experience: Weaving Culture and Brand Through Your Organization" target="_top"><g id="culture">
			<line class="cls-17" x1="274.72" y1="253.05" x2="274.72" y2="423.55" />
			<circle class="cls-18" cx="274.72" cy="428.1" r="9.24" />
			<polygon class="cls-19" points="354.47 259.9 167.93 259.9 189.23 183.44 375.86 183.44 354.47 259.9" />
			<path class="cls-18" d="M293.68,333.6v-.06a10.3,10.3,0,0,1,10.56-10.48,10.43,10.43,0,0,1,8,3.13l-2.84,3.27a7.46,7.46,0,0,0-5.18-2.29,6,6,0,0,0-5.87,6.31v.06c0,3.47,2.4,6.37,5.87,6.37a7.31,7.31,0,0,0,5.33-2.38l2.83,2.87a10.34,10.34,0,0,1-8.3,3.62A10.23,10.23,0,0,1,293.68,333.6Z" />
			<path class="cls-18" d="M315.62,335V323.41h4.46v11.46c0,3.3,1.65,5,4.37,5s4.37-1.65,4.37-4.87v-11.6h4.46v11.43c0,6.14-3.45,9.15-8.89,9.15S315.62,341,315.62,335Z" />
			<path class="cls-18" d="M337.83,323.41h4.45v16.21h10.11v4.05H337.83Z" />
			<path class="cls-18" d="M357.57,327.52H351.4v-4.11h16.79v4.11H362v16.15h-4.46Z" />
			<path class="cls-18" d="M371.29,335V323.41h4.46v11.46c0,3.3,1.65,5,4.37,5s4.37-1.65,4.37-4.87v-11.6H389v11.43c0,6.14-3.44,9.15-8.89,9.15S371.29,341,371.29,335Z" />
			<path class="cls-18" d="M393.5,323.41h9.26a8.1,8.1,0,0,1,5.91,2,6.39,6.39,0,0,1,1.73,4.63v.06a6.28,6.28,0,0,1-4.34,6.28l4.95,7.24H405.8l-4.34-6.49H398v6.49H393.5Zm9,9.84c2.17,0,3.42-1.16,3.42-2.87v-.06c0-1.91-1.33-2.89-3.51-2.89H398v5.82Z" />
			<path class="cls-18" d="M414.43,323.41h15.28v4H418.86v4.11h9.55v4h-9.55v4.25h11v4H414.43Z" />
			<path class="cls-18" d="M294.57,358.15h7.91c6.36,0,10.76,4.37,10.76,10.07v.06c0,5.7-4.4,10.13-10.76,10.13h-7.91Zm7.91,16.24a5.77,5.77,0,0,0,6.1-6.05v-.06a5.82,5.82,0,0,0-6.1-6.11H299v12.22Z" />
			<path class="cls-18" d="M317.21,358.15H332.5v4H321.64v4.11h9.55v4h-9.55v4.25h11v4H317.21Z" />
			<path class="cls-18" d="M336.61,358.15H352v4.05h-11v4.31h9.66v4.06h-9.66v7.84h-4.46Z" />
			<path class="cls-18" d="M355.8,358.15h4.46v20.26H355.8Z" />
			<path class="cls-18" d="M365.33,358.15h4.11l9.49,12.47V358.15h4.4v20.26h-3.79l-9.81-12.88v12.88h-4.4Z" />
			<path class="cls-18" d="M388.2,358.15h15.28v4H392.63v4.11h9.55v4h-9.55v4.25h11v4H388.2Z" />
			<path class="cls-18" d="M406.21,375.46l2.63-3.16a9.3,9.3,0,0,0,6.05,2.46c1.83,0,2.93-.72,2.93-1.91v-.06c0-1.12-.7-1.7-4.09-2.57-4.08-1-6.71-2.17-6.71-6.2v0c0-3.68,3-6.11,7.09-6.11a11.75,11.75,0,0,1,7.53,2.57l-2.32,3.36a9.52,9.52,0,0,0-5.27-2c-1.7,0-2.6.78-2.6,1.76v.06c0,1.33.87,1.76,4.37,2.66,4.11,1.07,6.42,2.55,6.42,6.08v.06c0,4-3.06,6.28-7.43,6.28A12.9,12.9,0,0,1,406.21,375.46Z" />
			<path class="cls-18" d="M294.57,392.89h15.29v4H299V401h9.55v4H299v4.26h11v4H294.57Z" />
			<path class="cls-18" d="M319.5,402.85l-6.77-10h5.21l4.22,6.57,4.32-6.57h5.06l-6.77,9.9,7.06,10.36h-5.21l-4.55-6.95-4.57,6.95h-5.06Z" />
			<path class="cls-18" d="M335.16,392.89h8.28c4.84,0,7.76,2.87,7.76,7V400c0,4.69-3.65,7.12-8.19,7.12h-3.39v6.08h-4.46Zm8,10.22c2.23,0,3.53-1.33,3.53-3.07V400c0-2-1.39-3.07-3.61-3.07h-3.45v6.2Z" />
			<path class="cls-18" d="M354.5,392.89h15.29v4H358.93V401h9.55v4h-9.55v4.26h11v4H354.5Z" />
			<path class="cls-18" d="M373.9,392.89h9.26a8.08,8.08,0,0,1,5.91,2.05,6.37,6.37,0,0,1,1.73,4.64v.05a6.3,6.3,0,0,1-4.34,6.29l5,7.23H386.2l-4.34-6.48h-3.5v6.48H373.9Zm9,9.84c2.17,0,3.42-1.16,3.42-2.86v-.06c0-1.91-1.33-2.9-3.5-2.9h-4.43v5.82Z" />
			<path class="cls-18" d="M395,392.89h4.46v20.26H395Z" />
			<path class="cls-18" d="M404.56,392.89h15.28v4H409V401h9.55v4H409v4.26h11v4H404.56Z" />
			<path class="cls-18" d="M424,392.89h4.11l9.49,12.48V392.89H442v20.26h-3.79l-9.81-12.88v12.88H424Z" />
			<path class="cls-18" d="M445.93,403.08V403a10.3,10.3,0,0,1,10.57-10.48,10.44,10.44,0,0,1,8,3.13l-2.83,3.27a7.5,7.5,0,0,0-5.18-2.29,6,6,0,0,0-5.88,6.31V403c0,3.47,2.4,6.37,5.88,6.37a7.33,7.33,0,0,0,5.32-2.37l2.84,2.86a10.35,10.35,0,0,1-8.31,3.62A10.23,10.23,0,0,1,445.93,403.08Z" />
			<path class="cls-18" d="M468.19,392.89h15.29v4H472.62V401h9.55v4h-9.55v4.26h11v4H468.19Z" />
			<path class="cls-4" d="M268.67,223.34a12.82,12.82,0,1,0-12.82-12.82,12.82,12.82,0,0,0,12.82,12.82Z" />
			<path class="cls-4" d="M278.33,222A15,15,0,0,1,259,222a23,23,0,0,0-12.29,19.63h43.89A23,23,0,0,0,278.33,222Z" />
		</g></a>
		<a xlink:href="https://nwcua.org/financial-strategy-riding-the-economic-wave-of-opportunity/" title="Financial Strategy: Riding the Economic Wave of Opportunity" target="_top"><g id="financial">
			<polygon class="cls-20" points="169.81 260.51 1.09 260.51 1.09 184.04 191.65 184.04 169.81 260.51" />
			<path class="cls-4" d="M111.84,236.56l-4.71-2.72v1.69H69.32V205.28H71l-2.75-4.76-2.74,4.76h1.71v32.31h39.87v1.69l4.71-2.72Zm-39.36-20.5A82.25,82.25,0,0,0,100,205.73l.76,1.45,2.92-4.61-5.46-.23.82,1.57A80.28,80.28,0,0,1,72.14,214l.34,2Zm28.59-6.1a1.52,1.52,0,0,0-1.52,1.52v20.61a1.53,1.53,0,0,0,1.52,1.53h2.55a1.52,1.52,0,0,0,1.51-1.53V211.48a1.51,1.51,0,0,0-1.51-1.52Zm-9.27,3.27a1.53,1.53,0,0,0-1.52,1.53v17.33a1.53,1.53,0,0,0,1.52,1.53h2.54a1.53,1.53,0,0,0,1.52-1.53V214.76a1.53,1.53,0,0,0-1.52-1.53Zm-9.26,3.19A1.52,1.52,0,0,0,81,217.94v14.15a1.53,1.53,0,0,0,1.52,1.53h2.55a1.53,1.53,0,0,0,1.52-1.53V217.94a1.52,1.52,0,0,0-1.52-1.52ZM71.77,232.09V221.64a1.52,1.52,0,0,1,1.52-1.52h2.54a1.52,1.52,0,0,1,1.52,1.52v10.45a1.53,1.53,0,0,1-1.52,1.53H73.29a1.53,1.53,0,0,1-1.52-1.53Z" />
			<line class="cls-21" x1="89.18" y1="184.28" x2="89.18" y2="13.79" />
			<circle class="cls-22" cx="89.18" cy="9.24" r="9.24" />
			<path class="cls-22" d="M114.37,53.23H129.8v4.05h-11V61.6h9.67v4.05h-9.67v7.84h-4.46Z" />
			<path class="cls-22" d="M133.57,53.23H138V73.49h-4.46Z" />
			<path class="cls-22" d="M143.09,53.23h4.11l9.5,12.48V53.23h4.4V73.49h-3.79l-9.82-12.88V73.49h-4.4Z" />
			<path class="cls-22" d="M172.91,53.09H177l8.69,20.4h-4.66L179.19,69h-8.57l-1.85,4.54h-4.54ZM177.6,65l-2.69-6.57L172.22,65Z" />
			<path class="cls-22" d="M188.84,53.23H193l9.49,12.48V53.23h4.4V73.49h-3.79l-9.82-12.88V73.49h-4.39Z" />
			<path class="cls-22" d="M210.81,63.42v-.06a10.3,10.3,0,0,1,10.56-10.48,10.47,10.47,0,0,1,8,3.13l-2.83,3.27A7.48,7.48,0,0,0,221.35,57a6,6,0,0,0-5.88,6.31v0c0,3.48,2.4,6.37,5.88,6.37a7.33,7.33,0,0,0,5.32-2.37l2.84,2.86a10.37,10.37,0,0,1-8.31,3.62A10.23,10.23,0,0,1,210.81,63.42Z" />
			<path class="cls-22" d="M233.28,53.23h4.45V73.49h-4.45Z" />
			<path class="cls-22" d="M249.75,53.09h4.11l8.68,20.4h-4.66L256,69h-8.57l-1.85,4.54h-4.55ZM254.44,65l-2.7-6.57L249.05,65Z" />
			<path class="cls-22" d="M265.67,53.23h4.46V69.44h10.1v4H265.67Z" />
			<path class="cls-22" d="M113,105.28l2.64-3.15a9.31,9.31,0,0,0,6,2.46c1.82,0,2.92-.73,2.92-1.91v-.06c0-1.13-.69-1.71-4.08-2.58-4.08-1-6.72-2.17-6.72-6.19v-.06c0-3.67,3-6.11,7.1-6.11a11.71,11.71,0,0,1,7.52,2.58l-2.31,3.36a9.49,9.49,0,0,0-5.27-2c-1.71,0-2.61.78-2.61,1.77v0c0,1.34.87,1.77,4.37,2.67,4.11,1.07,6.43,2.54,6.43,6.08v0c0,4-3.07,6.28-7.44,6.28A12.92,12.92,0,0,1,113,105.28Z" />
			<path class="cls-22" d="M137.19,92.08H131V88h16.79v4.11h-6.17v16.16h-4.45Z" />
			<path class="cls-22" d="M151.23,88h9.26a8.06,8.06,0,0,1,5.9,2.06,6.36,6.36,0,0,1,1.74,4.63v.06a6.29,6.29,0,0,1-4.34,6.28l5,7.24h-5.21l-4.34-6.49h-3.51v6.49h-4.45Zm9,9.84c2.17,0,3.42-1.15,3.42-2.86v-.06c0-1.91-1.34-2.89-3.51-2.89h-4.43v5.81Z" />
			<path class="cls-22" d="M179.11,87.83h4.11l8.68,20.41h-4.66l-1.85-4.55h-8.57L175,108.24h-4.55Zm4.68,11.92-2.69-6.57-2.69,6.57Z" />
			<path class="cls-22" d="M197.14,92.08H191V88h16.79v4.11H201.6v16.16h-4.46Z" />
			<path class="cls-22" d="M211.18,88h15.29v4H215.61v4.11h9.55v4h-9.55v4.26h11v4H211.18Z" />
			<path class="cls-22" d="M229.68,98.16V98.1a10.4,10.4,0,0,1,10.63-10.47,11.17,11.17,0,0,1,8,2.77l-2.81,3.39a7.46,7.46,0,0,0-5.3-2.05,6.09,6.09,0,0,0-5.82,6.31v0a6.07,6.07,0,0,0,6.14,6.43,7.13,7.13,0,0,0,4.2-1.22v-2.89h-4.49V96.57H249v8.8a13.12,13.12,0,0,1-8.65,3.21C234,108.58,229.68,104.15,229.68,98.16Z" />
			<path class="cls-22" d="M258.11,100.25,250.33,88h5.21l4.83,8.14L265.29,88h5.07l-7.79,12.19v8.08h-4.46Z" />
		</g></a>
	</g>
</svg>
